<?xml version="1.0" encoding="UTF-8"?>
<svg width="360px" height="200px" viewBox="0 0 360 200" version="1.1" xmlns="http://www.w3.org/2000/svg" xmlns:xlink="http://www.w3.org/1999/xlink">
    <!-- Generator: Sketch 54.1 (76490) - https://sketchapp.com -->
    <title>ar@JPG</title>
    <desc>Created with Sketch.</desc>
    <defs>
        <rect id="path-1" x="0" y="0" width="360" height="200"></rect>
    </defs>
    <g id="Page-1" stroke="none" stroke-width="1" fill="none" fill-rule="evenodd">
        <g id="Desktop-HD" transform="translate(-540.000000, -4159.000000)">
            <g id="Portfolio" transform="translate(0.000000, 3920.000000)">
                <g id="Works" transform="translate(150.000000, 239.000000)">
                    <g id="Project-2" transform="translate(390.000000, 0.000000)">
                        <g id="Content/Projects/Dark/Case-(Var-3)">
                            <g id="ar">
                                <mask id="mask-2" fill="white">
                                    <use xlink:href="#path-1"></use>
                                </mask>
                                <g id="Path"></g>
                                <g mask="url(#mask-2)" fill-rule="nonzero">
                                    <g transform="translate(68.000000, 4.000000)">
                                        <path d="M244,71.8878727 L244,111 L32,111 L32,83.1362185 C35.9218434,68.0636669 42.9787274,53.9869633 52.7102509,41.8244917 L200.678656,18 C205.150325,20.9271228 209.406433,24.1707448 213.414291,27.7059525 L125.700423,61.1514383 L222.806704,37.0251756 C226.788426,41.4727694 230.407143,46.232193 233.628101,51.2577368 L213.81014,66.0692346 L236.202081,55.4758489 C238.274179,59.049266 240.145856,62.7351098 241.808442,66.516306 C242.584417,68.2844706 243.314936,70.0749929 244,71.8878727 Z" id="Path" fill="#F2F2F2"></path>
                                        <path d="M189,11.1951242 C173.736234,3.80541135 156.972871,-0.0237558145 139.990368,0.000110886136 C105.426725,0.000110886136 74.524998,15.5569481 54,40 C89.1471145,32.3558216 150.341042,19.1232995 189,11.1951242 Z" id="Path" fill="#F2F2F2"></path>
                                        <path d="M244,73.6800005 L244,141 L33.6324877,141 C32.6222701,140.417643 32.0003378,139.344993 32.0000002,138.18444 L32.0000002,82.2977708 C31.9992824,78.2403289 33.6209793,74.3488646 36.5081838,71.4798211 C39.3953883,68.6107776 43.3114835,66.9992834 47.3946055,67.0000002 L237.277705,67.0000002 C240.990215,67.0002518 243.999738,69.9908399 244,73.6800005 Z" id="Path" fill="#2F2E41"></path>
                                        <path d="M222.999562,137.993303 C222.999562,135.235571 221.660362,133 220.008371,133 C218.970055,133 218.055584,133.883498 217.519252,135.224368 C217.33804,135.145746 217.143829,135.105027 216.947617,135.104515 C216.421494,135.127523 215.931676,135.391132 215.608241,135.825338 C215.124777,134.15348 214.099594,133 212.91299,133 C211.803522,133 210.835862,134.009129 210.319466,135.506777 C210.032574,135.253793 209.671065,135.111743 209.295727,135.104515 C208.027926,135.104515 207.000162,136.820187 207.000162,138.93658 C206.994903,139.642082 207.117622,140.342237 207.361825,141 L222.396302,141 C222.804914,140.055759 223.010817,139.029521 222.999562,137.993303 L222.999562,137.993303 Z" id="Path" fill="#3F3D56"></path>
                                        <path d="M67.9992297,136.865799 C67.9992297,133.073915 66.6600674,130 65.0081221,130 C63.969835,130 63.05539,131.214805 62.5190732,133.058503 C62.3467742,132.952946 62.1492939,132.896013 61.9474541,132.893706 C61.4474368,132.893706 60.9851292,133.261815 60.6081152,133.884839 C60.1246647,131.586032 59.099511,130 57.9129405,130 C56.8035036,130 55.8358702,131.38755 55.3194886,133.446818 C55.0752267,133.121071 54.7011661,132.918965 54.2957815,132.893706 C53.0280157,132.893706 52.0002805,135.252756 52.0002805,138.1628 C51.9933462,139.120546 52.1149912,140.074863 52.3619328,141 L67.3959886,141 C67.8106654,139.661956 68.0142078,138.267016 67.9992297,136.865799 L67.9992297,136.865799 Z" id="Path" fill="#3F3D56"></path>
                                        <path d="M48.6859201,99.5475364 L50.2527196,99.5475364 C51.7343123,99.5518827 52.9343032,100.754596 52.9386396,102.23955 L52.9386396,119.288971 C52.9386396,121.890796 55.0430608,123.999992 57.6389958,123.999992 L57.6389958,123.999992 C60.2349308,123.999992 62.3393519,121.890796 62.3393519,119.288971 L62.3393519,78.011405 C62.3436884,76.5264507 63.5436792,75.3237372 65.025272,75.3193909 L66.5920582,75.3193909 C68.0736514,75.3237372 69.273643,76.5264503 69.2779809,78.011405 L69.2779809,119.288969 C69.2779802,120.538409 69.7731947,121.736676 70.6546826,122.620164 C71.5361705,123.503652 72.7317249,123.99999 73.9783371,123.999989 L73.9783371,123.999989 C75.2249492,123.99999 76.4205036,123.503652 77.3019915,122.620164 C78.1834794,121.736676 78.6786939,120.538409 78.6786932,119.288969 L78.6786932,94.1634949 C78.6830297,92.6785391 79.8830217,91.4758245 81.3646159,91.4714782 L82.9314022,91.4714782 C84.4129959,91.4758245 85.6129872,92.6785396 85.6173222,94.1634949 L85.6173222,119.288969 C85.6173222,121.890794 87.7217433,123.999989 90.3176783,123.999989 L90.3176783,123.999989 C92.9136134,123.999989 95.0180345,121.890794 95.0180345,119.288969 L95.0180345,111.661589 C95.0223725,110.176629 96.2223741,108.973914 97.7039731,108.969578 L99.2707594,108.969578 C100.752353,108.973924 101.952344,110.176637 101.956682,111.661592 L101.956682,119.288971 C101.956681,120.538412 102.451896,121.736679 103.333384,122.620167 C104.214872,123.503655 105.410426,123.999993 106.657038,123.999992 L106.657038,123.999992 C107.90365,123.999993 109.099205,123.503655 109.980693,122.620167 C110.862181,121.736679 111.357395,120.538412 111.357394,119.288971 L111.357394,92.5931432 C111.361732,91.1081853 112.561729,89.905471 114.043325,89.9011291 L115.610111,89.9011291 C117.091703,89.9054812 118.291689,91.1081979 118.296021,92.5931511 L118.296021,119.288979 C118.296021,121.890804 120.400442,124 122.996377,124 L122.996377,124 C125.592312,124 127.696733,121.890804 127.696733,119.288979 L127.696733,85.4144451 C127.701069,83.9294908 128.90106,82.7267773 130.382653,82.722431 L131.949442,82.722431 C133.431035,82.7267773 134.631026,83.9294908 134.635362,85.4144451 L134.635362,119.288969 C134.635361,120.538409 135.130576,121.736676 136.012064,122.620164 C136.893552,123.503652 138.089106,123.99999 139.335718,123.999989 L139.335718,123.999989 C140.582331,123.99999 141.777885,123.503652 142.659374,122.620164 C143.540862,121.736676 144.036077,120.53841 144.036077,119.288969 L144.036077,102.239548 C144.040415,100.754587 145.240417,99.5518725 146.722016,99.5475364 L148.288802,99.5475364 C149.770395,99.5518827 150.970385,100.754596 150.974722,102.23955 L150.974722,119.288971 C150.974722,121.890796 153.079143,123.999992 155.675078,123.999992 L155.675078,123.999992 C158.271013,123.999992 160.375434,121.890796 160.375434,119.288971 L160.375434,94.1634949 C160.379769,92.6785396 161.57976,91.4758245 163.061354,91.4714782 L164.628143,91.4714782 C166.109737,91.4758245 167.309728,92.6785396 167.314063,94.1634949 L167.314063,119.288969 C167.314063,121.890794 169.418484,123.999989 172.014419,123.999989 L174.11246,123.999989 C175.395643,123.982318 176.619654,123.456182 177.516909,122.536602 C178.017302,122.037281 178.694599,121.756854 179.400706,121.756638 L180.967524,121.756638 C181.673632,121.756854 182.35093,122.037281 182.851324,122.536602 C183.748578,123.456182 184.972588,123.982318 186.25577,123.999989 L188.353811,123.999989 C189.600423,123.99999 190.795978,123.503652 191.677465,122.620164 C192.558953,121.736676 193.054168,120.538409 193.054167,119.288969 L193.054167,116.821283 C193.058504,115.336329 194.258494,114.133616 195.740087,114.129269 L197.306876,114.129269 C198.788469,114.133616 199.98846,115.336329 199.992796,116.821283 L199.992796,119.288969 C199.992796,121.890794 202.097217,123.999989 204.693152,123.999989 L204.693152,123.999989 C207.289087,123.999989 209.393508,121.890794 209.393508,119.288969 L209.393508,92.5931405 C209.397846,91.1081872 210.597837,89.9054754 212.079428,89.9011291 L213.646215,89.9011291 C215.127808,89.9054754 216.327799,91.1081884 216.332137,92.5931432 L216.332137,119.288971 C216.332137,120.538412 216.827351,121.736679 217.708839,122.620167 C218.590327,123.503655 219.785881,123.999993 221.032494,123.999992 L221.032494,123.999992 C222.279106,123.999993 223.47466,123.503655 224.356148,122.620167 C225.237636,121.736679 225.73285,120.538412 225.73285,119.288971 L225.73285,102.23955 C225.737188,100.754596 226.937179,99.5518827 228.418772,99.5475364 L229.985559,99.5475364 C230.758009,99.5488921 231.492287,99.8843425 232,100.467822 L232,74.4617972 C232,69.2361909 227.773399,65 222.559622,65 L54.1405956,65 C49.644674,65 46.0000073,68.65293 46,73.1590524 L46,102.239537 C46.0043438,100.754588 47.2043325,99.5518827 48.6859201,99.5475364 Z" id="Path" fill="#3F3D56"></path>
                                        <rect id="Rectangle" fill="#2F2E41" x="179" y="70" width="1" height="52"></rect>
                                        <path d="M191.999594,76.4424763 C192.071459,92.1328295 182.579609,105.270409 180.190302,108.327518 C179.844003,108.767719 179.647973,109 179.647973,109 C179.647973,109 179.37572,108.685874 178.911799,108.093035 C176.409242,104.900993 168.320026,93.6127165 167.143903,79.7318635 C167.135182,79.6345311 167.126473,79.5371987 167.119933,79.4398663 C167.045889,78.4908735 167.00596,77.5300883 167.000145,76.5575105 C166.993801,74.1727992 167.194963,71.7921832 167.601284,69.443441 C167.620899,69.3129226 167.644845,69.1846166 167.666621,69.0541114 C170.236696,54.7087125 179.351764,44 179.351764,44 C181.263436,46.3251556 182.98061,48.8083719 184.485387,51.4237686 C184.524589,51.4901274 184.563792,51.5564862 184.600816,51.6228608 C185.767019,53.6223364 186.819288,55.6881333 187.752435,57.8100642 C187.787278,57.883068 187.817774,57.9560719 187.848269,58.0290601 C190.122137,63.2562244 191.969097,69.5982773 191.999594,76.4424763 Z" id="Path" fill="#FB515E"></path>
                                        <rect id="Rectangle" fill="#2F2E41" x="99" y="59" width="1" height="52"></rect>
                                        <path d="M110.999602,66.4414854 C111.081051,84.3907417 98.6474782,99 98.6474782,99 C98.6474782,99 86.0818478,84.5077631 86.0003984,66.5585068 C85.918949,48.6092505 98.3525218,34 98.3525218,34 C98.3525218,34 110.91815,48.4922343 110.999602,66.4414854 Z" id="Path" fill="#FB515E"></path>
                                        <path d="M75.8133224,80.5814074 C75.4309751,81.0907869 74.9348898,81.0788069 74.4876296,80.8446237 C74.0403695,80.6104405 73.8112869,80.2427567 74.1936369,79.7333771 C74.575987,79.2239976 75.8722366,79 75.8722366,79 C75.8722366,79 76.1956724,80.0720301 75.8133224,80.5814074 Z" id="Path" fill="#000000" opacity="0.1"></path>
                                        <path d="M161.813325,86.5814069 C161.430975,87.090787 160.934893,87.078807 160.48763,86.8446235 C160.040367,86.61044 159.811288,86.2427582 160.193638,85.733378 C160.575987,85.2239978 161.872239,85 161.872239,85 C161.872239,85 162.195669,86.0720267 161.813325,86.5814069 Z" id="Path" fill="#000000" opacity="0.1"></path>
                                        <path d="M114.959812,83.0713375 C115.126969,83.6158123 114.752023,83.8801553 114.217506,83.9717222 C113.68299,84.063289 113.191312,83.9474125 113.024155,83.4029355 C112.856998,82.8584585 113.612174,82 113.612174,82 C113.612174,82 114.792653,82.5268605 114.959812,83.0713375 Z" id="Path" fill="#000000" opacity="0.1"></path>
                                        <path d="M191.959812,107.071337 C192.126969,107.615812 191.752023,107.880155 191.217507,107.971722 C190.68299,108.063289 190.191315,107.947412 190.024156,107.402935 C189.856996,106.858458 190.612177,106 190.612177,106 C190.612177,106 191.792655,106.52686 191.959812,107.071337 Z" id="Path" fill="#000000" opacity="0.1"></path>
                                        <path d="M108.939718,94.142671 C109.190455,95.2316247 108.628036,95.7603087 107.82626,95.9434439 C107.024484,96.1265791 106.286969,95.894823 106.036233,94.8058693 C105.785496,93.7169156 106.918264,92 106.918264,92 C106.918264,92 108.688984,93.0537148 108.939718,94.142671 Z" id="Path" fill="#000000" opacity="0.1"></path>
                                        <path d="M140.799177,100.091004 C140.286437,101.12942 139.532899,101.164465 138.824212,100.760432 C138.115524,100.356399 137.720042,99.6662967 138.232782,98.6278803 C138.745522,97.589464 140.68101,97 140.68101,97 C140.68101,97 141.311916,99.0525982 140.799177,100.091004 Z" id="Path" fill="#000000" opacity="0.1"></path>
                                        <path d="M173.988419,111.688925 C173.841659,112.78797 173.126314,113.085879 172.307103,112.979995 C171.487891,112.87411 170.875033,112.404528 171.021793,111.305483 C171.168553,110.206438 172.83857,109 172.83857,109 C172.83857,109 174.135179,110.58988 173.988419,111.688925 Z" id="Path" fill="#000000" opacity="0.1"></path>
                                        <polygon id="Rectangle" fill="#3F3D56" transform="translate(97.214642, 61.056934) rotate(-45.870450) translate(-97.214642, -61.056934) " points="81.2634994 61.0473142 113.165781 61.0590413 113.165784 61.0665528 81.2635022 61.0548258"></polygon>
                                        <polygon id="Rectangle" fill="#3F3D56" transform="translate(99.454208, 68.665854) rotate(-45.870450) translate(-99.454208, -68.665854) " points="83.5030658 68.6562347 115.405347 68.6679618 115.40535 68.6754733 83.5030685 68.6637463"></polygon>
                                        <path d="M185,51.1988748 L168,69 C168.019616,68.8696241 168.043563,68.7414582 168.065339,68.6110955 L184.884561,51 C184.923772,51.0662916 184.962975,51.1325728 185,51.1988748 Z" id="Path" fill="#3F3D56"></path>
                                        <polygon id="Rectangle" fill="#3F3D56" transform="translate(179.182736, 75.379617) rotate(-45.909380) translate(-179.182736, -75.379617) " points="163.231602 75.3699424 195.133868 75.381669 195.133871 75.3892916 163.231605 75.3775651"></polygon>
                                        <path d="M189,57.226442 L167.482151,79.6660883 L167.162973,80 L167,79.8398931 L167.45724,79.3641665 L188.900411,57 C188.936613,57.0754933 188.968308,57.1509731 189,57.226442 Z" id="Path" fill="#3F3D56"></path>
                                        <path d="M98,54 L95,54 L95,51 L98,51 L98,54 Z M95.2307651,53.7692292 L97.7692264,53.7692292 L97.7692264,51.2307679 L95.2307651,51.2307679 L95.2307651,53.7692292 Z" id="Shape" fill="#2F2E41"></path>
                                        <path d="M181,91 L178,91 L178,88 L181,88 L181,91 Z M178.230774,90.7692179 L180.769235,90.7692179 L180.769235,88.2307793 L178.230774,88.2307793 L178.230774,90.7692179 Z" id="Shape" fill="#2F2E41"></path>
                                        <circle id="Oval" fill="#FB515E" opacity="0.4" cx="65.5" cy="25.5" r="3.5"></circle>
                                        <circle id="Oval" fill="#FB515E" opacity="0.4" cx="60" cy="27" r="2"></circle>
                                        <circle id="Oval" fill="#FB515E" opacity="0.4" cx="212" cy="17" r="7"></circle>
                                        <circle id="Oval" fill="#FB515E" opacity="0.4" cx="201.5" cy="25.5" r="4.5"></circle>
                                        <path d="M72.1961133,126 L72,125.995794 C72.075851,123.600705 72.3085062,121.214716 72.6961632,118.856309 C73.5441957,113.806985 74.9543279,110.490835 76.8873882,109 L77,109.176282 C72.484346,112.65883 72.1984109,125.866946 72.1961133,126 Z" id="Path" fill="#2F2E41"></path>
                                        <path d="M74.1739782,126 L74,125.996029 C74.003738,125.770947 74.1124754,120.466213 75.9000974,119 L76,119.16633 C74.2844999,120.573396 74.1748291,125.945912 74.1739782,126 Z" id="Path" fill="#2F2E41"></path>
                                        <circle id="Oval" fill="#FB515E" cx="78" cy="109" r="1"></circle>
                                        <circle id="Oval" fill="#FB515E" cx="78" cy="117" r="1"></circle>
                                        <path d="M73.9729786,110.907488 C74.0461233,111.617283 73.9701457,112.338851 73.7526473,113 C72.9766192,111.906408 72.7821435,110.340293 73.2559389,109 C73.6233016,109.545705 73.8705608,110.20347 73.9729786,110.907488 L73.9729786,110.907488 Z" id="Path" fill="#2F2E41"></path>
                                        <path d="M77.2026871,112.876511 C76.4894514,113.017527 75.7298913,113.038172 75,112.93638 C75.9466916,112.177676 77.5128075,111.839527 79,112.072719 C78.5230379,112.435089 77.9032644,112.712263 77.2026871,112.876511 Z" id="Path" fill="#2F2E41"></path>
                                        <path d="M77.6520172,120.876507 C77.1170905,121.017525 76.5474197,121.038172 76,120.936382 C76.7100174,120.17768 77.8846034,119.83953 79,120.072716 C78.6422798,120.435086 78.1774502,120.71226 77.6520172,120.876507 Z" id="Path" fill="#2F2E41"></path>
                                        <path d="M0.741425854,184 C0.741425854,184 -0.827211638,190.202703 0.598823863,190.472385 C2.02485936,190.742067 9.01242968,190.655023 10.7236718,190.924705 C12.4349138,191.194387 16,190.742067 16,189.528496 C16,188.314924 12.2923119,187.505875 12.2923119,187.505875 C12.2923119,187.505875 7.01598362,184.809047 6.87337903,184.674207 C6.73077444,184.539367 0.741425854,184 0.741425854,184 Z" id="Path" fill="#2F2E41"></path>
                                        <path d="M2.06468908,144.714286 C2.06468908,144.714286 2.48979479,149.571427 2.48979479,149.999999 C2.48979479,150.428571 2.06468908,157.142857 2.48979479,157.428565 C2.9149005,157.714274 2.20639184,159.714281 2.20639184,160.428565 C2.20639184,161.142848 -0.060834316,172.999994 0.505971578,177.571424 C1.07277747,182.142853 -0.344237263,181.714281 0.080865866,182.142853 C0.505968995,182.571426 0.505971578,182.571423 0.505971578,183.428567 C0.505971578,184.285711 5.04044197,185 5.04044197,185 L10,153.428571 L7.4493709,144 L2.06468908,144.714286 Z" id="Path" fill="#575A89"></path>
                                        <path d="M2.06468908,144.714286 C2.06468908,144.714286 2.48979479,149.571427 2.48979479,149.999999 C2.48979479,150.428571 2.06468908,157.142857 2.48979479,157.428565 C2.9149005,157.714274 2.20639184,159.714281 2.20639184,160.428565 C2.20639184,161.142848 -0.060834316,172.999994 0.505971578,177.571424 C1.07277747,182.142853 -0.344237263,181.714281 0.080865866,182.142853 C0.505968995,182.571426 0.505971578,182.571423 0.505971578,183.428567 C0.505971578,184.285711 5.04044197,185 5.04044197,185 L10,153.428571 L7.4493709,144 L2.06468908,144.714286 Z" id="Path" fill="#000000" opacity="0.1"></path>
                                        <path d="M2.63241014,185.813878 C2.63241014,185.813878 1.20948732,191.544936 2.63241014,191.863327 C4.05533297,192.181719 11.0276691,191.498597 12.7351791,191.816989 C14.442689,192.135381 18,192.181719 18,190.748955 C18,189.316192 14.3003981,188.361014 14.3003981,188.361014 C14.3003981,188.361014 9.03557453,185.177095 8.89328354,185.017898 C8.75099256,184.858701 2.63241014,185.813878 2.63241014,185.813878 Z" id="Path" fill="#2F2E41"></path>
                                        <path d="M0.69205572,139 C0.69205572,139 -1.04288925,143.167156 0.981212775,145.322582 C3.0053148,147.478008 5.31857651,151.788857 5.31857651,152.076247 C5.31857651,152.363636 1.27038564,180.958945 1.84868658,182.826979 C2.42698751,184.695013 2.28242348,185.844577 2.13784363,186.131966 C1.99326379,186.419356 3.58363154,188 5.31857651,188 C7.05352147,188 9.6559376,186.706745 9.94509466,185.557184 C10.2342517,184.407623 9.51136039,174.49267 9.6559376,172.624634 C9.80051481,170.756597 10.5234114,168.026395 10.8125685,167.451613 C11.1017255,166.876831 12.6920906,166.302055 12.9812503,164.577714 C13.27041,162.853374 15.5836665,140.868036 14.8607725,140.149561 C14.1378785,139.431086 0.69205572,139 0.69205572,139 Z" id="Path" fill="#575A89"></path>
                                        <circle id="Oval" fill="#FFB9B9" cx="12" cy="100" r="5"></circle>
                                        <path d="M8,102.667677 C8,102.667677 9.06485201,107.98721 8.30424304,108.562294 C7.54363406,109.137377 14.0848746,110 14.0848746,110 C14.0848746,110 14.8454836,102.955214 14.9976065,102.236358 C15.1497294,101.517502 8,102.667677 8,102.667677 Z" id="Path" fill="#FFB9B9"></path>
                                        <path d="M15.2701022,109.894356 C15.2701022,109.894356 13.5496245,104.807852 6.52433929,106.261137 C6.52433929,106.261137 5.23398164,106.697124 5.66410173,107.13311 C6.09422182,107.569097 6.52433929,107.569097 5.95084758,108.005081 C5.37735588,108.441066 4.66048993,108.005081 5.09061002,108.441068 C5.52073011,108.877055 1.21953446,111.492971 1.50628031,116.434147 C1.79302617,121.375324 0.502668515,128.351102 1.50628031,129.51373 C2.50989211,130.676358 0.789414369,135.762865 1.07616022,136.780166 C1.36290608,137.797466 -0.644317515,139.105427 0.215922661,139.541411 C1.07616284,139.977395 16.5604599,142.593316 16.99058,139.541411 C17.4207,136.489506 17.1339516,138.66944 17.5640717,137.942796 C17.9941918,137.216152 18.1375634,135.908195 17.8508175,134.309577 C17.5640717,132.71096 16.8472057,128.787087 17.1339516,127.333802 C17.4206974,125.880517 17.1339516,113.672902 16.273714,112.219628 C15.4134765,110.766353 15.2701022,109.894356 15.2701022,109.894356 Z" id="Path" fill="#FB515E"></path>
                                        <path d="M11.813943,145.305087 C11.813943,145.305087 9.64252456,154 12.3929869,154 C15.1434492,154 14.9986869,145 14.9986869,145 L11.813943,145.305087 Z" id="Path" fill="#FFB9B9"></path>
                                        <path d="M14,99.722527 C14,100.136198 13.364773,100.398659 12.3801596,100.458567 L12.3786461,100.458567 C11.9611952,100.480935 11.5425445,100.473307 11.1263213,100.435746 C10.4971512,100.381543 10.2369936,100.939276 10.1295942,101.675321 C9.95416357,102.889223 10.1991804,104.590962 9.91635034,104.857706 C9.52612365,105.225722 6.68119086,104.856279 5.79186316,104.021815 C5.6534303,103.904731 5.56118995,103.746831 5.53021138,103.573912 C5.43690873,103.064353 5.17041865,102.597236 4.77095006,102.243041 C4.24613021,101.702424 3.49898258,101.103319 2.65653271,100.150459 C1.14406966,98.4387328 2.65653271,98.2960905 3.11026941,97.0122938 C3.56400612,95.7284971 4.3202404,95.3005675 4.3202404,94.4447056 C4.3202404,93.5888437 7.79890319,92.8756216 10.6725819,93.0182665 C13.5462605,93.1609115 12.9412764,96.5843642 12.9412764,96.5843642 C12.9412764,96.5843642 13.1121858,96.998035 13.3163651,97.5315196 C13.5925686,98.2009677 13.8169971,98.8884041 13.9878891,99.5884336 C13.9950017,99.6328368 13.9990472,99.6776289 14,99.722527 L14,99.722527 Z" id="Path" fill="#2F2E41"></path>
                                        <polygon id="Path" fill="#575A89" points="17 94.3560393 17 93 13.4810833 93.3013115 13 95.551672 13.9866366 97 16.34834 95.2602486"></polygon>
                                        <polygon id="Path" fill="#000000" opacity="0.1" points="17 94.3560393 17 93 13.4810833 93.3013115 13 95.551672 13.9866366 97 16.34834 95.2602486"></polygon>
                                        <path d="M20,97.2456341 L17.4043476,98.0037849 L14.8086925,99.671715 L13.7877249,100.287333 L12.2548646,101.212275 L12.2534216,101.212275 L10.1091015,102.505682 L5.97337097,105 C5.84138468,104.875539 5.7534398,104.707692 5.72390385,104.52388 C5.63494615,103.98222 5.38086604,103.485675 5,103.109167 L13.1474701,98.1008298 L13.7992692,97.7005251 L17.6927531,93 L20,97.2456341 Z" id="Path" fill="#575A89"></path>
                                        <path d="M12.8362524,112.001587 C12.8362524,112.001587 7.76903267,111.712344 7.3219244,118.943422 C6.87481614,126.174499 7.02384227,132.971711 7.02384227,133.116331 C7.02384227,133.260951 9.11034387,147 11.0478112,147 C12.9852785,147 14.4756349,146.710757 14.9227404,145.987649 C15.369846,145.264541 13.7304526,134.851789 13.7304526,134.851789 C13.7304526,134.851789 12.9852731,123.860552 14.1775609,120.389635 C15.3698487,116.918718 15.5188965,112.43545 12.8362524,112.001587 Z" id="Path" fill="#000000" opacity="0.1"></path>
                                        <path d="M13.8362426,111.001587 C13.8362426,111.001587 8.76902526,110.712344 8.32191721,117.943422 C7.87480916,125.174499 8.02384608,131.971711 8.02384608,132.116331 C8.02384608,132.260951 10.1103467,146 12.0478131,146 C13.9852795,146 15.4756351,145.710757 15.9227405,144.987649 C16.3698458,144.264541 14.7304532,133.851789 14.7304532,133.851789 C14.7304532,133.851789 13.9852741,122.860552 15.1775613,119.389635 C16.3698485,115.918718 16.5188854,111.435452 13.8362426,111.001587 Z" id="Path" fill="#FB515E"></path>
                                    </g>
                                </g>
                            </g>
                        </g>
                    </g>
                </g>
            </g>
        </g>
    </g>
</svg>