<?xml version="1.0" encoding="UTF-8"?>
<svg width="360px" height="200px" viewBox="0 0 360 200" version="1.1" xmlns="http://www.w3.org/2000/svg" xmlns:xlink="http://www.w3.org/1999/xlink">
    <!-- Generator: Sketch 54.1 (76490) - https://sketchapp.com -->
    <title>website@JPG</title>
    <desc>Created with Sketch.</desc>
    <defs>
        <rect id="path-1" x="0" y="0" width="360" height="200"></rect>
        <linearGradient x1="49.9981717%" y1="99.9973366%" x2="49.9981717%" y2="0.0136658847%" id="linearGradient-3">
            <stop stop-color="#808080" stop-opacity="0.25" offset="0%"></stop>
            <stop stop-color="#808080" stop-opacity="0.12" offset="54%"></stop>
            <stop stop-color="#808080" stop-opacity="0.1" offset="100%"></stop>
        </linearGradient>
        <linearGradient x1="49.9993122%" y1="100%" x2="49.9993122%" y2="0%" id="linearGradient-4">
            <stop stop-color="#808080" stop-opacity="0.25" offset="0%"></stop>
            <stop stop-color="#808080" stop-opacity="0.12" offset="54%"></stop>
            <stop stop-color="#808080" stop-opacity="0.1" offset="100%"></stop>
        </linearGradient>
        <linearGradient x1="50.0213278%" y1="99.9908061%" x2="50.0213278%" y2="-0.00350724047%" id="linearGradient-5">
            <stop stop-color="#808080" stop-opacity="0.25" offset="0%"></stop>
            <stop stop-color="#808080" stop-opacity="0.12" offset="54%"></stop>
            <stop stop-color="#808080" stop-opacity="0.1" offset="100%"></stop>
        </linearGradient>
        <linearGradient x1="50.0405783%" y1="100.08431%" x2="50.0405783%" y2="-0.162958409%" id="linearGradient-6">
            <stop stop-color="#808080" stop-opacity="0.25" offset="0%"></stop>
            <stop stop-color="#808080" stop-opacity="0.12" offset="54%"></stop>
            <stop stop-color="#808080" stop-opacity="0.1" offset="100%"></stop>
        </linearGradient>
    </defs>
    <g id="Page-1" stroke="none" stroke-width="1" fill="none" fill-rule="evenodd">
        <g id="Desktop-HD" transform="translate(-930.000000, -4441.000000)">
            <g id="Portfolio" transform="translate(0.000000, 3920.000000)">
                <g id="Works" transform="translate(150.000000, 239.000000)">
                    <g id="Project-6" transform="translate(780.000000, 282.000000)">
                        <g id="Content/Projects/Dark/Case-(Var-3)">
                            <g id="Image">
                                <mask id="mask-2" fill="white">
                                    <use xlink:href="#path-1"></use>
                                </mask>
                                <g id="Path"></g>
                                <g id="website" mask="url(#mask-2)">
                                    <g transform="translate(41.000000, 11.000000)">
                                        <path d="M260.842763,152.982241 C260.341399,150.881078 258.694475,149.297808 257.481873,147.519218 C254.513923,143.053423 254.171148,137.302835 256.586996,132.506261 C257.75296,130.254169 259.580608,127.925134 258.918923,125.465885 C258.475857,123.81159 257.003828,122.678145 255.558034,121.79033 C250.065621,118.432163 243.72617,116.777087 237.319451,117.028681 C229.466687,117.354213 221.640158,120.53851 213.938969,118.961159 C206.43891,117.419319 200.084409,113.601713 192.237475,113.148928 C186.375594,112.811558 180.577841,113.190359 174.7043,112.539295 C160.1917,110.940954 145.572277,110.586548 131.001076,111.479835 C116.430844,110.586714 101.812403,110.94112 87.3007672,112.539295 C81.441801,113.190359 75.641133,112.811558 69.7675923,113.148928 C61.8973392,113.598754 55.5574131,117.422279 48.0544384,118.961159 C40.3503351,120.54147 32.5267206,117.354213 24.6739569,117.028681 C18.2672374,116.777087 11.9277872,118.432163 6.4353741,121.79033 C4.97791982,122.678145 3.52046555,123.81159 3.07448454,125.465885 C2.4157152,127.922174 4.24044796,130.25121 5.40641138,132.506261 C7.82398344,137.301773 7.48344376,143.052321 4.51736427,147.519218 C3.30476231,149.294848 1.65783898,150.881078 1.15647471,152.982241 C0.147916348,157.208242 4.19380942,160.931147 8.15225524,162.609118 C18.9519914,167.193205 32.0865694,164.976626 41.9651945,171.360018 C46.3929406,174.224702 50.266854,178.823585 55.5136894,178.99523 C59.0611332,179.110646 62.2879369,177.110102 65.3864847,175.349268 C70.0232682,172.713859 74.8703949,170.479522 79.8764951,168.669938 C84.248858,167.089626 88.8806477,165.82301 93.4949479,166.346821 C100.540282,167.136976 130.995246,182.075949 144.724466,173.248105 C154.127961,167.196164 161.461871,167.145855 168.524694,166.343861 C173.138994,165.82005 177.767869,167.086667 182.143147,168.666978 C187.149247,170.476563 191.996374,172.7109 196.633157,175.346309 C199.72879,177.107142 202.958509,179.107686 206.505953,178.99227 C211.752788,178.820626 215.626701,174.221743 220.054448,171.357059 C229.927243,164.970707 243.058906,167.190245 253.867387,162.606159 C257.805428,160.922269 261.854236,157.211201 260.842763,152.982241 Z" id="Path" stroke="none" fill="url(#linearGradient-3)" fill-rule="nonzero" opacity="0.5"></path>
                                        <path d="M259.844659,153.371393 C259.34938,151.30686 257.720786,149.737815 256.523377,147.985911 C253.595654,143.581549 253.260957,137.915276 255.649355,133.189107 C256.814717,130.968259 258.609375,128.673678 257.956772,126.252276 C257.516848,124.621295 256.063059,123.503498 254.63549,122.630495 C249.206652,119.319942 242.940349,117.687916 236.60734,117.935157 C228.846028,118.253685 221.110938,121.394724 213.495297,119.837477 C206.077767,118.321519 199.802293,114.552272 192.032241,114.106923 C186.237479,113.776597 180.495157,114.148213 174.703308,113.517056 C160.357817,111.941753 145.906743,111.592497 131.503337,112.472992 C117.099931,111.592497 102.648857,111.941753 88.303366,113.517056 C82.5115166,114.160011 76.7691952,113.785445 70.9744324,114.106923 C63.2072944,114.549323 56.9289064,118.31857 49.511377,119.837477 C41.8986495,121.394724 34.1606455,118.253685 26.3993343,117.935157 C20.0663245,117.687916 13.8000221,119.319942 8.3711835,122.630495 C6.943615,123.515295 5.48982585,124.621295 5.04990168,126.252276 C4.39729893,128.673678 6.21526372,130.971209 7.35731852,133.189107 C9.74571661,137.915276 9.41101971,143.581549 6.48329699,147.985911 C5.28297409,149.737815 3.65729404,151.298012 3.16201517,153.371393 C2.13940998,157.535851 6.13951519,161.204821 10.0463914,162.844651 C20.7240212,167.360079 33.7061543,165.174624 43.463148,171.4685 C47.8332557,174.291012 51.6702102,178.827086 56.8648115,178.995198 C60.3608976,179.110222 63.5656432,177.137118 66.6247186,175.399961 C71.2086905,172.801458 76.0006958,170.598385 80.9499315,168.814101 C85.2763381,167.253904 89.8503841,166.006336 94.4127765,166.522469 C101.404949,167.31289 131.500424,182.027113 145.059411,173.32658 C154.356087,167.363029 161.604638,167.31289 168.585157,166.522469 C173.14755,166.006336 177.724509,167.253904 182.048002,168.814101 C186.997238,170.598385 191.789243,172.801458 196.373215,175.399961 C199.435204,177.134169 202.625382,179.107273 206.133122,178.995198 C211.318983,178.827086 215.150111,174.293961 219.534786,171.4685 C229.294693,165.174624 242.276826,167.360079 252.951542,162.844651 C256.843851,161.204821 260.843957,157.535851 259.844659,153.371393 Z" id="Path" stroke="none" fill="#FB515E" fill-rule="nonzero"></path>
                                        <path d="M10.0965018,64.4629619 C10.9243029,64.1693979 11.8042033,63.8905121 12.6696317,64.0431654 C14.1168364,64.2985661 15.1327741,65.6900593 15.5640411,67.1197159 C15.9953081,68.5493724 15.9808361,70.0553556 16.255805,71.5231755 C16.5307739,72.9909953 17.1878048,74.5087211 18.4845002,75.210339 C19.7811956,75.9119569 21.3123382,75.6360067 22.7508597,75.4657396 C24.6376372,75.2450486 26.5421349,75.2273363 28.4325853,75.4128981 C30.0187217,75.568487 31.8827213,76.1115804 32.3487212,77.6586625 C32.7307833,78.9209876 31.972448,80.2097334 31.4803984,81.4280239 C30.536821,83.7060804 30.4615663,86.398062 31.541181,88.6115344 C32.6207957,90.8250067 34.8089692,92.4748363 35.7236026,94.8116055 C35.9886137,95.3960758 36.0655732,96.0503066 35.9435777,96.681608 C35.8083018,97.1236687 35.58574,97.5331829 35.2894412,97.8852203 C34.5716277,98.8216894 33.7148825,99.6466042 33.060746,100.632979 C31.6974791,102.687927 31.3241003,105.241934 31.1678022,107.710807 C31.0119007,110.138469 31.0254417,112.574275 31.2083239,115 C29.4311566,114.412872 27.468747,114.935416 25.6365858,114.550847 C21.7378164,113.734739 19.3036181,109.05533 15.3324884,108.770572 C13.4540167,108.635533 11.4337189,109.533839 9.75785586,108.661954 C8.95722694,108.194069 8.33067616,107.471937 7.97489967,106.607006 C7.26658104,105.076056 7.10491869,103.343006 7.51758299,101.704488 C7.80702393,100.571331 8.38590581,99.4616589 8.27302384,98.2962099 C8.17750833,97.2980924 7.58704881,96.4174005 6.90975701,95.6864262 C4.97918594,93.6079932 2.17739764,92.3368612 0.790975538,89.8503744 C-0.499783198,87.4326802 -0.190331445,84.4585957 1.56957167,82.3674287 C2.06440155,81.877527 2.53300241,81.3610931 2.97336023,80.8203465 C3.63907439,79.8691992 3.84168305,78.6685226 3.93140974,77.5030736 C4.12244076,74.7112802 3.6419688,71.755091 4.54213012,69.0425599 C5.34967035,66.5883651 7.81570716,65.284941 10.0965018,64.4629619 Z" id="Path" stroke="none" fill="#FB515E" fill-rule="nonzero" opacity="0.6"></path>
                                        <path d="M10,64 C10,64 17.8314481,108.67189 28,114" id="Path" stroke="#535461" stroke-width="1" fill="none" opacity="0.6"></path>
                                        <path d="M32,76 C32,76 23.4956388,77.174743 15,86" id="Path" stroke="#535461" stroke-width="1" fill="none" opacity="0.6"></path>
                                        <path d="M17,92 C17,92 10.365638,84.9396088 0,86.136666" id="Path" stroke="#535461" stroke-width="1" fill="none" opacity="0.6"></path>
                                        <path d="M36,94 C36,94 23.5935335,95.0872274 19,100" id="Path" stroke="#535461" stroke-width="1" fill="none" opacity="0.6"></path>
                                        <path d="M21,104.163716 C21,104.163716 14.2398824,102.975744 8,107" id="Path" stroke="#535461" stroke-width="1" fill="none" opacity="0.6"></path>
                                        <path d="M257.724278,28.7442027 C256.388496,28.2641833 254.971229,27.8253926 253.577243,28.0698197 C251.249083,28.4821063 249.607731,30.7202335 248.920923,33.0143139 C248.234116,35.3083942 248.248667,37.7556097 247.806317,40.111533 C247.363967,42.4674564 246.304654,44.908782 244.21513,46.0396252 C242.125607,47.1704684 239.657757,46.722843 237.338328,46.4519118 C234.300332,46.0935304 231.23342,46.0609557 228.188659,46.35473 C225.630594,46.6050468 222.630178,47.4796834 221.879346,49.9651826 C221.265294,51.9971665 222.484668,54.0644892 223.299524,56.0228505 C224.821558,59.6833665 224.943787,64.0153206 223.200577,67.5757098 C221.428265,71.197942 217.933115,73.7894577 216.460554,77.5442106 C216.088048,78.4983595 215.852322,79.5555802 216.105509,80.5480129 C216.323914,81.2598369 216.683359,81.919164 217.161912,82.4857599 C218.325992,83.9935508 219.699606,85.3217026 220.753099,86.9031162 C222.9503,90.2014089 223.546891,94.3124952 223.802988,98.2822261 C224.054525,102.184798 224.033131,106.100481 223.738964,110 C226.6026,109.045851 229.768898,109.896928 232.719841,109.281443 C239.002962,107.970961 242.925912,100.446731 249.325441,99.9873256 C252.352049,99.7723476 255.608563,101.212406 258.309228,99.8106314 C259.624639,99.1274136 260.558813,97.8522701 261.184506,96.4946692 C262.307403,94.0338148 262.553184,91.2553154 261.880044,88.631775 C261.405681,86.8088793 260.483148,85.0272122 260.66358,83.1513082 C260.817821,81.5463354 261.766546,80.1298365 262.860781,78.9577646 C265.971785,75.6152983 270.488415,73.5715348 272.723448,69.5752998 C274.818792,65.8293816 274.289136,60.7612014 271.469152,57.5424211 C270.729961,56.6972336 269.851081,55.9727872 269.205017,55.053977 C268.131153,53.5255718 267.787749,51.5937146 267.659701,49.7207555 C267.35413,45.2297766 268.107871,40.4796461 266.673143,36.1182429 C265.363553,32.148512 261.39113,30.0487953 257.724278,28.7442027 Z" id="Path" stroke="none" fill="#FB515E" fill-rule="nonzero" opacity="0.6"></path>
                                        <path d="M257,29 C257,29 244.384914,99.5832047 228,108" id="Path" stroke="#535461" stroke-width="1" fill="none" opacity="0.6"></path>
                                        <path d="M221,48 C221,48 235.005975,50.0054955 249,65" id="Path" stroke="#535461" stroke-width="1" fill="none" opacity="0.6"></path>
                                        <path d="M246,73 C246,73 256.149703,63.5820278 272,65.1832699" id="Path" stroke="#535461" stroke-width="1" fill="none" opacity="0.6"></path>
                                        <path d="M216,78 C216,78 234.974063,79.8102332 242,88" id="Path" stroke="#535461" stroke-width="1" fill="none" opacity="0.6"></path>
                                        <path d="M239,94.2214295 C239,94.2214295 249.926516,92.6260331 260,98" id="Path" stroke="#535461" stroke-width="1" fill="none" opacity="0.6"></path>
                                        <polygon id="Path" stroke="none" fill="url(#linearGradient-4)" fill-rule="nonzero" points="22 0 22 7.36781099 22 146 235 146 235 7.36781099 235 0"></polygon>
                                        <rect id="Rectangle" stroke="none" fill="#FFFFFF" fill-rule="nonzero" x="25" y="7" width="207" height="136"></rect>
                                        <rect id="Rectangle" stroke="none" fill="#EEEEEE" fill-rule="nonzero" x="25" y="0" width="207" height="10"></rect>
                                        <circle id="Oval" stroke="none" fill="#FF5252" fill-rule="nonzero" cx="33" cy="5" r="2"></circle>
                                        <circle id="Oval" stroke="none" fill="#FFFF00" fill-rule="nonzero" cx="40" cy="5" r="2"></circle>
                                        <circle id="Oval" stroke="none" fill="#69F0AE" fill-rule="nonzero" cx="47" cy="5" r="2"></circle>
                                        <rect id="Rectangle" stroke="none" fill="#FB515E" fill-rule="nonzero" opacity="0.5" x="34" y="26" width="76" height="3"></rect>
                                        <rect id="Rectangle" stroke="none" fill="#FB515E" fill-rule="nonzero" opacity="0.5" x="34" y="33" width="76" height="3"></rect>
                                        <rect id="Rectangle" stroke="none" fill="#FB515E" fill-rule="nonzero" opacity="0.5" x="34" y="39" width="76" height="3"></rect>
                                        <rect id="Rectangle" stroke="none" fill="#FB515E" fill-rule="nonzero" opacity="0.5" x="60" y="46" width="50" height="3"></rect>
                                        <rect id="Rectangle" stroke="none" fill="#FB515E" fill-rule="nonzero" opacity="0.5" x="34" y="53" width="40" height="3"></rect>
                                        <rect id="Rectangle" stroke="none" fill="#FB515E" fill-rule="nonzero" opacity="0.5" x="55" y="58" width="31" height="3"></rect>
                                        <rect id="Rectangle" stroke="none" fill="#FB515E" fill-rule="nonzero" opacity="0.5" x="121" y="48" width="90" height="53"></rect>
                                        <rect id="Rectangle" stroke="none" fill="#EEEEEE" fill-rule="nonzero" x="131" y="54" width="90" height="53"></rect>
                                        <path d="M276.551211,101.944677 C276.738961,101.703562 276.841313,101.406449 276.842073,101.100344 C276.842073,101.100344 276.842073,101.082815 276.842073,101.076971 C276.842073,101.071128 276.859525,101.015619 276.86825,100.986403 L276.86825,100.948422 C276.869667,100.920199 276.869667,100.891921 276.86825,100.863697 C276.86825,100.863697 276.86825,100.840325 276.86825,100.828638 C276.871398,100.793651 276.871398,100.758449 276.86825,100.723462 C276.696642,99.5548355 269.782845,91.9412342 268.055123,82.6535756 C267.864006,81.6424152 267.578676,80.6515404 267.202897,79.6940292 C267.25608,79.2150587 267.22457,78.7304164 267.109821,78.2624618 C266.818959,77.0733844 266.237234,75.8667776 266.528096,74.6806217 C266.568824,74.5254786 266.622334,74.3740085 266.688071,74.227779 C267.050642,73.6923999 267.383695,73.1374422 267.685728,72.5654079 C267.798326,72.3788978 267.895602,72.1834798 267.976591,71.9810947 C269.038238,69.1705481 265.751494,66.269433 266.356488,63.3361806 C266.618264,62.0652994 267.59847,60.9551042 267.572292,59.6608505 C267.540297,58.1796165 266.184879,57.031441 264.777106,56.4821866 C263.369332,55.9329321 261.819036,55.7751676 260.43744,55.1616387 C257.409564,53.8147967 255.751649,50.5630937 252.988457,48.7546442 C249.47775,46.4612149 244.896669,46.8702341 240.687892,47.463312 C240.406551,47.5048167 240.164355,47.6845328 240.042177,47.9424489 L240.042177,47.9424489 L240.001457,47.9424489 C239.969462,48.035939 239.93165,48.1265075 239.890929,48.2170761 C239.309205,49.2133301 238.328999,49.9700157 237.360427,50.66827 C236.179526,51.5038379 234.914276,52.3277196 234.192937,53.5664636 C234.085318,53.7505223 233.995151,53.9258162 233.916618,54.0952671 C232.345962,56.9087352 234.233658,58.1241067 236.534378,58.7989885 C236.465497,59.2014147 236.43047,59.6089517 236.429668,60.0172815 C236.429668,64.1074741 239.835665,67.4468241 244.032808,67.4468241 C244.364439,67.4464014 244.695712,67.4249338 245.024648,67.3825496 L245.268973,67.5432358 L245.324236,67.5432358 C246.103747,68.107098 246.778548,68.814117 247.06941,69.6555281 L244.631984,71.5253304 C244.631984,71.5253304 244.730877,71.7824282 244.876309,72.1914474 L235.295305,76.6263848 C231.665344,76.7958356 225.789926,65.3111593 225.789926,65.3111593 C225.789926,65.3111593 224.917339,58.7259493 221.813839,57.5427151 C220.877262,57.186284 220.504958,57.9312833 220.440969,59.1466548 C219.053556,60.6074379 221.383362,68.8111955 221.383362,68.8111955 L228.814894,81.984537 C229.507146,83.3343005 229.68748,84.1786331 232.96259,84.6869856 C235.658883,85.101848 244.058986,82.1043212 246.982151,81.0174986 L247.118857,82.186125 C246.779134,83.0769788 246.628544,84.029322 246.676746,84.9820638 C246.676746,87.135258 247.633683,90.2671769 252.304931,92.7621943 C252.304931,92.7621943 257.127428,99.0231104 256.592241,104.933439 C256.592241,104.933439 256.824931,105.17885 257.197235,105.500222 C257.144879,107.165515 256.906372,109.219376 256.071598,110.019885 C255.959369,110.126063 255.909849,110.283023 255.94071,110.434748 C255.904067,110.614024 255.986185,110.796666 256.144313,110.88759 L250.056566,121.59513 C249.829693,121.887287 249.599912,122.179443 249.364313,122.4716 C248.234313,123.918528 246.979735,125.262765 245.615099,126.488753 C244.599989,127.39736 243.544159,128.390693 243.334738,128.761732 C243.011881,129.346045 242.200376,131.230455 242.543593,132.78765 C242.987848,134.675781 243.169908,136.616569 243.084597,138.554821 L242.29636,152.405966 C242.032005,153.952221 241.667656,155.479538 241.205627,156.978217 L241.086373,156.978217 C241.086373,156.978217 238.148664,160.524998 233.483233,161.360566 C228.817802,162.196134 228.989411,164.574289 230.371007,164.907347 C231.752603,165.240406 248.517904,164.568446 248.517904,164.568446 C248.517904,164.568446 249.151984,163.32678 248.977467,162.193212 C254.329333,161.676095 261.743412,160.799625 261.743412,160.799625 C261.743412,160.799625 262.758521,158.348432 261.28385,157.279138 C260.728814,156.850819 260.316888,156.262792 260.102949,155.593395 C260.01569,155.219434 259.919705,154.792886 259.82663,154.345886 C259.803361,154.126769 259.803361,153.992376 259.803361,153.992376 L259.753914,153.992376 C259.495047,152.686436 259.288534,151.287006 259.407788,150.553693 C259.841173,148.610852 260.963901,137.380352 258.197801,134.172472 C256.941276,132.711689 257.112885,131.05224 257.67134,129.667417 C260.990079,127.485007 265.632241,122.790051 268.316899,119.950288 C268.468148,120.075916 268.607762,120.201543 268.73865,120.32717 L268.825908,120.411896 C268.825908,120.411896 277.961893,115.868861 277.999705,107.849162 C278.013903,105.790552 277.516005,103.760977 276.551211,101.944677 Z M247.287557,158.517882 C247.27109,158.225362 247.281801,157.931936 247.319552,157.641413 L247.028689,157.609275 C247.197389,156.335472 247.610414,154.909748 248.535356,153.92518 C250.123576,151.035601 251.246616,147.911806 251.86282,144.669659 L253.541096,151.047438 C253.541096,151.047438 253.709796,152.367986 253.756334,153.764494 L253.727248,153.764494 C253.727248,153.764494 251.385806,157.121374 247.287557,158.517882 Z" id="Shape" stroke="none" fill="url(#linearGradient-5)" fill-rule="nonzero" opacity="0.5"></path>
                                        <path d="M254,75.1004322 C254,75.1004322 249.896288,76.5741217 247.601582,79.0312379 C247.601582,79.0312379 236.436344,83.4523066 233.315661,82.9620437 C230.194978,82.4717809 230.03211,81.6508081 229.374818,80.3511764 L222.313291,67.5869362 C222.313291,67.5869362 219.358386,56.9403995 222.313291,58.0862802 C225.268197,59.2321609 226.094174,65.6287858 226.094174,65.6287858 C226.094174,65.6287858 231.678248,76.7655853 235.124668,76.6031313 L244.475083,72.158855 C244.475083,72.158855 246.609828,69.046121 247.595766,69.2114759 C248.581704,69.3768308 254,75.1004322 254,75.1004322 Z" id="Path" stroke="none" fill="#FDB797" fill-rule="nonzero"></path>
                                        <g id="Group" opacity="0.05" stroke="none" stroke-width="1" fill="none" fill-rule="evenodd" transform="translate(221.000000, 58.000000)">
                                            <path d="M32.7962609,17.0172414 C32.7962609,17.0172414 28.7473043,18.4770115 26.4832174,20.9109195 C26.4832174,20.9109195 15.4669565,25.2902299 12.387913,24.8045977 C9.30886957,24.3189655 9.14817391,23.5057471 8.49965217,22.2183908 L1.53234783,9.57471264 C1.53234783,9.57471264 -1.38313043,-0.971264368 1.53234783,0.163793103 C4.44782609,1.29885057 5.26278261,7.63505747 5.26278261,7.63505747 C5.26278261,7.63505747 10.7723478,18.6666667 14.1727826,18.5057471 L23.3984348,14.1034483 C23.3984348,14.1034483 25.5046957,11.0201149 26.4774783,11.183908 C27.4502609,11.3477011 32.7962609,17.0172414 32.7962609,17.0172414 Z" id="Path" fill="#000000" fill-rule="nonzero"></path>
                                        </g>
                                        <path d="M248.368736,69.4682687 L245,72.2842516 C245,72.2842516 246.684368,76.9764946 246.262528,78.6202132 C245.840688,80.2639317 253,76.0399573 253,76.0399573 L250.053104,69 L248.368736,69.4682687 Z" id="Path" stroke="none" fill="#F9CE43" fill-rule="nonzero"></path>
                                        <g id="Group" opacity="0.05" stroke="none" stroke-width="1" fill="none" fill-rule="evenodd" transform="translate(245.000000, 69.000000)">
                                            <path d="M3.46,0.73030303 L0.242857143,3.40909091 C0.242857143,3.40909091 1.85142857,7.87272727 1.44857143,9.43636364 C1.04571429,11 7.88285714,6.98181818 7.88285714,6.98181818 L5.06857143,0.284848485 L3.46,0.73030303 Z" id="Path" fill="#000000" fill-rule="nonzero"></path>
                                        </g>
                                        <path d="M243,66.7118987 C243,66.7118987 250.078905,68.9926582 246.818438,73 L257,68.1265823 C257,68.1265823 252.705314,68.4412658 250,62 L243,66.7118987 Z" id="Path" stroke="none" fill="#FDB797" fill-rule="nonzero"></path>
                                        <path d="M256.712893,110 L248,126.384807 L253.864717,150.207125 C253.864717,150.207125 254.498892,155.504557 253.54763,156 L260.200857,156 C260.200857,156 258.918476,151.309413 259.249594,149.711682 C259.645252,147.809063 260.675085,136.812568 258.12716,133.658148 C255.579235,130.503728 259.39551,126.376012 259.39551,126.376012 L267,113.796444 L256.712893,110 Z" id="Path" stroke="none" fill="#FDB797" fill-rule="nonzero"></path>
                                        <g id="Group" opacity="0.05" stroke="none" stroke-width="1" fill="none" fill-rule="evenodd" transform="translate(248.000000, 110.000000)">
                                            <path d="M8.68691176,0.270759494 L0.0111764706,16.5425316 L5.85088235,40.2005063 C5.85088235,40.2005063 6.48235294,45.4613924 5.53514706,45.9534177 L12.16,45.9534177 C12.16,45.9534177 10.9780882,41.2689873 11.2127941,39.708481 C11.4475,38.1479747 12.6322059,26.8983544 10.0951471,23.7656962 C7.55808824,20.633038 11.3580882,16.5337975 11.3580882,16.5337975 L18.9301471,4.04101266 L8.68691176,0.270759494 Z" id="Path" fill="#000000" fill-rule="nonzero"></path>
                                        </g>
                                        <path d="M253.216511,153 C253.216511,153 250.766394,156.45102 246.492934,157.545977 C242.219474,158.640934 242.567048,160.776372 243.874727,160.983379 C245.182406,161.190386 260.68367,159.395419 260.68367,159.395419 C260.68367,159.395419 261.626681,157.164649 260.256324,156.189538 C258.885968,155.214427 258.877421,153.193388 258.877421,153.193388 L253.216511,153 Z" id="Path" stroke="none" fill="#0D134D" fill-rule="nonzero"></path>
                                        <g id="Group" opacity="0.1" stroke="none" stroke-width="1" fill="none" fill-rule="evenodd" transform="translate(256.000000, 104.000000)">
                                            <path d="M1.27733333,0.1 C1.27733333,0.1 1.63466667,5.5 0.330666667,6.91764706 C0.238100351,7.01301113 0.192659263,7.15158336 0.2085003,7.29019243 C0.224341336,7.4288015 0.299539279,7.55060175 0.410666667,7.61764706 L4.288,9.89705882 L7.75466667,2.59117647 L1.27733333,0.1 Z" id="Path" fill="#000000" fill-rule="nonzero"></path>
                                        </g>
                                        <path d="M257.135936,103 C257.135936,103 257.514604,108.511858 256.132748,109.958871 C256.034655,110.056211 255.986501,110.197653 256.003288,110.339134 C256.020074,110.480614 256.099762,110.604937 256.217524,110.673371 L260.326355,113 L264,105.54278 L257.135936,103 Z" id="Path" stroke="none" fill="#E23553" fill-rule="nonzero"></path>
                                        <g id="Group" opacity="0.1" stroke="none" stroke-width="1" fill="none" fill-rule="evenodd" transform="translate(256.000000, 104.000000)">
                                            <path d="M1.27733333,0.222857143 C1.27733333,0.222857143 1.63466667,5.46857143 0.330666667,6.84571429 C0.238100351,6.93835366 0.192659263,7.0729667 0.2085003,7.20761551 C0.224341336,7.34226432 0.299539279,7.46058456 0.410666667,7.52571429 L4.288,9.74 L7.75466667,2.64285714 L1.27733333,0.222857143 Z" id="Path" fill="#000000" fill-rule="nonzero"></path>
                                        </g>
                                        <path d="M257.53412,114 C257.53412,114 255.09956,115.652553 249.989594,122.45458 C248.921084,123.878918 247.731637,125.205071 246.434961,126.417757 C245.474485,127.303054 244.473384,128.294586 244.273164,128.660508 C243.965579,129.224147 243.196618,131.098024 243.524515,132.632538 C243.945904,134.497022 244.118657,136.410697 244.038123,138.322043 L243.292375,151.988068 C243.292375,151.988068 242.308685,158.152682 241,158.819605 L247.717531,160 C247.717531,160 247.227136,155.66795 249.191615,153.507827 C249.191615,153.507827 253.779268,145.510649 252.63308,136.513087 C252.63308,136.513087 252.142686,132.514498 256.564939,130.348473 C260.987192,128.182448 270,117.685784 270,117.685784 L257.53412,114 Z" id="Path" stroke="none" fill="#FDB797" fill-rule="nonzero"></path>
                                        <path d="M241.679839,156 C241.679839,156 238.966866,159.532864 234.660022,160.372887 C230.353178,161.21291 230.511434,163.569146 231.788792,163.905751 C233.06615,164.242356 248.541399,163.569146 248.541399,163.569146 C248.541399,163.569146 249.671804,161.215889 248.383142,160.036282 C247.09448,158.856675 247.425124,156.67321 247.425124,156.67321 L241.679839,156 Z" id="Path" stroke="none" fill="#0D134D" fill-rule="nonzero"></path>
                                        <g id="Group" opacity="0.1" stroke="none" stroke-width="1" fill="none" fill-rule="evenodd" transform="translate(256.000000, 102.000000)">
                                            <path d="M4.941,4.25089552 C4.941,4.25089552 2.874,10.8129851 0.255,12.7243284 C0.156100514,12.794274 0.105773185,12.909873 0.123942515,13.02536 C0.142111845,13.140847 0.225848008,13.2375995 0.342,13.2773134 C2.508,14.0231343 9.468,16.5356716 11.886,18.8213433 L11.97,18.9007463 C11.97,18.9007463 26.451,11.9359701 18.66,0.0879104478 L4.941,4.25089552 Z" id="Path" fill="#000000" fill-rule="nonzero"></path>
                                        </g>
                                        <path d="M260.857264,106.204402 C260.857264,106.204402 258.774595,112.831776 256.135741,114.762134 C256.036092,114.832776 255.985383,114.949525 256.00369,115.066161 C256.021997,115.182797 256.106368,115.280512 256.223401,115.320621 C258.40582,116.073862 265.418581,118.611396 267.854911,120.919807 L267.939548,121 C267.939548,121 282.530323,113.965933 274.680262,102 L260.857264,106.204402 Z" id="Path" stroke="none" fill="#E23553" fill-rule="nonzero"></path>
                                        <g id="Group" opacity="0.1" stroke="none" stroke-width="1" fill="none" fill-rule="evenodd" transform="translate(246.000000, 68.000000)">
                                            <path d="M3.36343137,3.41313869 C2.3435968,4.11765603 1.2285714,4.66460672 0.0540196078,5.03649635 L1.15715686,15.1182482 C1.15715686,15.1182482 -1.42156863,21.0452555 5.95352941,25.1854015 C5.95352941,25.1854015 10.4314706,31.2963504 9.93392157,37.0656934 C9.93392157,37.0656934 12.3363725,39.7109489 13.9427451,39.0540146 C15.5491176,38.3970803 14.1019608,39.3839416 14.4232353,39.220438 C14.7445098,39.0569343 15.3842157,40.5430657 20.362549,39.2350365 C25.3408824,37.9270073 28.8919608,34.4788321 28.7242157,33.3226277 C28.5564706,32.1664234 22.165098,24.7328467 20.5814706,15.6613139 C18.9978431,6.58978102 9.54441176,0.137226277 9.54441176,0.137226277 C9.54441176,0.137226277 9.23166667,0.315328467 8.69147059,0.551824818 C6.84351954,1.35712243 5.06174359,2.31398855 3.36343137,3.41313869 L3.36343137,3.41313869 Z" id="Path" fill="#000000" fill-rule="nonzero"></path>
                                        </g>
                                        <g id="Group" opacity="0.1" stroke="none" stroke-width="1" fill="none" fill-rule="evenodd" transform="translate(256.000000, 102.000000)">
                                            <path d="M0.123,12.8752941 C0.110340967,13.0146948 0.200355747,13.1444704 0.342,13.1910294 C2.208,13.8252941 7.632,15.7504412 10.644,17.7119118 C8.037,15.7504412 2.49,13.7135294 0.123,12.8752941 Z" id="Path" fill="#000000" fill-rule="nonzero"></path>
                                            <path d="M18.66,0.209558824 L18.36,0.304558824 C25.017,11.1429412 12.48,17.6895588 11.385,18.2344118 C11.574,18.3797059 11.745,18.5138235 11.901,18.6675 L11.985,18.7457353 C11.985,18.7457353 26.451,11.8833824 18.66,0.209558824 Z" id="Path" fill="#000000" fill-rule="nonzero"></path>
                                        </g>
                                        <path d="M266.576202,107.442819 C261.558315,108.775267 260.910291,107.277737 260.586279,107.442819 C260.262267,107.607901 261.733224,106.611513 260.101694,107.277737 C258.470165,107.943961 256.055844,105.279065 256.055844,105.279065 C256.078783,104.984276 256.090253,104.710121 256.090253,104.424176 C256.107457,98.8585523 251.995657,93.2958767 251.995657,93.2958767 C244.540512,89.1363985 247.138343,83.1433304 247.138343,83.1433304 L246.834403,80.4135808 L246,72.9672011 C247.182967,72.589549 248.305571,72.035327 249.331877,71.3222763 C251.04196,70.2096646 252.835975,69.2396541 254.696714,68.4215488 C255.24438,68.1798215 255.556923,68 255.556923,68 C255.556923,68 265.108111,74.4853664 266.739641,83.6444724 C268.371171,92.8035784 274.834209,100.288281 274.994781,101.452699 C275.155354,102.617117 271.594088,106.110371 266.576202,107.442819 Z" id="Path" stroke="none" fill="#F9CE43" fill-rule="nonzero"></path>
                                        <g id="Group" opacity="0.1" stroke="none" stroke-width="1" fill="none" fill-rule="evenodd" transform="translate(242.000000, 62.000000)">
                                            <path d="M7.16285714,0.0636363636 L0.0657142857,5.45363636 C1.04392403,5.83159321 1.97441586,6.34810391 2.83428571,6.99045455 C5.25142857,6.61181818 6.73142857,4.68363636 7.72857143,2.31 C7.34,1.61636364 7.51142857,0.995909091 7.16285714,0.0636363636 Z" id="Path" fill="#000000" fill-rule="nonzero"></path>
                                        </g>
                                        <circle id="Oval" stroke="none" fill="#FDB797" fill-rule="nonzero" cx="245" cy="61" r="7"></circle>
                                        <g id="Group" opacity="0.1" stroke="none" stroke-width="1" fill="none" fill-rule="evenodd" transform="translate(246.000000, 72.000000)">
                                            <path d="M22.5608511,34.3416393 C17.3480851,35.6754098 16.6748936,34.1763934 16.3382979,34.3416393 C16.0017021,34.5068852 17.5297872,33.5095082 15.8348936,34.1763934 C14.14,34.8432787 11.6319149,32.1757377 11.6319149,32.1757377 C11.6557447,31.8806557 11.6676596,31.6062295 11.6676596,31.32 C11.6885106,25.7577049 7.42595745,20.1806557 7.42595745,20.1806557 C-0.318723404,16.0170492 2.38,10.0180328 2.38,10.0180328 L2.06723404,7.28262295 L1.24808511,0.227213115 C0.852322262,0.403895066 0.442932745,0.548947401 0.0238297872,0.660983607 L0.875744681,8.11770492 L1.19446809,10.8501639 C1.19446809,10.8501639 -1.48638298,16.8491803 6.24042553,21.0127869 C6.24042553,21.0127869 10.5029787,26.5898361 10.4821277,32.1521311 C10.4821277,32.4472131 10.4821277,32.7216393 10.446383,33.0078689 C10.446383,33.0078689 12.9693617,35.6636066 14.6493617,35.0085246 C16.3293617,34.3534426 14.8161702,35.3419672 15.152766,35.1737705 C15.4893617,35.0055738 16.1625532,36.507541 21.3753191,35.1737705 C23.740214,34.567611 25.9563965,33.4924866 27.8897872,32.0134426 C26.2500492,33.0658338 24.451043,33.8518144 22.5608511,34.3416393 L22.5608511,34.3416393 Z" id="Path" fill="#000000" fill-rule="nonzero"></path>
                                        </g>
                                        <path d="M254,77.1004322 C254,77.1004322 249.896288,78.5741217 247.601582,81.0312379 C247.601582,81.0312379 236.436344,85.4523066 233.315661,84.9620437 C230.194978,84.4717809 230.03211,83.6508081 229.374818,82.3511764 L222.313291,69.5869362 C222.313291,69.5869362 219.358386,58.9403995 222.313291,60.0862802 C225.268197,61.2321609 226.094174,67.6287858 226.094174,67.6287858 C226.094174,67.6287858 231.678248,78.7655853 235.124668,78.6031313 L244.477991,74.1530531 C244.477991,74.1530531 246.612736,71.040319 247.598674,71.205674 C248.584612,71.3710289 254,77.1004322 254,77.1004322 Z" id="Path" stroke="none" fill="#FDB797" fill-rule="nonzero"></path>
                                        <g id="Group" opacity="0.1" stroke="none" stroke-width="1" fill="none" fill-rule="evenodd" transform="translate(244.000000, 71.000000)">
                                            <path d="M4.7827907,0.136052632 C4.7827907,0.136052632 1.24255814,-0.173684211 0.217674419,4.07578947 C-0.807209302,8.32526316 8.07813953,10.9392105 8.07813953,10.9392105 L12.857907,4.57078947 L4.7827907,0.136052632 Z" id="Path" fill="#000000" fill-rule="nonzero"></path>
                                        </g>
                                        <path d="M248.748775,71.0051028 C248.748775,71.0051028 245.131334,70.6898686 244.084098,75.0147639 C243.036863,79.3396591 252.115991,82 252.115991,82 L257,75.5185493 L248.748775,71.0051028 Z" id="Path" stroke="none" fill="#F9CE43" fill-rule="nonzero"></path>
                                        <g id="Group" opacity="0.1" stroke="none" stroke-width="1" fill="none" fill-rule="evenodd" transform="translate(246.000000, 68.000000)">
                                            <path d="M1.595,4.292 C1.09115054,4.54615243 0.563586017,4.75015711 0.0199019608,4.90107692 L0.0483333333,5.143 C0.578602357,4.88699688 1.09488781,4.60292861 1.595,4.292 L1.595,4.292 Z" id="Path" fill="#000000" fill-rule="nonzero"></path>
                                            <path d="M28.7583333,32.412 C28.5991176,31.2735385 22.1764706,24.0556923 20.5729412,15.2183846 C18.9694118,6.38107692 9.48470588,0.113846154 9.48470588,0.113846154 C9.48470588,0.113846154 9.17196078,0.287461538 8.63176471,0.520846154 C7.18916805,1.14120875 5.78582862,1.8493259 4.42960784,2.64123077 C5.32993464,2.16687179 6.24921569,1.7285641 7.18745098,1.32630769 C7.7304902,1.09292308 8.04039216,0.919307692 8.04039216,0.919307692 C8.04039216,0.919307692 17.5108824,7.18084615 19.1286275,16.0238462 C20.7463725,24.8668462 27.1548039,32.0932308 27.3140196,33.2174615 C27.4163725,33.9261538 26.0488235,35.5285385 23.7771569,36.9402308 C26.8960784,35.3890769 28.8805882,33.2601538 28.7583333,32.412 Z" id="Path" fill="#000000" fill-rule="nonzero"></path>
                                        </g>
                                        <path d="M250,72 C250,72 255.048991,74.0530052 256,78" id="Path" stroke="#000000" stroke-width="1" fill="none" opacity="0.1"></path>
                                        <g id="Group" opacity="0.1" stroke="none" stroke-width="1" fill="none" fill-rule="evenodd" transform="translate(234.000000, 48.000000)">
                                            <path d="M6.71478261,12.0808333 C7.3833913,12.2325 8.12947826,12.4454167 8.45947826,13.055 C8.69765217,13.4983333 8.6546087,14.0554167 8.88704348,14.5133333 C9.48391304,15.6566667 11.2343478,15.2629167 12.3305217,15.93375 C14.3392174,17.1645833 13.0278261,21.0029167 15.027913,22.2395833 C15.4038261,22.4729167 15.8486087,22.56625 16.236,22.7791667 C17.9261739,23.7183333 17.688,26.2033333 17.3838261,28.1370833 C17.0796522,30.0708333 17.4412174,32.71625 19.3494783,32.9904167 C20.3997391,33.1391667 21.5791304,32.4333333 22.4629565,33.0254167 C22.9249565,33.3345833 23.1344348,33.9004167 23.5218261,34.3116667 C24.0656489,34.862994 24.879523,35.0337111 25.5936522,34.74625 C26.2421739,34.4720833 26.709913,33.845 27.3842609,33.64375 C28.4689565,33.32 29.679913,34.2125 30.7244348,33.80125 C31.7689565,33.39 32.0071304,31.8558333 31.7373913,30.6979167 C31.4676522,29.54 30.9166957,28.3645833 31.2036522,27.1979167 C31.4418261,26.2354167 32.2166087,25.5004167 32.5552174,24.5729167 C33.548087,21.8341667 30.4690435,19.005 31.0372174,16.14375 C31.284,14.9041667 32.2022609,13.8104167 32.1850435,12.5591667 C32.1563478,11.1008333 30.8851304,9.99541667 29.5622609,9.45875 C28.2393913,8.92208333 26.7873913,8.77041667 25.4932174,8.1725 C22.6552174,6.86 21.1027826,3.68666667 18.5086957,1.925 C17.3468416,1.15429825 16.0371441,0.64329432 14.6663478,0.425833333 C11.0877071,-0.159698445 7.43433681,0.849938185 4.64008696,3.19666667 C4.38469565,3.40666667 4.12356522,3.605 3.85956522,3.7975 C2.75191304,4.61125 1.56391304,5.41333333 0.889565217,6.62083333 C-1.57252174,10.9783333 4.0833913,11.4770833 6.71478261,12.0808333 Z" id="Path" fill="#000000" fill-rule="nonzero"></path>
                                        </g>
                                        <path d="M240.536464,59.9449976 C241.215969,60.0983392 241.974214,60.3136072 242.309592,60.9299224 C242.551647,61.3781517 242.507902,61.9413871 242.744125,62.4043608 C243.350721,63.5603204 245.129681,63.1622221 246.243718,63.8404637 C248.285148,65.0848897 246.952386,68.9656114 248.985067,70.2159351 C249.367106,70.4518453 249.819137,70.5462093 250.212841,70.7614773 C251.930558,71.7110156 251.688503,74.2234586 251.379372,76.1785638 C251.070241,78.1336691 251.437699,80.8083002 253.377057,81.0854947 C254.444433,81.2358874 255.643044,80.5222592 256.541273,81.1208812 C257.010802,81.4334621 257.223694,82.0055442 257.617398,82.4213358 C258.170083,82.9787517 258.99722,83.1513541 259.722987,82.8607184 C260.382077,82.583524 260.857439,81.9495155 261.542776,81.746043 C262.645148,81.4187177 263.875838,82.321074 264.937382,81.9052824 C265.998925,81.4894908 266.24098,79.9383816 265.966845,78.7676776 C265.69271,77.5969735 265.132776,76.4085762 265.424408,75.2290255 C265.666464,74.2558962 266.453872,73.5127793 266.797999,72.5750365 C267.807048,69.8060413 264.677828,66.9456309 265.255261,64.0527829 C265.506065,62.7995103 266.43929,61.6936815 266.421793,60.4286134 C266.392629,58.954175 265.100696,57.8365508 263.756269,57.2939575 C262.411841,56.7513641 260.936179,56.5980226 259.620915,55.9935028 C256.736667,54.6665083 255.158933,51.4581305 252.522573,49.677009 C251.45141,48.9660343 250.252396,48.475064 248.993816,48.2320594 C245.24174,47.5042975 241.364227,48.5077426 238.41921,50.9686169 C238.162573,51.1779872 237.897187,51.3785108 237.634718,51.5583923 C236.509015,52.3811289 235.301655,53.19207 234.616318,54.4129049 C232.114109,58.8303222 237.865108,59.337529 240.536464,59.9449976 Z" id="Path" stroke="none" fill="#FB515E" fill-rule="nonzero"></path>
                                        <path d="M182,106 L131,106 L131,96.5000293 C143.459828,90.7432614 162.631724,87.5099686 182,106 Z" id="Path" stroke="none" fill="#FB515E" fill-rule="nonzero"></path>
                                        <g id="Group" opacity="0.1" stroke="none" stroke-width="1" fill="none" fill-rule="evenodd" transform="translate(157.000000, 92.000000)">
                                            <path d="M63.9530275,13.347 L63.9530275,14.754 L0.246605505,14.754 L0.246605505,14.454 C0.246605505,14.454 31.5948624,-16.737 63.9530275,13.347 Z" id="Path" fill="#000000" fill-rule="nonzero"></path>
                                        </g>
                                        <path d="M222,104.641197 L222,106 L158,106 L158,105.710277 C158,105.710277 189.492719,75.5877242 222,104.641197 Z" id="Path" stroke="none" fill="#FB515E" fill-rule="nonzero"></path>
                                        <circle id="Oval" stroke="none" fill="#FB515E" fill-rule="nonzero" cx="141" cy="63" r="5"></circle>
                                        <path d="M180.772464,60.0938542 C180.242834,60.0938542 179.652426,60.0938542 179.250138,60.1188433 C179.070286,60.126609 178.892839,60.1549251 178.723401,60.2028974 L176,60.9707429 C178.199559,61.0139058 180.494625,61.0002754 182.749173,60.986645 L195.390849,60.9094061 C196.681643,60.9094061 198.036108,60.8912322 199.10984,60.8321672 C199.830485,60.791276 200.360116,60.732211 201.025772,60.6867763 C203.419239,60.5186682 206.906698,60.5504724 210.023705,60.5595593 C213.140711,60.5686463 216.903115,60.5050378 218,60.2596907 L211.30871,60.2596907 C210.588065,60.2596907 209.829796,60.2596907 209.193082,60.2324299 C208.449283,60.1983539 207.994901,60.1347454 207.340821,60.0893108 C206.258407,60.0166153 204.765022,60.0075284 203.375827,60.0029849 C195.749724,59.9779959 188.219129,60.1188433 180.772464,60.0938542 Z" id="Path" stroke="none" fill="#F4F4F4" fill-rule="nonzero"></path>
                                        <path d="M189.125238,64.8959984 C188.998093,64.8959984 188.858233,64.8959984 188.762873,64.8959984 C188.719472,64.8980053 188.676629,64.9059027 188.635728,64.9194354 L188,65.1332979 C188.524476,65.1332979 189.068023,65.1332979 189.605213,65.1332979 L192.612206,65.1127905 C192.93007,65.1127905 193.247934,65.1127905 193.495868,65.0922831 C193.667514,65.0922831 193.79466,65.0629869 193.950413,65.0512684 C194.51939,65.0043944 195.349015,65.0131833 196.092816,65.0161129 C196.729995,65.0358467 197.367856,65.007432 198,64.9311538 L196.41068,64.9311538 C196.239034,64.9311538 196.057851,64.9311538 195.908455,64.9311538 C195.759059,64.9311538 195.622378,64.9047872 195.466624,64.8901391 C195.209154,64.8696318 194.853147,64.8667021 194.513032,64.8667021 C192.701208,64.8667021 190.908455,64.9047872 189.125238,64.8959984 Z" id="Path" stroke="none" fill="#F4F4F4" fill-rule="nonzero"></path>
                                        <path d="M169.125238,73.8959984 C168.998093,73.8959984 168.858233,73.8959984 168.762873,73.8959984 C168.719472,73.8980053 168.676629,73.9059027 168.635728,73.9194354 L168,74.1332979 C168.524476,74.1332979 169.068023,74.1332979 169.605213,74.1332979 L172.612206,74.1127905 C172.93007,74.1127905 173.247934,74.1127905 173.495868,74.0922831 C173.667514,74.0922831 173.79466,74.0629869 173.950413,74.0512684 C174.51939,74.0043944 175.349015,74.0131833 176.092816,74.0161129 C176.729995,74.0358467 177.367856,74.007432 178,73.9311538 L176.41068,73.9311538 C176.239034,73.9311538 176.057851,73.9311538 175.908455,73.9311538 C175.759059,73.9311538 175.622378,73.9047872 175.466624,73.8901391 C175.209154,73.8696318 174.853147,73.8667021 174.513032,73.8667021 C172.701208,73.8667021 170.908455,73.9047872 169.125238,73.8959984 Z" id="Path" stroke="none" fill="#F4F4F4" fill-rule="nonzero"></path>
                                        <path d="M158.415213,104 L156.076065,104 C156.076065,104 155.345081,79.5465527 158.415213,72 L159,72 C159,72 156.953245,99.6677198 158.415213,104 Z" id="Path" stroke="none" fill="#FB515E" fill-rule="nonzero"></path>
                                        <path d="M157.206479,69.9396381 C157.206479,69.9396381 155.407068,74.827581 156.237565,77 C156.237565,77 157.483312,72.5193857 158.935209,71.8405048 C160.387107,71.1616238 161.909686,77 161.909686,77 C161.909686,77 162.740183,73.3340429 161.217605,70.3556333 C161.217605,70.3556333 164.262762,71.9849475 165.78534,75.1077999 C165.78534,75.1077999 166.062173,73.0856013 162.463351,68.8620952 C162.463351,68.8620952 165.646924,69.6767523 167.723168,71.577619 C167.723168,71.577619 168.415249,70.0840809 164.124346,67.6401095 C164.124346,67.6401095 164.67801,65.875019 168,66.6896761 C168,66.6896761 168,64.3785921 162.740183,64.7888095 C162.740183,64.7888095 162.740183,63.2952714 166.200589,63.5668238 C166.200589,63.5668238 166.200589,61.6659571 162.186518,62.3448381 C162.186518,62.3448381 163.017016,61.1228524 163.570681,60.8513 C162.878252,60.7884989 162.186941,60.9822489 161.632853,61.3944047 C161.632853,61.3944047 161.77127,58.9504333 159.695026,58 L159.418194,61.3944047 C159.418194,61.3944047 157.091623,58.7048806 157.618783,59.2219857 C157.757199,59.3577619 158.172448,60.9870762 158.034031,61.8017333 C158.034031,61.8017333 155.67801,59.9008667 152.774215,61.9375095 C152.774215,61.9375095 156.373037,62.2090619 156.926702,63.4310476 C156.926702,63.4310476 153.881545,62.8879428 153.189463,63.2952714 C153.189463,63.2952714 155.545484,64.1099285 155.404123,64.6530333 C155.404123,64.6530333 151.251636,64.6530333 150.692081,66.1465714 C150.692081,66.1465714 154.982984,66.6896761 155.259817,67.0970047 C155.259817,67.0970047 150.276832,70.6271856 150,71.577619 C150,71.577619 155.121401,68.5905428 155.951898,68.5905428 C156.782395,68.5905428 152.21466,72.9238255 152.491492,74.0215904 C152.503272,74.0129238 156.252291,69.6680858 157.206479,69.9396381 Z" id="Path" stroke="none" fill="#FB515E" fill-rule="nonzero"></path>
                                        <path d="M185.586321,103 L187.923461,103 C187.923461,103 188.656363,84.6599368 185.586321,79 L185,79 C185,79 187.052123,99.7453174 185.586321,103 Z" id="Path" stroke="none" fill="#FB515E" fill-rule="nonzero"></path>
                                        <path d="M186.410818,77.4268657 C186.410818,77.4268657 187.814123,81.2865672 187.165057,83 C187.165057,83 186.194462,79.4626866 185.061601,78.9283582 C183.92874,78.3940299 182.74179,83 182.74179,83 C182.74179,83 182.095729,80.1074627 183.282679,77.7492537 C181.763977,78.6422636 180.529742,79.9428365 179.721829,81.5014925 C179.721829,81.5014925 179.505473,79.8925373 182.312084,76.5701493 C182.312084,76.5701493 179.830006,77.2119403 178.213351,78.7134328 C178.213351,78.7134328 177.672462,77.5343284 181.019961,75.6059701 C181.019961,75.6059701 180.58725,74.2119403 178,74.8567164 C178,74.8567164 178,73.0358209 182.098734,73.3641791 C182.098734,73.3641791 182.098734,72.1850746 179.394291,72.4 C179.394291,72.4 179.394291,70.9074627 182.52243,71.4358209 C182.52243,71.4358209 181.876368,70.4716418 181.443657,70.2567164 C181.980854,70.2095185 182.516489,70.3627619 182.946126,70.6865672 C182.946126,70.6865672 182.837948,68.758209 184.448594,68 L184.66495,70.6865672 C184.66495,70.6865672 186.467912,68.5641791 186.068255,68.9731343 C185.809821,69.6195409 185.69898,70.3148557 185.743722,71.0089552 C185.743722,71.0089552 187.576733,69.5164179 189.842455,71.1164179 C189.842455,71.1164179 187.035845,71.3313433 186.606139,72.2955224 C186.606139,72.2955224 188.980039,71.8656716 189.517922,72.1880597 C189.517922,72.1880597 187.684911,72.8298507 187.793089,73.2597015 C187.793089,73.2597015 191.029405,73.2597015 191.462116,74.438806 C191.462116,74.438806 188.117622,74.8686567 187.901266,75.1880597 C187.901266,75.1880597 191.786649,77.9761194 192,78.7253731 C192,78.7253731 188.009444,76.3671642 187.360378,76.3671642 C186.711311,76.3671642 190.272161,79.7970149 190.064821,80.6537313 C190.079845,80.641791 187.168062,77.2179104 186.410818,77.4268657 Z" id="Path" stroke="none" fill="#FB515E" fill-rule="nonzero"></path>
                                        <path d="M206.194952,98 L206.974758,98 C206.974758,98 207.2179,86.5379026 206.194952,83 L206,83 C206,83 206.681235,95.9762372 206.194952,98 Z" id="Path" stroke="none" fill="#FB515E" fill-rule="nonzero"></path>
                                        <path d="M206.804431,84.2877328 C206.804431,84.2877328 207.604708,86.8567759 207.236414,88 C207.236414,88 206.682589,85.642903 206.034614,85.2864483 C205.386639,84.9299936 204.710973,88 204.710973,88 C204.710973,88 204.342679,86.0732177 205.018345,84.4996789 C204.151682,85.0941948 203.447197,85.9601478 202.985808,86.9980732 C202.985808,86.9980732 202.863967,85.9254978 204.464521,83.7129094 C203.605551,83.9901504 202.807707,84.4774098 202.124611,85.1419396 C202.124611,85.1419396 201.817238,84.3551702 203.725164,83.0706487 C203.725164,83.0706487 203.478712,82.1425819 202,82.5696853 C202,82.5696853 202,81.3558125 204.33991,81.5709698 C204.33991,81.5709698 204.33991,80.7842004 202.800277,80.9287091 C202.800277,80.9287091 202.800277,79.9299936 204.586362,80.2864483 C204.421477,79.9855959 204.213586,79.7195306 203.971616,79.4996789 C204.279383,79.4669244 204.586583,79.5688748 204.832814,79.7854849 C204.832814,79.7854849 204.771893,78.5009634 205.694012,78 L205.815853,79.7854849 C205.815853,79.7854849 206.851506,78.3725112 206.61613,78.6422608 C206.468644,79.0725192 206.405279,79.5353556 206.430599,79.997431 C207.134097,79.4027533 208.094648,79.4317551 208.770509,80.0680796 C208.770509,80.0680796 207.169955,80.209377 206.923503,80.8548491 C206.923503,80.8548491 208.277605,80.569043 208.584978,80.7842004 C208.584978,80.7842004 207.538249,81.2113038 207.599169,81.4971098 C207.599169,81.4971098 209.446175,81.4971098 209.692627,82.2838793 C209.692627,82.2838793 207.784701,82.5696853 207.66009,82.7848426 C207.66009,82.7848426 209.875389,84.6409762 210,85.1419396 C210,85.1419396 207.721011,83.5716121 207.352717,83.5716121 C206.984424,83.5716121 209.014192,85.8580604 208.89235,86.4264611 C208.897889,86.4296724 207.233645,84.1432241 206.804431,84.2877328 Z" id="Path" stroke="none" fill="#FB515E" fill-rule="nonzero"></path>
                                        <path d="M166.997041,85.0904509 L166.997041,85.0904509 L166.775109,83.8586449 C166.774492,83.6756058 166.701758,83.5008419 166.57389,83.3751611 L165.547083,82.8516435 L165.547083,82.8516435 C165.471426,82.7591557 165.409578,82.655342 165.363619,82.543692 L165.381374,82.5159764 C165.437912,82.4428579 165.478319,82.3577028 165.499738,82.2665357 C165.501632,82.2429672 165.501632,82.2192753 165.499738,82.1957069 L165.514533,82.1957069 C165.71102,82.2229666 165.89486,82.0891752 165.937684,81.8877554 L165.937684,81.8600397 C165.900207,82.030942 165.759522,82.1560786 165.59147,82.1679912 C165.881697,81.9656888 166.055929,81.6261421 166.056048,81.2626138 C166.056048,81.2626138 166.056048,81.2318187 166.056048,81.2164211 C166.14773,81.1579363 166.211203,81.0616517 166.230635,80.9515828 L166.230635,80.9238672 C166.205298,81.0281843 166.140086,81.1171885 166.05013,81.1702284 C166.042968,81.0648245 166.021036,80.9610766 165.98503,80.8622769 L166.011662,80.8622769 C166.222482,80.8622769 166.393385,80.6844187 166.393385,80.4650195 C166.393385,80.4650195 166.393385,80.4465424 166.393385,80.4373038 C166.379455,80.6446305 166.214324,80.8057407 166.014621,80.8068456 L165.967275,80.8068456 L165.967275,80.7883685 C166.198954,80.7159482 166.369588,80.5107735 166.405221,80.2617715 C166.405221,80.2617715 166.405221,80.2432944 166.405221,80.2340558 C166.400159,80.3112051 166.373403,80.3851006 166.328285,80.4465424 C166.338727,80.2420903 166.198149,80.0628652 166.003579,80.0325718 C165.80901,80.0022785 165.624185,80.13084 165.576674,80.3295208 L165.508615,80.2894871 C165.552301,80.1268894 165.689969,80.0107907 165.85187,80.0000127 L165.825238,80.0000127 C165.661202,79.9986532 165.514673,80.1065133 165.46127,80.2679305 C164.988398,80.0391358 164.425826,80.2071615 164.141512,80.6621084 C164.061617,80.7236987 163.958048,80.8130046 163.961007,80.8899925 C163.926746,80.9257087 163.896015,80.9649122 163.869275,81.0070141 C163.756615,81.2641486 163.715603,81.5490404 163.750911,81.8292446 C163.784064,82.111922 163.682418,82.3936254 163.478675,82.5837257 C163.567671,82.6223909 163.667833,82.6223909 163.75683,82.5837257 C163.844795,82.5450451 163.927395,82.4942966 164.002435,82.4328295 C164.072458,82.3885705 164.132104,82.3286012 164.177021,82.2572972 L164.177021,82.2418996 C164.226318,82.2761645 164.278872,82.3050588 164.333854,82.328126 C164.354567,82.5128969 164.360485,82.7253834 164.28059,82.7962123 L164.28059,82.7962123 L164.28059,82.7962123 L164.295385,82.7623376 C164.104652,82.9117582 163.867334,82.982009 163.629588,82.9594266 C163.337719,82.976566 163.075938,83.1519525 162.940119,83.4213538 L162.617577,84.8225331 L162.617577,84.8225331 L162.617577,84.8471692 L162.617577,84.8471692 L162.617577,84.8718053 L162.617577,84.8718053 C162.627564,84.9103033 162.657158,84.9399175 162.694514,84.9487932 L162.795123,84.9765089 C162.810309,85.2159153 162.787312,85.4562867 162.727064,85.6878768 C162.659528,86.0327511 162.620914,86.3830804 162.611659,86.7349119 C162.635332,86.9104442 162.676759,87.8250602 162.697473,88.2592718 C162.661571,88.4075325 162.632929,88.5575957 162.611659,88.708881 L162.135244,91.6836924 C162.135244,91.6836924 161.780153,94.0641574 161.797907,94.7847639 L161.735766,95.2004985 C161.735766,95.2004985 160.768142,96.4630996 161.052215,96.6417115 C161.336288,96.8203233 161.774235,96.8973112 162.191467,96.2259769 C162.248019,96.0677589 162.3392,95.9254212 162.457786,95.8102424 C162.553939,95.723708 162.603615,95.5938915 162.590945,95.4622572 L162.561354,95.1543057 L162.611659,95.1727828 L162.611659,95.1727828 L162.64125,95.1727828 C162.64125,95.1727828 163.117665,93.5437194 163.064401,92.4012194 C163.064401,92.4012194 163.95213,89.1307745 164.617927,88.6164955 L164.617927,88.5949389 L164.680068,88.5641438 L164.822105,91.7329646 L164.677109,95.2251346 L164.644559,95.4345416 C164.644559,95.4345416 163.676934,96.6971427 163.961007,96.8757546 C164.245081,97.0543665 164.683027,97.1313543 165.10026,96.4600201 C165.156811,96.301802 165.247992,96.1594644 165.366578,96.0442856 C165.462732,95.9577511 165.512407,95.8279346 165.499738,95.6963004 L165.455351,95.2343731 C165.621061,94.6461858 166.047171,92.9524526 165.872584,91.9700873 L166.168494,89.8821762 C166.464403,89.534191 166.425935,88.6503702 166.425935,88.6503702 C166.659704,88.1422502 166.721845,86.149804 166.721845,86.149804 L166.781027,85.1643593 C166.825334,85.160445 166.869879,85.160445 166.914186,85.1643593 L166.943777,85.1643593 L166.961532,85.1643593 L166.961532,85.1458822 C166.970075,85.1381066 166.977107,85.1286982 166.982245,85.1181665 L167,85.1181665 L167,85.0935304 L167,85.0935304 L166.997041,85.0904509 Z M166.168494,87.0921356 C166.141862,87.0243863 166.112271,86.956637 166.079721,86.8888876 L166.056048,86.8888876 L166.056048,86.8642515 C166.055237,86.8560612 166.055237,86.8478057 166.056048,86.8396154 L166.056048,86.8149793 C166.069945,86.7819233 166.081806,86.74798 166.091557,86.7133553 C166.129798,86.6497429 166.14934,86.5758864 166.14778,86.5008687 C166.182616,86.6958218 166.189596,86.8950602 166.168494,87.0921356 Z M166.079721,86.2483485 L166.020539,85.5893323 L166.038293,85.5369806 L166.118189,86.3746086 L166.079721,86.2483485 Z M163.274497,86.3376545 C163.233339,86.3867137 163.213996,86.4515767 163.221233,86.5162663 C163.221233,86.5162663 163.221233,86.5162663 163.221233,86.5378229 C163.221638,86.6044602 163.230595,86.6707427 163.247865,86.7349119 L163.156133,87.1475669 L163.156133,86.3592111 C163.216914,86.2760926 163.270393,86.1874565 163.315924,86.0943728 C163.325217,86.1779361 163.310816,86.2625032 163.274497,86.3376545 L163.274497,86.3376545 Z" id="Shape" stroke="none" fill="url(#linearGradient-6)" fill-rule="nonzero"></path>
                                        <path d="M164.45885,82.1472374 C164.326937,82.2836588 164.278498,82.4348824 164.319044,82.5837023 C164.357148,82.7339645 164.238052,82.8835795 164,82.9845028 C164.104364,83.0051657 164.221849,83.0051657 164.326213,82.9845028 C164.42888,82.9640616 164.525326,82.9372176 164.612994,82.9046824 C164.694974,82.8811664 164.764793,82.8492494 164.817326,82.8112755 C164.866896,82.7525789 164.882969,82.6887334 164.863928,82.62616 C164.864442,82.5151524 164.884829,82.4043653 164.924869,82.2949901 C164.946377,82.2270579 165.082598,82.0419424 164.924869,82.0062779 C164.767139,81.9706135 164.52696,82.0962882 164.45885,82.1472374 Z" id="Path" stroke="none" fill="#72351C" fill-rule="nonzero"></path>
                                        <path d="M161.521715,94.0970786 L161.461853,94.9412406 C161.461853,94.9412406 160.853579,96.6295646 161.033165,96.8448259 C161.21275,97.0600872 161.486957,97.1824907 161.749577,96.2961206 C161.784746,96.0875772 161.841596,95.8997398 161.915645,95.7474153 L161.915645,95.7474153 C161.97597,95.6327992 162.006956,95.4611164 161.99868,95.287347 L161.938818,94 L161.521715,94.0970786 Z" id="Path" stroke="none" fill="#333333" fill-rule="nonzero"></path>
                                        <path d="M164.521715,94.0970786 L164.461853,94.9412406 C164.461853,94.9412406 163.853579,96.6295646 164.033165,96.8448259 C164.21275,97.0600872 164.486957,97.1824907 164.749577,96.2961206 C164.784746,96.0875772 164.841596,95.8997398 164.915645,95.7474153 L164.915645,95.7474153 C164.97597,95.6327992 165.006956,95.4611164 164.99868,95.287347 L164.938818,94 L164.521715,94.0970786 Z" id="Path" stroke="none" fill="#333333" fill-rule="nonzero"></path>
                                        <path d="M164.257749,88.2799702 C164.257749,88.2799702 163.857378,88.5986597 163.716708,89.706627 L163.297401,92.4795235 C163.297401,92.4795235 162.943019,94.9932986 163.007944,95.4758004 L163.716708,95.743857 C163.716708,95.743857 164.136015,94.2248697 164.090026,93.1675354 C164.090026,93.1675354 164.942166,89.8257632 165.540016,89.5934475 L165.667161,92.5450484 L165.531901,95.8659717 L166.137867,96 C166.137867,96 166.751948,93.8853313 166.557174,92.7654505 L166.873683,90.3827252 C166.873683,90.3827252 167.23618,89.1109456 166.733012,88 L164.257749,88.2799702 Z" id="Path" stroke="none" fill="#4D8AF0" fill-rule="nonzero"></path>
                                        <g id="Group" opacity="0.1" stroke="none" stroke-width="1" fill="none" fill-rule="evenodd" transform="translate(163.000000, 88.000000)">
                                            <path d="M2.07384615,1.83714286 L2.07384615,1.78857143 C1.39384615,2.01428571 0.424615385,5.21714286 0.424615385,5.21714286 C0.408116408,6.04625439 0.268333284,6.86927375 0.00923076923,7.66285714 L0.0953846154,7.69142857 C0.0953846154,7.69142857 0.572307692,6.23428571 0.52,5.22 C0.516923077,5.22285714 1.40307692,2.30857143 2.07384615,1.83714286 Z" id="Path" fill="#000000" fill-rule="nonzero"></path>
                                            <path d="M3.52923077,0.28 L3.43692308,0.28 C3.76773293,0.996236067 3.82207689,1.79656736 3.59076923,2.54571429 L3.23076923,4.83142857 C3.44307692,5.84857143 2.82461538,7.72 2.76,7.91714286 L2.84923077,7.93428571 C2.84923077,7.93428571 3.54769231,5.90571429 3.32615385,4.83142857 L3.68615385,2.54571429 C3.68615385,2.54571429 4.10153846,1.33142857 3.52923077,0.28 Z" id="Path" fill="#000000" fill-rule="nonzero"></path>
                                        </g>
                                        <path d="M163.000034,86.2057494 C162.998632,86.2891493 163.041215,86.362171 163.101558,86.379845 C163.387199,86.4767851 163.653726,86.6568336 163.882511,86.9074074 C164.312035,87.3611111 163.425653,86 163.425653,86 L163.128891,86.0896856 L163.007843,86.2374031 L163.000034,86.2057494 Z" id="Path" stroke="none" fill="#F55F44" fill-rule="nonzero"></path>
                                        <path d="M163.000034,86.2057494 C162.998632,86.2891493 163.041215,86.362171 163.101558,86.379845 C163.387199,86.4767851 163.653726,86.6568336 163.882511,86.9074074 C164.312035,87.3611111 163.425653,86 163.425653,86 L163.128891,86.0896856 L163.007843,86.2374031 L163.000034,86.2057494 Z" id="Path" stroke="none" fill="#000000" fill-rule="nonzero" opacity="0.1"></path>
                                        <path d="M167,87 C167.271252,86.6194199 167.585249,86.3748111 167.914956,86.2872331 C167.961925,86.2872331 168,86.2119943 168,86.1191824 L168,86.1191824 C168,86.1191824 167.231672,85.5223126 167,87 Z" id="Path" stroke="none" fill="#F55F44" fill-rule="nonzero"></path>
                                        <path d="M168,86.114109 C168,86.114109 167.231672,85.5312859 167,87 C167,87 167.565982,86.1374219 167.958944,86.2772994" id="Path" stroke="none" fill="#000000" fill-rule="nonzero" opacity="0.1"></path>
                                        <circle id="Oval" stroke="none" fill="#72351C" fill-rule="nonzero" cx="166.5" cy="82.5" r="1"></circle>
                                        <path d="M166.160393,82.7592307 C166.160393,82.7592307 166.238701,83.5889911 166.160393,83.7590919 C166.082086,83.9291928 165.923838,84.2445017 166.042932,84.4892811 C166.162025,84.7340604 166.587825,85.1489405 166.729758,84.9456492 C166.871691,84.742358 167.033201,84.80459 166.994047,84.3897098 C166.954893,83.9748296 166.644924,84.0619545 166.64003,82 L166.160393,82.7592307 Z" id="Path" stroke="none" fill="#FDB797" fill-rule="nonzero"></path>
                                        <path d="M163.211597,86 C163.237199,86.2744885 163.21188,86.5501611 163.136283,86.8200207 C163.057011,87.0925898 163.011413,87.3695001 163,87.6476342 C163.035864,87.8298611 163.111178,89.0345829 163.111178,89.0345829 C163.111178,89.0345829 162.974895,90.0899799 163.702933,89.9938046 C164.430972,89.8976294 163.591755,88.7890828 163.591755,88.7890828 L163.627619,87.3489847 C163.825086,87.159691 163.948746,86.9371584 163.986259,86.703598 C164.040055,86.3568609 163.211597,86 163.211597,86 Z" id="Path" stroke="none" fill="#000000" fill-rule="nonzero" opacity="0.1"></path>
                                        <path d="M163.211597,86 C163.237199,86.2744885 163.21188,86.5501611 163.136283,86.8200207 C163.057011,87.0925898 163.011413,87.3695001 163,87.6476342 C163.035864,87.8298611 163.111178,89.0345829 163.111178,89.0345829 C163.111178,89.0345829 162.974895,90.0899799 163.702933,89.9938046 C164.430972,89.8976294 163.591755,88.7890828 163.591755,88.7890828 L163.627619,87.3489847 C163.825086,87.159691 163.948746,86.9371584 163.986259,86.703598 C164.036468,86.3568609 163.211597,86 163.211597,86 Z" id="Path" stroke="none" fill="#FDB797" fill-rule="nonzero"></path>
                                        <path d="M167,86 L166.927577,87.0760464 C166.927577,87.0760464 166.883607,88.5849294 166.687031,88.9669863 C166.687031,88.9669863 166.741348,90.0261062 166.213698,89.9995073 C165.686048,89.9729084 166.30164,88.8412461 166.30164,88.8412461 C166.30164,88.8412461 166.58357,87.6636403 166.438725,87.2912557 L166.30164,86 L167,86 Z" id="Path" stroke="none" fill="#000000" fill-rule="nonzero" opacity="0.1"></path>
                                        <path d="M167,86 L166.927577,87.0760464 C166.927577,87.0760464 166.883607,88.5849294 166.687031,88.9669863 C166.687031,88.9669863 166.741348,90.0261062 166.213698,89.9995073 C165.686048,89.9729084 166.30164,88.8412461 166.30164,88.8412461 C166.30164,88.8412461 166.58357,87.6636403 166.438725,87.2912557 L166.30164,86 L167,86 Z" id="Path" stroke="none" fill="#FDB797" fill-rule="nonzero"></path>
                                        <path d="M164.973519,85.5134428 C164.973519,85.5134428 165.433449,85.7210047 165.684321,85.103781 L166.618118,85.5516779 C166.734176,85.6597749 166.799704,85.8099107 166.799303,85.9668018 L167,87.0209981 C167,87.0209981 166.317073,86.7943186 166.105226,87.4170045 L166.163763,88.0096485 L166.163763,88.0096485 C166.207768,88.1559852 166.196892,88.312918 166.133101,88.4520832 C166.121768,88.4773161 166.121768,88.5060516 166.133101,88.5312845 C166.161386,88.6187836 166.145645,88.7142404 166.090678,88.7885614 C166.03571,88.8628825 165.948028,88.9072618 165.854355,88.9081734 C165.603393,88.9110013 165.3529,88.930161 165.10453,88.965526 C164.903833,89.0228787 164.296167,88.8535518 164.09547,88.965526 C163.894774,89.0775002 163.47108,88.8808626 163.47108,88.8808626 L163.585366,88.4001928 C163.585366,88.4001928 163.507317,88.16532 163.604878,88.0806566 C163.702439,87.9959931 163.643902,87.261333 163.557491,87.053771 C163.557491,87.053771 163.211847,86.7342349 163,86.7806632 L163.278746,85.5653333 C163.401108,85.3347486 163.638323,85.1843 163.903136,85.1693269 C164.119212,85.1882808 164.334773,85.1279376 164.508014,85 C164.508014,85 164.298955,85.4478969 164.973519,85.5134428 Z" id="Path" stroke="none" fill="#000000" fill-rule="nonzero" opacity="0.1"></path>
                                        <path d="M165.022315,85.5243671 C165.147838,85.55714 165.482566,85.592644 165.683403,85.0983188 L166.617852,85.5462157 C166.733991,85.6543128 166.799564,85.8044485 166.799163,85.9613396 L167,87.0155359 C167,87.0155359 166.316597,86.7888564 166.104603,87.4115423 L166.16318,88.0041864 L166.202232,88.1216227 C166.236253,88.2234369 166.218638,88.3350331 166.154812,88.4220414 C166.127927,88.4520045 166.120391,88.4941629 166.135286,88.5312845 C166.16359,88.6187836 166.147839,88.7142404 166.092833,88.7885614 C166.037827,88.8628825 165.950084,88.9072618 165.856346,88.9081734 C165.605208,88.9110013 165.35454,88.930161 165.105997,88.965526 C164.90516,89.0228787 164.297071,88.8535518 164.096234,88.965526 C163.895397,89.0775002 163.471409,88.8808626 163.471409,88.8808626 L163.585774,88.4001928 C163.585774,88.4001928 163.507671,88.16532 163.6053,88.0806566 C163.702929,87.9959931 163.644351,87.261333 163.55788,87.053771 C163.55788,87.053771 163.211994,86.7342349 163,86.7806632 L163.27894,85.5653333 C163.401387,85.3347486 163.638768,85.1843 163.903766,85.1693269 C164.119993,85.1882808 164.335704,85.1279376 164.509066,85 C164.509066,85 164.283124,85.4041996 164.877266,85.4915941 L165.022315,85.5243671 Z" id="Path" stroke="none" fill="#000000" fill-rule="nonzero" opacity="0.1"></path>
                                        <path d="M165.023693,85.5298292 C165.149129,85.5626022 165.483624,85.5981062 165.684321,85.103781 L166.618118,85.5516779 C166.734176,85.6597749 166.799704,85.8099107 166.799303,85.9668018 L167,87.0209981 C167,87.0209981 166.317073,86.7943186 166.105226,87.4170045 L166.163763,88.0096485 L166.163763,88.0096485 C166.207768,88.1559852 166.196892,88.312918 166.133101,88.4520832 C166.121768,88.4773161 166.121768,88.5060516 166.133101,88.5312845 C166.161386,88.6187836 166.145645,88.7142404 166.090678,88.7885614 C166.03571,88.8628825 165.948028,88.9072618 165.854355,88.9081734 C165.603393,88.9110013 165.3529,88.930161 165.10453,88.965526 C164.903833,89.0228787 164.296167,88.8535518 164.09547,88.965526 C163.894774,89.0775002 163.47108,88.8808626 163.47108,88.8808626 L163.585366,88.4001928 C163.585366,88.4001928 163.507317,88.16532 163.604878,88.0806566 C163.702439,87.9959931 163.643902,87.261333 163.557491,87.053771 C163.557491,87.053771 163.211847,86.7342349 163,86.7806632 L163.278746,85.5653333 C163.401108,85.3347486 163.638323,85.1843 163.903136,85.1693269 C164.119212,85.1882808 164.334773,85.1279376 164.508014,85 C164.508014,85 164.28223,85.4041996 164.875958,85.4915941 L165.023693,85.5298292 Z" id="Path" stroke="none" fill="#F55F44" fill-rule="nonzero"></path>
                                        <path d="M164.939103,83 L164,83.6039587 C164.023845,83.7128942 164.042033,83.8230612 164.054487,83.9339908 C164.161554,83.9778833 164.275785,84.0002878 164.391026,83.9999972 C164.62045,83.9834251 164.836506,83.8827267 165,83.7161696 C164.957527,83.4799979 164.937135,83.2401783 164.939103,83 Z" id="Path" stroke="none" fill="#000000" fill-rule="nonzero" opacity="0.1"></path>
                                        <circle id="Oval" stroke="none" fill="#FDB797" fill-rule="nonzero" cx="164.5" cy="82.5" r="1"></circle>
                                        <circle id="Oval" stroke="none" fill="#72351C" fill-rule="nonzero" cx="166.5" cy="82.5" r="1"></circle>
                                        <path d="M166.5,82.1420867 C166.237431,82.1425898 166.019057,81.9954465 166,81.80518 C166,81.80518 166,81.8227578 166,81.8315466 C166,82.032177 166.223858,82.19482 166.5,82.19482 C166.776142,82.19482 167,82.032177 167,81.8315466 C167,81.8315466 167,81.8139689 167,81.80518 C166.980943,81.9954465 166.762569,82.1425898 166.5,82.1420867 L166.5,82.1420867 Z" id="Path" stroke="none" fill="#72351C" fill-rule="nonzero"></path>
                                        <path d="M166.414823,82.1719992 C166.155522,82.1364183 165.97825,81.9626118 166.00845,81.7735704 L166.00845,81.7970074 C165.957952,81.9944017 166.138982,82.1839333 166.412791,82.220338 C166.6866,82.2567427 166.949502,82.1262348 167,81.9288404 L167,81.9024738 C166.935645,82.0903341 166.678323,82.2088537 166.414823,82.1719992 L166.414823,82.1719992 Z" id="Path" stroke="none" fill="#72351C" fill-rule="nonzero"></path>
                                        <path d="M166.414823,83.1719992 C166.155522,83.1364183 165.97825,82.9626118 166.00845,82.7735704 L166.00845,82.7970074 C165.957952,82.9944017 166.138982,83.1839333 166.412791,83.220338 C166.6866,83.2567427 166.949502,83.1262348 167,82.9288404 L167,82.9024738 C166.935645,83.0903341 166.678323,83.2088537 166.414823,83.1719992 L166.414823,83.1719992 Z" id="Path" stroke="none" fill="#72351C" fill-rule="nonzero"></path>
                                        <path d="M166.5,82.1450164 C166.23598,82.145416 166.017033,81.9966038 166,81.80518 C166,81.80518 166,81.8227578 166,81.8315466 C166,82.032177 166.223858,82.19482 166.5,82.19482 C166.776142,82.19482 167,82.032177 167,81.8315466 C167,81.8315466 167,81.8139689 167,81.80518 C166.982967,81.9966038 166.76402,82.145416 166.5,82.1450164 L166.5,82.1450164 Z" id="Path" stroke="none" fill="#72351C" fill-rule="nonzero"></path>
                                        <path d="M166.852532,82.4959677 C166.853768,82.2320405 167.003355,82.0148939 167.194191,82 L167.16791,82 C166.967927,82 166.805809,82.2238576 166.805809,82.5 C166.805809,82.7761424 166.967927,83 167.16791,83 L167.194191,83 C167.0011,82.9849369 166.850664,82.7630073 166.852532,82.4959677 L166.852532,82.4959677 Z" id="Path" stroke="none" fill="#72351C" fill-rule="nonzero"></path>
                                        <path d="M166.99311,85 C167.031195,85.1630695 167.031195,85.3316113 166.99311,85.4946809 C166.99311,85.4946809 166.943468,85.9255319 167.022312,86" id="Path" stroke="none" fill="#000000" fill-rule="nonzero" opacity="0.1"></path>
                                        <path d="M163.99311,85 C164.031195,85.1630695 164.031195,85.3316113 163.99311,85.4946809 C163.99311,85.4946809 163.943468,85.9255319 164.022312,86" id="Path" stroke="none" fill="#000000" fill-rule="nonzero" opacity="0.1"></path>
                                        <path d="M164,87.0003154 C164.146618,87.0284886 164.306934,87.0284886 164.453552,87.0003154 C164.631681,86.9713011 164.821871,86.9713011 165,87.0003154" id="Path" stroke="none" fill="#000000" fill-rule="nonzero" opacity="0.1"></path>
                                        <path d="M164,86.0637709 C164.395953,86.0774234 164.791597,86.0325594 165.162602,85.9319379 C165.162602,85.9319379 166.593496,86.1838855 167,86.0022488" id="Path" stroke="none" fill="#000000" fill-rule="nonzero" opacity="0.1"></path>
                                        <rect id="Rectangle" stroke="none" fill="#FDB797" fill-rule="nonzero" x="164" y="91.8037152" width="1" height="1" rx="0.5"></rect>
                                        <polygon id="Path" stroke="none" fill="#F0E4E4" fill-rule="nonzero" points="164 91.9912111 164.537037 91.976563 165 92.023437 164.837963 92.023437"></polygon>
                                        <polygon id="Path" stroke="none" fill="#F0E4E4" fill-rule="nonzero" points="165 89.9853519 165.537037 89.9853519 166 90.0146481 165.837963 90.0146481"></polygon>
                                        <polygon id="Path" stroke="none" fill="#F0E4E4" fill-rule="nonzero" points="165 89.9853519 165.537037 89.9853519 166 90.0146481 165.837963 90.0146481"></polygon>
                                        <polygon id="Path" stroke="none" fill="#F0E4E4" fill-rule="nonzero" points="165 89.9853519 165.537037 89.9853519 166 90.0146481 165.837963 90.0146481"></polygon>
                                        <polygon id="Path" stroke="none" fill="#F0E4E4" fill-rule="nonzero" points="165 89.9853519 165.537037 89.9853519 166 90.0146481 165.837963 90.0146481"></polygon>
                                        <polygon id="Path" stroke="none" fill="#F0E4E4" fill-rule="nonzero" points="164 91.9824223 164.537037 91.9824223 165 92.0175777 164.837963 92.0175777"></polygon>
                                        <polygon id="Path" stroke="none" fill="#F0E4E4" fill-rule="nonzero" points="164 91.9824223 164.537037 91.9824223 165 92.0175777 164.837963 92.0175777"></polygon>
                                        <polygon id="Path" stroke="none" fill="#F0E4E4" fill-rule="nonzero" points="164 91.9824223 164.537037 91.9824223 165 92.0175777 164.837963 92.0175777"></polygon>
                                        <polygon id="Path" stroke="none" fill="#F0E4E4" fill-rule="nonzero" points="164 91.9824223 164.537037 91.9824223 165 92.0175777 164.837963 92.0175777"></polygon>
                                        <polygon id="Path" stroke="none" fill="#F0E4E4" fill-rule="nonzero" points="164 91.9912111 164.537037 91.976563 165 92.023437 164.837963 92.023437"></polygon>
                                        <polygon id="Path" stroke="none" fill="#F0E4E4" fill-rule="nonzero" points="164 91.9912111 164.537037 91.976563 165 92.023437 164.837963 92.023437"></polygon>
                                        <path d="M165.016929,82.5215152 C164.966637,82.9477926 165.028767,83.3786244 165.19839,83.7798366 C165.36858,84.1736391 165.343869,84.6130153 165.130342,84.9897611 C165.271717,85.0186275 165.420094,84.9856497 165.529557,84.9010333 C165.642308,84.8132428 165.740109,84.711351 165.819895,84.5985522 C165.90418,84.5065384 165.964591,84.3991252 165.996819,84.2839718 C166.010574,84.1027586 165.979607,83.9210626 165.906089,83.7516051 C165.81809,83.4426862 165.754424,83.128689 165.715555,82.8118971 C165.688335,82.6183091 165.715555,82.0617439 165.470582,82.0052807 C165.225609,81.9488176 165.062294,82.3601919 165.016929,82.5215152 Z" id="Path" stroke="none" fill="#000000" fill-rule="nonzero" opacity="0.1"></path>
                                        <path d="M165.016929,82.5215532 C164.966637,82.9478241 165.028767,83.3786493 165.19839,83.7798553 C165.36858,84.1736518 165.343869,84.6130212 165.130342,84.9897613 C165.271717,85.0186272 165.420094,84.98565 165.529557,84.9010348 C165.642308,84.8132457 165.740109,84.7113554 165.819895,84.5985584 C165.90418,84.506546 165.964591,84.3991344 165.996819,84.2839828 C166.010574,84.1027723 165.979607,83.9210792 165.906089,83.7516242 C165.81809,83.4427101 165.754424,83.1287176 165.715555,82.8119306 C165.688335,82.6183456 165.715555,82.0617889 165.470582,82.0053266 C165.225609,81.9488644 165.062294,82.3561994 165.016929,82.5215532 Z" id="Path" stroke="none" fill="#72351C" fill-rule="nonzero"></path>
                                        <path d="M166.271908,82.5187453 C166.3123,82.5671747 166.320715,82.6388501 166.354375,82.693091 C166.414937,82.767875 166.501333,82.8076522 166.589997,82.8015728 C166.613943,82.8001157 166.637786,82.8061399 166.659001,82.8190074 C166.696027,82.8461278 166.69771,82.9081174 166.721272,82.9507353 C166.746737,82.982158 166.782395,83 166.819728,83 C166.857062,83 166.892719,82.982158 166.918184,82.9507353 C166.966787,82.8838999 166.993576,82.7996199 166.99392,82.7124628 C167.002027,82.616476 167.002027,82.5198105 166.99392,82.4238237 C166.99165,82.3139044 166.953843,82.2089115 166.88789,82.1293732 C166.832647,82.0822802 166.768724,82.0504632 166.701076,82.0363888 C166.608765,81.9988576 166.50946,81.990168 166.413281,82.0112055 C166.366631,82.0290949 166.322429,82.0545331 166.282006,82.0867554 C166.224783,82.1293732 166.168683,82.1726368 166.113704,82.2165461 C166.051433,82.2669126 165.933622,82.3676457 166.048067,82.4218866 C166.120436,82.4606301 166.211319,82.4431955 166.271908,82.5187453 Z" id="Path" stroke="none" fill="#000000" fill-rule="nonzero" opacity="0.1"></path>
                                        <path d="M166.271908,82.5187453 C166.3123,82.5671747 166.320715,82.6388501 166.354375,82.693091 C166.414937,82.767875 166.501333,82.8076522 166.589997,82.8015728 C166.613943,82.8001157 166.637786,82.8061399 166.659001,82.8190074 C166.696027,82.8461278 166.69771,82.9081174 166.721272,82.9507353 C166.746737,82.982158 166.782395,83 166.819728,83 C166.857062,83 166.892719,82.982158 166.918184,82.9507353 C166.966787,82.8838999 166.993576,82.7996199 166.99392,82.7124628 C167.002027,82.616476 167.002027,82.5198105 166.99392,82.4238237 C166.99165,82.3139044 166.953843,82.2089115 166.88789,82.1293732 C166.832647,82.0822802 166.768724,82.0504632 166.701076,82.0363888 C166.608765,81.9988576 166.50946,81.990168 166.413281,82.0112055 C166.366631,82.0290949 166.322429,82.0545331 166.282006,82.0867554 C166.224783,82.1293732 166.168683,82.1726368 166.113704,82.2165461 C166.051433,82.2669126 165.933622,82.3676457 166.048067,82.4218866 C166.120436,82.4606301 166.216368,82.4451327 166.271908,82.5187453 Z" id="Path" stroke="none" fill="#72351C" fill-rule="nonzero"></path>
                                        <polygon id="Path" stroke="none" fill="#F0E4E4" fill-rule="nonzero" points="165 89.9853519 165.537037 89.9853519 166 90.0146481 165.847222 90.0146481"></polygon>
                                        <polygon id="Path" stroke="none" fill="#F0E4E4" fill-rule="nonzero" points="165 89.9853519 165.537037 89.9853519 166 90.0146481 165.847222 90.0146481"></polygon>
                                        <polygon id="Path" stroke="none" fill="#F0E4E4" fill-rule="nonzero" points="165 89.9853519 165.537037 89.9853519 166 90.0146481 165.847222 90.0146481"></polygon>
                                        <polygon id="Path" stroke="none" fill="#F0E4E4" fill-rule="nonzero" points="165 89.9853519 165.537037 89.9853519 166 90.0146481 165.847222 90.0146481"></polygon>
                                        <polygon id="Path" stroke="none" fill="#F0E4E4" fill-rule="nonzero" points="165 92.9853519 165.537037 92.9853519 166 93.0146481 165.837963 93.0146481"></polygon>
                                        <polygon id="Path" stroke="none" fill="#F0E4E4" fill-rule="nonzero" points="165 93.9853519 165.537037 93.9853519 166 94.0146481 165.837963 94.0146481"></polygon>
                                        <polygon id="Path" stroke="none" fill="#F0E4E4" fill-rule="nonzero" points="165 93.9853519 165.537037 93.9853519 166 94.0146481 165.837963 94.0146481"></polygon>
                                        <polygon id="Path" stroke="none" fill="#F0E4E4" fill-rule="nonzero" points="165 93.9853519 165.537037 93.9853519 166 94.0146481 165.837963 94.0146481"></polygon>
                                    </g>
                                </g>
                            </g>
                        </g>
                    </g>
                </g>
            </g>
        </g>
    </g>
</svg>