<?xml version="1.0" encoding="UTF-8"?>
<svg width="360px" height="200px" viewBox="0 0 360 200" version="1.1" xmlns="http://www.w3.org/2000/svg" xmlns:xlink="http://www.w3.org/1999/xlink">
    <!-- Generator: Sketch 54.1 (76490) - https://sketchapp.com -->
    <title>ai@JPG</title>
    <desc>Created with Sketch.</desc>
    <defs>
        <rect id="path-1" x="0" y="0" width="360" height="200"></rect>
        <linearGradient x1="50%" y1="100%" x2="50%" y2="0%" id="linearGradient-3">
            <stop stop-color="#808080" stop-opacity="0.25" offset="0%"></stop>
            <stop stop-color="#808080" stop-opacity="0.12" offset="54%"></stop>
            <stop stop-color="#808080" stop-opacity="0.1" offset="100%"></stop>
        </linearGradient>
        <linearGradient x1="50%" y1="100.002151%" x2="50%" y2="0.00430227804%" id="linearGradient-4">
            <stop stop-color="#808080" stop-opacity="0.25" offset="0%"></stop>
            <stop stop-color="#808080" stop-opacity="0.12" offset="54%"></stop>
            <stop stop-color="#808080" stop-opacity="0.1" offset="100%"></stop>
        </linearGradient>
        <linearGradient x1="50%" y1="100%" x2="50%" y2="0%" id="linearGradient-5">
            <stop stop-color="#808080" stop-opacity="0.25" offset="0%"></stop>
            <stop stop-color="#808080" stop-opacity="0.12" offset="54%"></stop>
            <stop stop-color="#808080" stop-opacity="0.1" offset="100%"></stop>
        </linearGradient>
        <linearGradient x1="50%" y1="100%" x2="50%" y2="0%" id="linearGradient-6">
            <stop stop-color="#808080" stop-opacity="0.25" offset="0%"></stop>
            <stop stop-color="#808080" stop-opacity="0.12" offset="54%"></stop>
            <stop stop-color="#808080" stop-opacity="0.1" offset="100%"></stop>
        </linearGradient>
    </defs>
    <g id="Page-1" stroke="none" stroke-width="1" fill="none" fill-rule="evenodd">
        <g id="Desktop-HD" transform="translate(-150.000000, -4159.000000)">
            <g id="Portfolio" transform="translate(0.000000, 3920.000000)">
                <g id="Works" transform="translate(150.000000, 239.000000)">
                    <g id="Project-1">
                        <g id="Content/Projects/Dark/Case-(Var-3)">
                            <g id="ai">
                                <mask id="mask-2" fill="white">
                                    <use xlink:href="#path-1"></use>
                                </mask>
                                <g id="Path"></g>
                                <g mask="url(#mask-2)">
                                    <g transform="translate(54.000000, -9.000000)">
                                        <ellipse id="Oval" stroke="none" fill="#DEE3F3" fill-rule="nonzero" opacity="0.5" cx="136" cy="176.5" rx="58" ry="9.5"></ellipse>
                                        <g id="Group" opacity="0.45" stroke="none" stroke-width="1" fill="none" fill-rule="evenodd">
                                            <path d="M121.796242,75.17251 C121.796728,75.2812508 121.804307,75.3898457 121.818933,75.4976096 C121.804288,75.3898476 121.796708,75.2812515 121.796242,75.17251 Z" id="Path" fill="#FB515E" fill-rule="nonzero"></path>
                                            <path d="M151.048942,68.198672 C151.048942,68.2280212 151.048942,68.2551129 151.062556,68.2844622 C151.058018,68.2551129 151.05348,68.2280212 151.048942,68.198672 Z" id="Path" fill="#FB515E" fill-rule="nonzero"></path>
                                            <path d="M150.987677,67.9119522 C150.987677,67.9413015 151.003561,67.9729084 151.010368,68.0022576 C151.003561,67.9706507 150.996753,67.9413015 150.987677,67.9119522 Z" id="Path" fill="#FB515E" fill-rule="nonzero"></path>
                                            <path d="M151.017175,75.7166003 C151.017175,75.7662683 150.992215,75.8159363 150.978601,75.8633466 C150.994484,75.8159363 151.00583,75.7662683 151.017175,75.7166003 Z" id="Path" fill="#FB515E" fill-rule="nonzero"></path>
                                            <path d="M151.058018,75.4795485 C151.058018,75.5314741 151.044404,75.5856574 151.033058,75.637583 C151.044404,75.5856574 151.05348,75.5314741 151.058018,75.4795485 Z" id="Path" fill="#FB515E" fill-rule="nonzero"></path>
                                            <path d="M123.148601,77.387251 C122.95359,77.2854426 122.772801,77.1586924 122.610834,77.0102258 C122.772735,77.1587734 122.953536,77.2855314 123.148601,77.387251 L123.148601,77.387251 Z" id="Path" fill="#FB515E" fill-rule="nonzero"></path>
                                            <path d="M122.590413,76.9944223 C122.514723,76.9235969 122.443491,76.8481996 122.377121,76.7686587 C122.443474,76.8482148 122.514707,76.9236132 122.590413,76.9944223 L122.590413,76.9944223 Z" id="Path" fill="#FB515E" fill-rule="nonzero"></path>
                                            <path d="M165.759247,124.718592 C165.729828,124.619399 165.69421,124.522131 165.652601,124.427357 C165.69421,124.522131 165.729828,124.619399 165.759247,124.718592 Z" id="Path" fill="#FB515E" fill-rule="nonzero"></path>
                                            <path d="M164.508996,123.215007 C164.608065,123.26658 164.703576,123.324654 164.794897,123.388845 C164.703599,123.324621 164.608085,123.266545 164.508996,123.215007 Z" id="Path" fill="#FB515E" fill-rule="nonzero"></path>
                                            <path d="M165.071722,123.612351 C165.225344,123.756081 165.360269,123.918388 165.473345,124.095485 C165.360307,123.91836 165.225379,123.756048 165.071722,123.612351 Z" id="Path" fill="#FB515E" fill-rule="nonzero"></path>
                                            <path d="M164.794897,123.39336 C164.878129,123.452489 164.957691,123.516573 165.033148,123.585259 C164.957717,123.516543 164.878153,123.452459 164.794897,123.39336 L164.794897,123.39336 Z" id="Path" fill="#FB515E" fill-rule="nonzero"></path>
                                            <path d="M165.62991,124.384462 C165.592265,124.30711 165.55061,124.231754 165.505112,124.158699 C165.55061,124.231754 165.592265,124.30711 165.62991,124.384462 Z" id="Path" fill="#FB515E" fill-rule="nonzero"></path>
                                            <path d="M165.827318,125.027888 C165.813363,124.944997 165.795187,124.862864 165.772861,124.781806 C165.795187,124.862864 165.813363,124.944997 165.827318,125.027888 Z" id="Path" fill="#FB515E" fill-rule="nonzero"></path>
                                            <path d="M241.534448,111.333068 L227.091892,111.333068 C227.768354,110.866608 228.171942,110.099772 228.171964,109.280876 L228.171964,102.684064 C228.171964,101.303792 227.047372,100.184861 225.660117,100.184861 L209.041534,100.184861 C210.083223,99.8539466 210.790477,98.8910448 210.790978,97.8030544 L210.790978,91.2039841 C210.790955,90.3850887 210.387368,89.6182522 209.710906,89.1517928 L225.666924,89.1517928 C227.054179,89.1517928 228.178771,88.0328614 228.178771,86.6525896 L228.178771,80.0535193 C228.178771,78.6732474 227.054179,77.5543161 225.666924,77.5543161 L207.907004,77.5543161 C208.948694,77.2234021 209.655948,76.2605003 209.656448,75.17251 L209.656448,68.5734396 C209.656426,67.7545443 209.252839,66.9877077 208.576377,66.5212483 L225.669193,66.5212483 C227.056448,66.5212483 228.18104,65.402317 228.18104,64.0220452 L228.18104,57.4229748 C228.182256,56.7574023 227.916592,56.1188405 227.442941,55.648845 C226.969289,55.1788496 226.326782,54.916249 225.657848,54.9192563 L216.710951,54.9192563 C217.75264,54.5883424 218.459894,53.6254406 218.460395,52.5374502 L218.460395,45.9451527 C218.460395,44.5648809 217.335802,43.4459495 215.948547,43.4459495 L191.690045,43.4459495 C190.30279,43.4459495 189.178197,44.5648809 189.178197,45.9451527 C189.178197,45.2823228 188.913557,44.6466407 188.442494,44.1779492 C187.971431,43.7092577 187.332533,43.4459495 186.66635,43.4459495 L162.405578,43.4459495 C161.43113,43.4495768 160.546718,44.0136317 160.13652,44.8930943 C160.168374,45.0537053 160.184334,45.2170355 160.18417,45.3807437 L160.18417,51.9843293 C160.186387,52.3465399 160.108942,52.7048485 159.957265,53.0341301 C160.070102,53.603678 160.379036,54.116243 160.830852,54.4835325 L167.061686,54.4835325 C167.641196,54.4832326 168.202751,54.6835767 168.650027,55.0501992 L171.372897,55.0501992 C170.331208,55.3811132 169.623953,56.344015 169.623453,57.4320053 C169.617952,57.2700463 169.596674,57.1090001 169.559919,56.9511288 C169.559919,56.9511288 169.559919,56.9691899 169.559919,56.9782205 L169.559919,63.5750332 C169.559172,63.7853296 169.531726,63.9946895 169.478233,64.1981408 C169.518939,64.2404244 169.555416,64.2865468 169.587148,64.3358566 C169.600516,64.2317779 169.607336,64.12697 169.60757,64.0220452 C169.609285,64.1667566 169.62371,64.3110419 169.650682,64.4532537 C169.684164,64.5328461 169.703363,64.6176623 169.707408,64.7038513 C169.866133,65.2597788 170.213264,65.7439545 170.68991,66.0742364 L168.529767,66.0742364 L168.584224,66.0313413 C168.384547,66.0313413 168.180332,66.0155378 167.980655,66.0132802 C167.908947,66.0124568 167.83807,65.9978929 167.771901,65.9703851 C167.537858,66.0405288 167.294771,66.0762759 167.050341,66.076494 L152.163049,66.5280212 C151.486587,66.9944806 151.083,67.7613172 151.082978,68.5802125 L151.082978,75.1770252 C151.083478,76.2650156 151.790732,77.2279174 152.832422,77.5588313 L167.050341,77.6762284 C167.300318,77.6763874 167.548872,77.713673 167.787785,77.7868526 C167.946421,77.800354 168.103577,77.8275479 168.25748,77.8681275 L168.293785,77.8681275 C168.155518,77.7929463 168.010407,77.7309609 167.860395,77.6830013 L171.359283,77.6830013 C170.317593,78.0139153 169.610339,78.9768171 169.609839,80.0648074 C169.609615,79.9194802 169.596708,79.7744468 169.571265,79.6313413 C169.554914,79.6552956 169.536706,79.677941 169.516807,79.6990704 C169.548339,79.8582054 169.564297,80.0200064 169.564457,80.1822045 L169.564457,86.7790173 C169.564457,87.0860558 169.609839,87.0047809 169.609839,86.6616202 C169.609861,87.4805155 170.013448,88.2473521 170.68991,88.7138114 L179.559659,88.9960159 C179.863765,88.9965797 180.165206,89.0524329 180.44913,89.1608234 L182.584314,89.1608234 C182.202094,89.4263741 181.901286,89.7920904 181.715265,90.2173971 C181.948226,90.6033365 182.071363,91.0450246 182.071507,91.4952191 L182.071507,98.085259 C182.071613,98.4295872 181.99975,98.7701749 181.860484,99.0853918 C182.174529,99.6078024 182.66895,99.9986198 183.251417,100.184861 L180.918825,100.184861 C180.513693,100.447146 180.040736,100.58675 179.55739,100.58672 L170.755713,100.58672 C170.038128,101.046205 169.604686,101.837273 169.6053,102.686321 C169.6053,101.805843 169.276287,110.488712 169.276287,110.488712 C169.276287,111.267596 182.967785,111.61753 182.967785,111.61753 C183.315545,111.617508 183.659473,111.689792 183.977516,111.829748 C184.12066,111.799724 184.26701,111.787589 184.413175,111.793625 L184.399561,111.793625 L186.559704,111.793625 C185.883242,112.260085 185.479655,113.026921 185.479632,113.845817 C185.479116,113.726421 185.470017,113.607214 185.452404,113.48911 C185.441058,113.516202 185.427444,113.543293 185.41383,113.568127 C185.456897,113.751696 185.478971,113.939519 185.479632,114.128021 L185.479632,120.449402 C185.479632,121.829674 186.604225,122.948606 187.99148,122.948606 L184.134081,122.948606 C183.776213,123.134597 183.37834,123.231434 182.974592,123.23081 L167.218251,123.23081 C166.383702,123.658608 165.858575,124.51374 165.856816,125.447809 L165.856816,132.044622 C165.856816,132.707451 166.121456,133.343134 166.592519,133.811825 C167.063582,134.280517 167.70248,134.543825 168.368664,134.543825 L192.633973,134.543825 C193.300156,134.543825 193.939055,134.280517 194.410118,133.811825 C194.88118,133.343134 195.145821,132.707451 195.145821,132.044622 C195.145821,132.707451 195.410461,133.343134 195.881524,133.811825 C196.352587,134.280517 196.991485,134.543825 197.657668,134.543825 L221.91617,134.543825 C222.582354,134.543825 223.221252,134.280517 223.692315,133.811825 C224.163378,133.343134 224.428018,132.707451 224.428018,132.044622 L224.428018,125.432005 C224.428018,124.051734 223.303425,122.932802 221.91617,122.932802 L241.532179,122.932802 C242.198363,122.932802 242.837261,122.669494 243.308324,122.200802 C243.779387,121.732111 244.044027,121.096429 244.044027,120.433599 L244.044027,113.843559 C244.047043,113.179167 243.784047,112.540924 243.313148,112.069853 C242.842249,111.598783 242.202209,111.333661 241.534448,111.333068 Z M181.442978,66.5212483 C180.766516,66.9877077 180.362928,67.7545443 180.362906,68.5734396 C180.362883,67.7545443 179.959296,66.9877077 179.282834,66.5212483 L181.442978,66.5212483 Z M178.613462,77.5543161 C179.655151,77.2234021 180.362405,76.2605003 180.362906,75.17251 C180.363406,76.2605003 181.070661,77.2234021 182.11235,77.5543161 L178.613462,77.5543161 Z M187.426484,54.9192563 C188.468174,54.5883424 189.175428,53.6254406 189.175928,52.5374502 C189.176429,53.6254406 189.883683,54.5883424 190.925372,54.9192563 L187.426484,54.9192563 Z M195.141283,125.42749 C195.141283,124.76466 194.876642,124.128978 194.405579,123.660287 C193.934517,123.191595 193.295618,122.928287 192.629435,122.928287 L197.655399,122.928287 C196.988822,122.928885 196.349818,123.193077 195.879116,123.662681 C195.408413,124.132284 195.144616,124.768784 195.145821,125.432005 L195.141283,125.42749 Z M197.802888,111.328552 C198.47935,110.862093 198.882937,110.095257 198.88296,109.276361 C198.882982,110.095257 199.28657,110.862093 199.963031,111.328552 L197.802888,111.328552 Z M198.88296,102.677291 C198.882424,101.591954 198.178524,100.630788 197.140323,100.297742 L200.646018,100.297742 C199.599142,100.625962 198.887276,101.591969 198.887498,102.684064 L198.88296,102.677291 Z M197.802888,88.698008 C198.47935,88.2315486 198.882937,87.4647121 198.88296,86.6458167 C198.882982,87.4647121 199.28657,88.2315486 199.963031,88.698008 L197.802888,88.698008 Z M198.88296,80.0467463 C198.882459,78.958756 198.175205,77.9958542 197.133516,77.6649402 L200.646018,77.6649402 C199.598343,77.9934099 198.886284,78.9605915 198.887498,80.0535193 L198.88296,80.0467463 Z M197.802888,66.0674635 C198.47935,65.6010041 198.882937,64.8341676 198.88296,64.0152722 C198.882982,64.8341676 199.28657,65.6010041 199.963031,66.0674635 L197.802888,66.0674635 Z M198.88296,57.4162019 C198.882459,56.3282115 198.175205,55.3653097 197.133516,55.0343958 L200.646018,55.0343958 C199.598343,55.3628655 198.886284,56.330047 198.887498,57.4229748 L198.88296,57.4162019 Z M215.848709,111.78008 C215.172247,112.246539 214.768659,113.013376 214.768637,113.832271 C214.768614,113.013376 214.365027,112.246539 213.688565,111.78008 L215.848709,111.78008 Z M212.25452,122.930544 C212.920704,122.930544 213.559602,122.667236 214.030665,122.198545 C214.501727,121.729853 214.766368,121.094171 214.766368,120.431341 C214.766368,121.094171 215.031008,121.729853 215.502071,122.198545 C215.973134,122.667236 216.612032,122.930544 217.278215,122.930544 L212.25452,122.930544 Z" id="Shape" fill="#FB515E" fill-rule="nonzero"></path>
                                            <g transform="translate(0.061265, 0.058699)"></g>
                                            <path d="M165.863623,125.432005 C165.86284,125.325525 165.855262,125.219203 165.840933,125.113679 C165.85528,125.219201 165.862859,125.325525 165.863623,125.432005 Z" id="Path" fill="#FB515E" fill-rule="nonzero"></path>
                                            <path d="M151.080709,75.17251 C151.080709,75.2515272 151.080709,75.3305445 151.069363,75.3982736 C151.07617,75.3282869 151.080709,75.2515272 151.080709,75.17251 Z" id="Path" fill="#FB515E" fill-rule="nonzero"></path>
                                            <path d="M121.82574,75.5450199 C121.840768,75.6455559 121.861986,75.7450791 121.889274,75.8430279 C121.861986,75.7450791 121.840768,75.6455559 121.82574,75.5450199 Z" id="Path" fill="#FB515E" fill-rule="nonzero"></path>
                                            <path d="M93.7053004,90.2851262 C93.6637641,90.2483656 93.6278376,90.205775 93.5986547,90.1586985 C93.5627876,90.0942616 93.5389554,90.0238901 93.5283139,89.950996 C93.5195161,90.1224647 93.5195161,90.2942684 93.5283139,90.4657371 C93.6040863,90.7046045 93.6431018,90.9535033 93.6440359,91.2039841 C93.6453077,90.9597888 93.6827721,90.7171155 93.7552197,90.4837981 C93.732738,90.4274855 93.7152746,90.3693157 93.7030314,90.3099602 C93.7030314,90.3099602 93.7053004,90.2941567 93.7053004,90.2851262 Z" id="Path" fill="#FB515E" fill-rule="nonzero"></path>
                                            <path d="M128.097417,43.4436919 L103.838915,43.4436919 C102.45166,43.4436919 101.327067,44.5626233 101.327067,45.9428951 C101.327067,44.5626233 100.202475,43.4436919 98.8152197,43.4436919 L74.5567175,43.4436919 C73.1694624,43.4436919 72.04487,44.5626233 72.04487,45.9428951 L72.04487,52.5397078 C72.0460403,53.6262577 72.7520494,54.5878002 73.7920448,54.9192563 L54.9860897,54.9192563 C54.3195125,54.9198543 53.6805088,55.1840466 53.2098062,55.6536501 C52.7391036,56.1232536 52.4753066,56.7597539 52.4765112,57.4229748 L52.4765112,64.0197875 C52.4765337,64.8386828 52.8801211,65.6055194 53.556583,66.0719788 L36.4592287,66.0719788 C35.0719736,66.0719788 33.9473812,67.1909101 33.9473812,68.5711819 L33.9473812,75.1679947 C33.9473812,76.5482665 35.0719736,77.6671979 36.4592287,77.6671979 L54.221417,77.6671979 C53.1799277,78.0002119 52.4744053,78.9650795 52.4765112,80.0535193 L52.4765112,86.650332 C52.4765337,87.4692273 52.8801211,88.2360639 53.556583,88.7025232 L37.598296,88.7025232 C36.2110409,88.7025232 35.0864484,89.8214546 35.0864484,91.2017264 L35.0864484,97.7985392 C35.0864484,99.178811 36.2110409,100.297742 37.598296,100.297742 L54.221417,100.297742 C53.1799277,100.630756 52.4744053,101.595624 52.4765112,102.684064 L52.4765112,109.280876 C52.4765112,110.661148 53.6011037,111.78008 54.9883587,111.78008 L69.4309148,111.78008 C68.754453,112.246539 68.3508656,113.013376 68.350843,113.832271 L68.350843,120.429084 C68.3495864,121.807596 69.4704013,122.926809 70.8558834,122.930544 L51.2444126,122.930544 C49.8571575,122.930544 48.732565,124.049476 48.732565,125.429748 L48.732565,132.02656 C48.732565,133.406832 49.8571575,134.525764 51.2444126,134.525764 L75.5006457,134.525764 C76.8879008,134.525764 78.0124933,133.406832 78.0124933,132.02656 C78.0124933,133.406832 79.1370857,134.525764 80.5243408,134.525764 L104.785112,134.525764 C106.172367,134.525764 107.29696,133.406832 107.29696,132.02656 L107.29696,125.432005 C107.295201,124.497936 106.770073,123.642804 105.935525,123.215007 L100.712152,123.215007 C100.308405,123.215631 99.910531,123.118793 99.5526637,122.932802 L95.1189238,122.932802 C95.7855005,122.932802 96.4247428,122.669184 96.8958709,122.200004 C97.366999,121.730825 97.6313734,121.094562 97.6307713,120.431341 C97.6307713,121.519522 98.2003049,114.10996 98.2003049,114.10996 C98.2003049,112.729688 99.3248974,111.610757 100.712152,111.610757 L109.958565,111.328552 C110.221235,111.146657 110.446835,110.91683 110.623399,110.651262 C110.49227,110.344999 110.424365,110.01563 110.423722,109.682736 L110.423722,103.083665 C110.423073,102.594685 110.567522,102.116396 110.83896,101.708765 C110.64211,101.246005 110.310098,100.852742 109.885955,100.579947 L96.723148,100.579947 C96.239802,100.579977 95.7668448,100.440373 95.361713,100.178088 L91.9013991,100.178088 C92.9430883,99.8471737 93.6503427,98.8842719 93.650843,97.7962815 L93.5623498,91.2491368 C93.5623498,90.9533865 93.5464664,90.6937583 93.5351211,90.4612218 C93.3696491,89.9286379 93.0302721,89.4662306 92.5707713,89.1472776 L94.7309148,89.1472776 L94.6832646,89.1833997 C95.9085561,89.113413 109.901839,88.2961487 111.040906,87.3772908 C111.012123,87.2041898 111.006781,87.028032 111.025022,86.8535193 C111.004786,86.7280756 110.994166,86.6012824 110.993256,86.4742364 L110.993256,79.8887118 C110.993256,79.8074369 110.993256,79.726162 111.004601,79.6471448 C110.850384,78.7206934 110.188086,77.9580036 109.289193,77.6717131 L112.347883,77.6717131 C112.705751,77.4857219 113.103624,77.3888846 113.507372,77.3895086 L120.443883,77.3895086 C121.278797,76.9621019 121.804076,76.106724 121.805318,75.17251 L121.805318,68.5734396 C121.805296,67.7545443 121.401708,66.9877077 120.725247,66.5212483 L113.514179,66.0697211 C112.293426,66.0697211 111.483372,65.6181939 112.127785,66.0697211 L109.967641,66.0697211 C110.638499,65.6076298 111.041415,64.849649 111.047713,64.0378486 C111.018918,63.8890112 111.003729,63.7378849 111.002332,63.5863214 L111.002332,56.9759628 C111.002332,56.9759628 111.002332,56.9759628 111.002332,56.9601594 C110.830912,56.0580076 110.176958,55.3215732 109.298269,55.0411687 L111.925839,55.0411687 C112.373114,54.6745462 112.93467,54.4742021 113.514179,54.474502 L129.694834,54.474502 C130.280744,54.0015886 130.620222,53.2903655 130.618341,52.5397078 L130.618341,45.9451527 C130.618949,45.2803641 130.353329,44.6427285 129.880236,44.1732877 C129.407142,43.7038469 128.765565,43.4412895 128.097417,43.4436919 Z M64.3119193,66.5212483 C63.6354574,66.9877077 63.23187,67.7545443 63.2318475,68.5734396 C63.231825,67.7545443 62.8282376,66.9877077 62.1517758,66.5212483 L64.3119193,66.5212483 Z M63.2318475,75.17251 C63.2323479,76.2605003 63.9396023,77.2234021 64.9812915,77.5543161 L61.4824036,77.5543161 C62.5231953,77.2226055 63.2293938,76.2598925 63.2295785,75.17251 L63.2318475,75.17251 Z M65.4487175,89.1517928 C64.7722556,89.6182522 64.3686683,90.3850887 64.3686457,91.2039841 C64.3686232,90.3850887 63.9650358,89.6182522 63.288574,89.1517928 L65.4487175,89.1517928 Z M62.6192018,100.182603 C63.660891,99.851689 64.3681454,98.8887872 64.3686457,97.8007968 C64.3691461,98.8887872 65.0764005,99.851689 66.1180897,100.182603 L62.6192018,100.182603 Z M93.5941166,66.5212483 C92.9176547,66.9877077 92.5140674,67.7545443 92.5140448,68.5734396 C92.5140223,67.7545443 92.1104349,66.9877077 91.4339731,66.5212483 L93.5941166,66.5212483 Z M78.0147623,125.432005 C78.0147623,124.051734 76.8901699,122.932802 75.5029148,122.932801 L80.5288789,122.932801 C79.8623025,122.932203 79.2228212,123.195247 78.7512675,123.664003 C78.2797138,124.13276 78.0147621,124.768784 78.0147623,125.432005 L78.0147623,125.432005 Z M80.6763677,111.333068 C81.3528296,110.866608 81.7564169,110.099772 81.7564395,109.280876 C81.756462,110.099772 82.1600494,110.866608 82.8365112,111.333068 L80.6763677,111.333068 Z M81.7473632,102.684064 C81.7501023,101.596837 81.0466898,100.632347 80.0069955,100.297742 L83.5058834,100.297742 C82.4590077,100.625962 81.7471411,101.591969 81.7473632,102.684064 Z M80.6672915,88.7047809 C81.3437533,88.2383215 81.7473407,87.471485 81.7473632,86.6525896 C81.7473857,87.471485 82.1509731,88.2383215 82.827435,88.7047809 L80.6672915,88.7047809 Z M81.7473632,80.0535193 C81.7468628,78.9655289 81.0396085,78.0026271 79.9979193,77.6717131 L83.4968072,77.6717131 C82.455118,78.0026271 81.7478636,78.9655289 81.7473632,80.0535193 L81.7473632,80.0535193 Z M80.6672915,66.0742364 C81.3437533,65.607777 81.7473407,64.8409405 81.7473632,64.0220452 C81.7473857,64.8409405 82.1509731,65.607777 82.827435,66.0742364 L80.6672915,66.0742364 Z M81.7473632,57.4229748 C81.7468628,56.3349844 81.0396085,55.3720826 79.9979193,55.0411687 L83.4968072,55.0411687 C82.455118,55.3720826 81.7478636,56.3349844 81.7473632,57.4229748 L81.7473632,57.4229748 Z M90.7555247,77.5520584 C91.7972139,77.2211445 92.5044682,76.2582427 92.5049686,75.1702523 C92.505469,76.2582427 93.2127233,77.2211445 94.2544126,77.5520584 L90.7555247,77.5520584 Z M99.5776233,54.9192563 C100.619313,54.5883424 101.326567,53.6254406 101.327067,52.5374502 C101.327568,53.6254406 102.034822,54.5883424 103.076511,54.9192563 L99.5776233,54.9192563 Z" id="Shape" fill="#FB515E" fill-rule="nonzero"></path>
                                            <path d="M122.622179,66.7244356 L122.658484,66.6928287 L122.622179,66.7244356 Z" id="Path" fill="#FB515E" fill-rule="nonzero"></path>
                                            <path d="M122.456538,66.8847278 L122.420233,66.9253652 L122.456538,66.8847278 Z" id="Path" fill="#FB515E" fill-rule="nonzero"></path>
                                            <path d="M122.245516,67.1511288 L122.263668,67.1262948 L122.245516,67.1511288 Z" id="Path" fill="#FB515E" fill-rule="nonzero"></path>
                                            <path d="M121.909695,75.8926959 C121.938551,75.9903063 121.973409,76.08606 122.014072,76.1794157 C121.973409,76.08606 121.938551,75.9903063 121.909695,75.8926959 Z" id="Path" fill="#FB515E" fill-rule="nonzero"></path>
                                            <path d="M122.172906,76.4864542 C122.229395,76.5760725 122.291541,76.6620352 122.358969,76.7438247 C122.291531,76.6620427 122.229385,76.5760792 122.172906,76.4864542 Z" id="Path" fill="#FB515E" fill-rule="nonzero"></path>
                                            <path d="M122.023148,76.2042497 C122.067022,76.3006445 122.117043,76.3941508 122.172906,76.4841965 C122.117043,76.3941508 122.067022,76.3006445 122.023148,76.2042497 Z" id="Path" fill="#FB515E" fill-rule="nonzero"></path>
                                            <path d="M121.866583,68.0022576 C121.866583,67.9706507 121.882466,67.9413015 121.889274,67.9119522 C121.880197,67.9413015 121.87339,67.9706507 121.866583,68.0022576 Z" id="Path" fill="#FB515E" fill-rule="nonzero"></path>
                                            <path d="M121.950538,67.7200531 C121.950538,67.6952191 121.968691,67.6703851 121.977767,67.6455511 C121.968691,67.6703851 121.959614,67.6952191 121.950538,67.7200531 Z" id="Path" fill="#FB515E" fill-rule="nonzero"></path>
                                            <path d="M121.814395,68.2844622 C121.814395,68.2551129 121.814395,68.2257636 121.828009,68.198672 C121.823471,68.2280212 121.818933,68.2551129 121.814395,68.2844622 Z" id="Path" fill="#FB515E" fill-rule="nonzero"></path>
                                            <g transform="translate(0.061265, 0.058699)"></g>
                                            <rect id="Rectangle" fill="#000000" fill-rule="nonzero" opacity="0.1" transform="translate(86.969601, 49.244688) rotate(-180.000000) translate(-86.969601, -49.244688) " x="72.3285022" y="43.4459495" width="29.2821973" height="11.5974768" rx="5.79873838"></rect>
                                            <rect id="Rectangle" fill="#000000" fill-rule="nonzero" opacity="0.1" transform="translate(174.534830, 49.244688) rotate(-180.000000) translate(-174.534830, -49.244688) " x="159.893731" y="43.4459495" width="29.2821973" height="11.5974768" rx="5.79873838"></rect>
                                            <rect id="Rectangle" fill="#000000" fill-rule="nonzero" opacity="0.1" transform="translate(213.485484, 60.559960) rotate(-180.000000) translate(-213.485484, -60.559960) " x="198.844386" y="54.7612218" width="29.2821973" height="11.5974768" rx="5.79873838"></rect>
                                            <rect id="Rectangle" fill="#000000" fill-rule="nonzero" opacity="0.1" transform="translate(165.719538, 71.872975) rotate(-180.000000) translate(-165.719538, -71.872975) " x="151.078439" y="66.0742364" width="29.2821973" height="11.5974768" rx="5.79873838"></rect>
                                            <rect id="Rectangle" fill="#000000" fill-rule="nonzero" opacity="0.1" transform="translate(213.485484, 83.470452) rotate(-180.000000) translate(-213.485484, -83.470452) " x="198.844386" y="77.6717131" width="29.2821973" height="11.5974768" rx="5.79873838"></rect>
                                            <rect id="Rectangle" fill="#000000" fill-rule="nonzero" opacity="0.1" transform="translate(213.485484, 106.100996) rotate(-180.000000) translate(-213.485484, -106.100996) " x="198.844386" y="100.302258" width="29.2821973" height="11.5974768" rx="5.79873838"></rect>
                                            <path d="M212.935238,111.61753 L187.310762,111.61753 C186.497935,111.617195 185.782425,112.150666 185.554511,112.926959 C185.561406,113.029753 185.554539,113.133003 185.53409,113.233997 C185.520818,113.293091 185.503379,113.351181 185.481901,113.407835 C185.481901,113.407835 185.481901,113.428154 185.481901,113.437185 L185.481901,121.395352 C185.481901,122.400319 186.30071,123.215007 187.310762,123.215007 L212.935238,123.215007 C213.94529,123.215007 214.764099,122.400319 214.764099,121.395352 L214.764099,113.437185 C214.764099,112.432217 213.94529,111.61753 212.935238,111.61753 Z" id="Path" fill="#000000" fill-rule="nonzero" opacity="0.1"></path>
                                            <rect id="Rectangle" fill="#000000" fill-rule="nonzero" opacity="0.1" transform="translate(180.504722, 128.731541) rotate(-180.000000) translate(-180.504722, -128.731541) " x="165.863623" y="122.932802" width="29.2821973" height="11.5974768" rx="5.79873838"></rect>
                                            <rect id="Rectangle" fill="#000000" fill-rule="nonzero" opacity="0.1" transform="translate(96.349888, 60.559960) rotate(-180.000000) translate(-96.349888, -60.559960) " x="81.7087892" y="54.7612218" width="29.2821973" height="11.5974768" rx="5.79873838"></rect>
                                            <rect id="Rectangle" fill="#000000" fill-rule="nonzero" opacity="0.1" transform="translate(78.154309, 71.872975) rotate(-180.000000) translate(-78.154309, -71.872975) " x="63.5132108" y="66.0742364" width="29.2821973" height="11.5974768" rx="5.79873838"></rect>
                                            <rect id="Rectangle" fill="#000000" fill-rule="nonzero" opacity="0.1" transform="translate(67.067691, 83.470452) rotate(-180.000000) translate(-67.067691, -83.470452) " x="52.4265919" y="77.6717131" width="29.2821973" height="11.5974768" rx="5.79873838"></rect>
                                            <rect id="Rectangle" fill="#000000" fill-rule="nonzero" opacity="0.1" transform="translate(79.007475, 94.785724) rotate(-180.000000) translate(-79.007475, -94.785724) " x="64.3663767" y="88.9869854" width="29.2821973" height="11.5974768" rx="5.79873838"></rect>
                                            <rect id="Rectangle" fill="#000000" fill-rule="nonzero" opacity="0.1" transform="translate(67.067691, 106.100996) rotate(-180.000000) translate(-67.067691, -106.100996) " x="52.4265919" y="100.302258" width="29.2821973" height="11.5974768" rx="5.79873838"></rect>
                                            <rect id="Rectangle" fill="#FB515E" fill-rule="nonzero" transform="translate(53.820928, 117.427556) rotate(-180.000000) translate(-53.820928, -117.427556) " x="39.1798296" y="111.628818" width="29.2821973" height="11.5974768" rx="5.79873838"></rect>
                                            <rect id="Rectangle" fill="#FB515E" fill-rule="nonzero" transform="translate(224.796740, 94.774436) rotate(-180.000000) translate(-224.796740, -94.774436) " x="210.155641" y="88.9756972" width="29.2821973" height="11.5974768" rx="5.79873838"></rect>
                                            <rect id="Rectangle" fill="#FB515E" fill-rule="nonzero" transform="translate(223.555565, 71.913612) rotate(-180.000000) translate(-223.555565, -71.913612) " x="208.914466" y="66.1148738" width="29.2821973" height="11.5974768" rx="5.79873838"></rect>
                                            <rect id="Rectangle" fill="#FB515E" fill-rule="nonzero" transform="translate(238.252256, 128.550930) rotate(-180.000000) translate(-238.252256, -128.550930) " x="223.611157" y="122.752191" width="29.2821973" height="11.5974768" rx="5.79873838"></rect>
                                            <rect id="Rectangle" fill="#FB515E" fill-rule="nonzero" transform="translate(34.157269, 128.756375) rotate(-180.000000) translate(-34.157269, -128.756375) " x="19.5161704" y="122.957636" width="29.2821973" height="11.5974768" rx="5.79873838"></rect>
                                            <rect id="Rectangle" fill="#FB515E" fill-rule="nonzero" transform="translate(38.087278, 105.893293) rotate(-180.000000) translate(-38.087278, -105.893293) " x="23.4461794" y="100.094555" width="29.2821973" height="11.5974768" rx="5.79873838"></rect>
                                            <rect id="Rectangle" fill="#FB515E" fill-rule="nonzero" transform="translate(38.087278, 83.445618) rotate(-180.000000) translate(-38.087278, -83.445618) " x="23.4461794" y="77.6468792" width="29.2821973" height="11.5974768" rx="5.79873838"></rect>
                                            <rect id="Rectangle" fill="#FB515E" fill-rule="nonzero" transform="translate(39.124238, 60.584794) rotate(-180.000000) translate(-39.124238, -60.584794) " x="24.483139" y="54.7860558" width="29.2821973" height="11.5974768" rx="5.79873838"></rect>
                                            <rect id="Rectangle" fill="#000000" fill-rule="nonzero" opacity="0.1" transform="translate(39.124238, 60.584794) rotate(-180.000000) translate(-39.124238, -60.584794) " x="24.483139" y="54.7860558" width="29.2821973" height="11.5974768" rx="5.79873838"></rect>
                                            <rect id="Rectangle" fill="#FB515E" fill-rule="nonzero" transform="translate(57.753206, 49.258234) rotate(-180.000000) translate(-57.753206, -49.258234) " x="43.1121076" y="43.4594954" width="29.2821973" height="11.5974768" rx="5.79873838"></rect>
                                            <rect id="Rectangle" fill="#000000" fill-rule="nonzero" opacity="0.1" transform="translate(83.273305, 117.414011) rotate(-180.000000) translate(-83.273305, -117.414011) " x="68.6322063" y="111.615272" width="29.2821973" height="11.5974768" rx="5.79873838"></rect>
                                            <rect id="Rectangle" fill="#000000" fill-rule="nonzero" opacity="0.1" transform="translate(63.373664, 128.731541) rotate(-180.000000) translate(-63.373664, -128.731541) " x="48.732565" y="122.932802" width="29.2821973" height="11.5974768" rx="5.79873838"></rect>
                                        </g>
                                        <circle id="Oval" stroke="none" fill="#FB515E" fill-rule="nonzero" opacity="0.5" cx="203.5" cy="23.5" r="6.5"></circle>
                                        <path d="M76.9657323,35.3337386 L75.4054335,35.3337386 C75.9891834,35.3053188 76.4487727,34.7915824 76.4487727,34.1674772 C76.4487727,33.543372 75.9891834,33.0296357 75.4054335,33.0012158 L62.7665595,33.0012158 C62.3645598,32.9816445 61.9850006,33.1995531 61.7785236,33.5684567 C61.5720467,33.9373603 61.5720467,34.3975941 61.7785236,34.7664977 C61.9850006,35.1354014 62.3645598,35.3533099 62.7665595,35.3337386 L64.3268583,35.3337386 C63.7431084,35.3621584 63.2835191,35.8758948 63.2835191,36.5 C63.2835191,37.1241052 63.7431084,37.6378416 64.3268583,37.6662614 L62.1428935,37.6662614 C61.7408938,37.6466901 61.3613346,37.8645986 61.1548577,38.2335023 C60.9483808,38.6024059 60.9483808,39.0626397 61.1548577,39.4315433 C61.3613346,39.8004469 61.7408938,40.0183555 62.1428935,39.9987842 L74.7726961,39.9987842 C75.3564459,39.9703643 75.8160352,39.456628 75.8160352,38.8325228 C75.8160352,38.2084176 75.3564459,37.6946812 74.7726961,37.6662614 L76.9566608,37.6662614 C77.5404107,37.6378416 78,37.1241052 78,36.5 C78,35.8758948 77.5404107,35.3621584 76.9566608,35.3337386 L76.9657323,35.3337386 Z" id="Path" stroke="none" fill="#DEE3F3" fill-rule="nonzero" opacity="0.5"></path>
                                        <path d="M202.11614,22.6662863 L200.922936,22.6662863 C201.366926,22.6431259 201.715026,22.2769848 201.715026,21.8331432 C201.715026,21.3893016 201.366926,21.0231605 200.922936,21 L191.265728,21 C190.821738,21.0231605 190.473638,21.3893016 190.473638,21.8331432 C190.473638,22.2769848 190.821738,22.6431259 191.265728,22.6662863 L192.461209,22.6662863 C192.152648,22.6501905 191.860369,22.8053726 191.701245,23.0697805 C191.542122,23.3341883 191.542122,23.6646707 191.701245,23.9290786 C191.860369,24.1934865 192.152648,24.3486685 192.461209,24.3325727 L190.79209,24.3325727 C190.348099,24.3557331 190,24.7218742 190,25.1657159 C190,25.6095575 190.348099,25.9756986 190.79209,25.998859 L200.451575,25.998859 C200.760136,26.0149549 201.052414,25.8597728 201.211538,25.5953649 C201.370662,25.330957 201.370662,25.0004747 201.211538,24.7360668 C201.052414,24.4716589 200.760136,24.3164768 200.451575,24.3325727 L202.120694,24.3325727 C202.429255,24.3486685 202.721533,24.1934865 202.880657,23.9290786 C203.039781,23.6646707 203.039781,23.3341883 202.880657,23.0697805 C202.721533,22.8053726 202.429255,22.6501905 202.120694,22.6662863 L202.11614,22.6662863 Z" id="Path" stroke="none" fill="#DEE3F3" fill-rule="nonzero" opacity="0.5"></path>
                                        <path d="M106.965732,19.3337386 L105.405434,19.3337386 C105.807433,19.3533099 106.186992,19.1354014 106.393469,18.7664977 C106.599946,18.3975941 106.599946,17.9373603 106.393469,17.5684567 C106.186992,17.1995531 105.807433,16.9816445 105.405434,17.0012158 L92.7665595,17.0012158 C92.3645598,16.9816445 91.9850006,17.1995531 91.7785236,17.5684567 C91.5720467,17.9373603 91.5720467,18.3975941 91.7785236,18.7664977 C91.9850006,19.1354014 92.3645598,19.3533099 92.7665595,19.3337386 L94.3268583,19.3337386 C93.7431084,19.3621584 93.2835191,19.8758948 93.2835191,20.5 C93.2835191,21.1241052 93.7431084,21.6378416 94.3268583,21.6662614 L92.1428935,21.6662614 C91.7408938,21.6466901 91.3613346,21.8645986 91.1548577,22.2335023 C90.9483808,22.6024059 90.9483808,23.0626397 91.1548577,23.4315433 C91.3613346,23.8004469 91.7408938,24.0183555 92.1428935,23.9987842 L104.772696,23.9987842 C105.356446,23.9703643 105.816035,23.456628 105.816035,22.8325228 C105.816035,22.2084176 105.356446,21.6946812 104.772696,21.6662614 L106.956661,21.6662614 C107.540411,21.6378416 108,21.1241052 108,20.5 C108,19.8758948 107.540411,19.3621584 106.956661,19.3337386 L106.965732,19.3337386 Z" id="Path" stroke="none" fill="#DEE3F3" fill-rule="nonzero" opacity="0.5"></path>
                                        <polygon id="Path" stroke="none" fill="url(#linearGradient-3)" fill-rule="nonzero" points="144.904285 139.076581 149.239288 139.076581 149.239288 136.456367 149.239288 136 113.760712 136 113.760712 136.456367 113.760712 139.076581 118.095715 139.076581 118.095715 142.155387 111 142.155387 111 146 152 146 152 142.155387 144.904285 142.155387"></polygon>
                                        <path d="M173.571566,141.249661 L173.571566,141.249661 C173.879104,137.048486 173.770561,133.432314 173.345436,130.317572 C172.863778,126.733022 171.970563,123.817045 170.83765,121.445414 C168.576345,116.702153 165.353987,114.129498 162.525095,112.731365 C160.631175,111.771963 158.561481,111.207872 156.442186,111.073483 C156.250268,109.731408 155.100948,108.733633 153.74369,108.730798 C152.386432,108.727963 151.232944,109.720928 151.035408,111.062189 L151.035408,104.046679 L136.187684,104.046679 L136.187684,100.143653 L156.195704,100.143653 C157.444588,100.143653 158.457009,99.1324002 158.457009,97.8849568 L158.457009,77.4279475 C158.457009,76.1805041 157.444588,75.1692515 156.195704,75.1692515 L148.599983,75.1692515 L148.599983,55.0036139 C149.691282,54.5111445 150.392801,53.4260592 150.393197,52.2299352 C150.393197,52.2005722 150.393197,52.1712091 150.393197,52.1395874 C150.393197,52.1079657 150.393197,52.0808613 150.393197,52.0492396 C150.393197,50.3651911 149.02643,49 147.340437,49 C145.654443,49 144.287676,50.3651911 144.287676,52.0492396 C144.287676,52.0786026 144.287676,52.1079657 144.287676,52.1395874 C144.287676,52.1712091 144.287676,52.1983135 144.287676,52.2299352 C144.287342,53.3550361 144.908207,54.3886188 145.902247,54.9177834 L145.902247,75.1669928 L117.744486,75.1669928 L117.744486,54.9177834 C118.738526,54.3886188 119.359392,53.3550361 119.359057,52.2299352 C119.359057,52.2005722 119.359057,52.1712091 119.359057,52.1395874 C119.359057,52.1079657 119.359057,52.0808613 119.359057,52.0492396 C119.359057,50.3651911 117.99229,49 116.306296,49 C114.620303,49 113.253536,50.3651911 113.253536,52.0492396 C113.253536,52.0786026 113.253536,52.1079657 113.253536,52.1395874 C113.253536,52.1712091 113.253536,52.1983135 113.253536,52.2299352 C113.253932,53.4260592 113.955451,54.5111445 115.04675,55.0036139 L115.04675,75.1647341 L106.804296,75.1647341 C105.555412,75.1647341 104.542991,76.1759867 104.542991,77.4234301 L104.542991,97.8781808 C104.542991,99.1256241 105.555412,100.136877 106.804296,100.136877 L126.812316,100.136877 L126.812316,104.039903 L111.964592,104.039903 L111.964592,109.790543 C111.839763,109.424969 111.638587,109.090062 111.374392,108.808011 L111.308814,108.742508 C110.526911,107.96131 109.350832,107.727582 108.329108,108.150337 C107.307384,108.573092 106.641284,109.569051 106.641482,110.673693 L106.641482,111.064448 C106.641482,111.064448 103.832942,111.064448 100.474905,112.724589 C97.6460134,114.122722 94.4259161,116.695377 92.1623505,121.438638 C91.0316983,123.810269 90.1271766,126.728504 89.654564,130.310796 C89.2339614,133.423279 89.1231575,137.04171 89.4284336,141.242885 C83.1578367,146.437885 91.0113466,153.995482 91.0113466,153.995482 C97.4447573,153.995482 97.3022951,143.327661 97.2299334,141.507152 L97.2615916,141.507152 C97.2615916,141.507152 97.2435012,141.416804 97.2163656,141.249661 L97.2163656,141.249661 L97.2163656,141.249661 C96.7473083,138.269805 96.6175875,135.246478 96.8296825,132.237464 C97.0083256,129.94037 97.4492799,127.510013 98.3538016,125.323595 C99.0299882,123.600407 100.087512,122.052242 101.447266,120.79491 C102.915162,119.495692 104.715958,118.629961 106.648266,118.294534 L106.648266,120.04954 C106.648356,121.384873 107.61524,122.524289 108.934031,122.74318 C110.252821,122.962072 111.536669,122.196231 111.969115,120.932691 L111.969115,135.273151 L151.028624,135.273151 L151.028624,121.226321 C151.108004,121.769982 151.349984,122.277003 151.722844,122.680921 L151.797467,122.759976 C152.579942,123.54918 153.763023,123.78636 154.789781,123.359864 C155.816538,122.933369 156.482372,121.928184 156.473845,120.817497 L156.473845,118.314862 C158.361757,118.665562 160.117913,119.524664 161.552734,120.799427 C162.912488,122.05676 163.970012,123.604924 164.646198,125.328113 C165.55072,127.516789 165.989413,129.944887 166.170317,132.241981 C166.382413,135.250995 166.252692,138.274322 165.783634,141.254178 L165.783634,141.254178 L165.783634,141.254178 C165.756499,141.421322 165.738408,141.511669 165.738408,141.511669 L165.770067,141.511669 C165.697705,143.332178 165.555243,153.999999 171.988653,153.999999 C171.988653,154.002258 179.842163,146.449179 173.571566,141.249661 Z" id="Path" stroke="none" fill="url(#linearGradient-4)" fill-rule="nonzero"></path>
                                        <polygon id="Path" stroke="none" fill="url(#linearGradient-5)" fill-rule="nonzero" points="112.783593 146.359264 112.783593 149.929167 117.480624 149.929167 117.480624 155.427272 117.480624 155.427272 117.480624 160.143182 117.480624 167.214773 117.480624 171.14394 117.480624 173.501895 112 173.501895 112 179 126.870156 179 126.870156 173.501895 124.523905 173.501895 124.523905 171.14394 124.523905 171.14394 124.523905 167.214773 124.523905 167.214773 124.523905 160.143182 124.523905 160.143182 124.523905 155.427272 124.523905 155.427272 124.523905 149.929167 130 149.929167 130 146.359264 130 146 112.783593 146"></polygon>
                                        <polygon id="Path" stroke="none" fill="url(#linearGradient-6)" fill-rule="nonzero" points="132 146.359264 132 149.929167 138.954749 149.929167 138.954749 155.427272 138.954749 155.427272 138.954749 160.143182 138.954749 167.214773 138.954749 171.14394 138.954749 173.501895 133.545251 173.501895 133.545251 179 148.228493 179 148.228493 173.501895 145.909498 173.501895 145.909498 171.14394 145.909498 167.214773 145.909498 160.143182 145.909498 155.427272 145.909498 155.427272 145.909498 149.929167 149 149.929167 149 146.359264 149 146 132 146"></polygon>
                                        <rect id="Rectangle" stroke="none" fill="#FB515E" fill-rule="nonzero" x="105" y="77" width="53" height="24" rx="12"></rect>
                                        <rect id="Rectangle" stroke="none" fill="#000000" fill-rule="nonzero" opacity="0.1" x="110" y="96.7716203" width="44" height="1"></rect>
                                        <rect id="Rectangle" stroke="none" fill="#000000" fill-rule="nonzero" opacity="0.3" x="110" y="80" width="44" height="17"></rect>
                                        <circle id="Oval" stroke="none" fill="#000000" fill-rule="nonzero" opacity="0.1" cx="120" cy="89" r="6"></circle>
                                        <circle id="Oval" stroke="none" fill="#DEE3F3" fill-rule="nonzero" cx="120" cy="89" r="6"></circle>
                                        <circle id="Oval" stroke="none" fill="#000000" fill-rule="nonzero" opacity="0.1" cx="143" cy="89" r="6"></circle>
                                        <circle id="Oval" stroke="none" fill="#DEE3F3" fill-rule="nonzero" cx="143" cy="89" r="6"></circle>
                                        <rect id="Rectangle" stroke="none" fill="#FB515E" fill-rule="nonzero" x="127" y="101" width="9" height="5"></rect>
                                        <rect id="Rectangle" stroke="none" fill="#FB515E" fill-rule="nonzero" x="113" y="105" width="38" height="30"></rect>
                                        <polygon id="Path" stroke="none" fill="#FB515E" fill-rule="nonzero" points="149 135 149 138 144.842971 138 144.842971 141 119.152535 141 119.152535 138 115 138 115 135"></polygon>
                                        <polygon id="Path" stroke="none" fill="#000000" fill-rule="nonzero" opacity="0.3" points="149 135 149 138 144.842971 138 144.842971 141 119.152535 141 119.152535 138 115 138 115 135"></polygon>
                                        <rect id="Rectangle" stroke="none" fill="#FB515E" fill-rule="nonzero" x="112" y="141" width="40" height="4"></rect>
                                        <rect id="Rectangle" stroke="none" fill="#FB515E" fill-rule="nonzero" x="114" y="145" width="17" height="4"></rect>
                                        <rect id="Rectangle" stroke="none" fill="#FB515E" fill-rule="nonzero" x="132" y="145" width="17" height="4"></rect>
                                        <rect id="Rectangle" stroke="none" fill="#FB515E" fill-rule="nonzero" x="113" y="172" width="14" height="5"></rect>
                                        <polygon id="Path" stroke="none" fill="#FB515E" fill-rule="nonzero" points="118 154.366971 118 158.967883 118 165.866971 118 169.699544 118 172 125 172 125 169.699544 125 165.866971 125 158.967883 125 154.366971 125 149 118 149"></polygon>
                                        <polygon id="Path" stroke="none" fill="#FB515E" fill-rule="nonzero" points="139 149 139 154.366971 139 158.967883 139 165.866971 139 169.699544 139 172 146 172 146 169.699544 146 165.866971 146 158.967883 146 154.366971 146 149"></polygon>
                                        <rect id="Rectangle" stroke="none" fill="#FB515E" fill-rule="nonzero" x="134" y="172" width="14" height="5"></rect>
                                        <path d="M112,111.581687 L112,120.432848 C112,120.498656 112,120.566658 112,120.630272 C111.889865,122.007368 110.74763,123.050957 109.408377,122.998076 C108.069125,122.945196 107.007654,121.814595 107.000001,120.432848 L107.000001,111.581687 C106.999238,110.537705 107.608871,109.596171 108.54435,109.19655 C109.479829,108.796929 110.556705,109.018015 111.272341,109.756615 L111.331915,109.820229 C111.720307,110.248087 111.955268,110.799904 111.997872,111.384264 C111.995745,111.447878 112,111.515879 112,111.581687 Z" id="Path" stroke="none" fill="#FB515E" fill-rule="nonzero"></path>
                                        <path d="M155.999992,112.577938 L155.999992,121.417833 C156.002485,122.462159 155.393479,123.40468 154.458121,123.804094 C153.522762,124.203508 152.446196,123.980755 151.732487,123.240131 L151.664547,123.165662 C151.236225,122.689293 150.998772,122.063198 151.000005,121.413453 L151.000005,112.577938 C151.000005,111.154182 152.118815,110 153.498937,110 C154.879059,110 155.997869,111.154182 155.997869,112.577938 L155.999992,112.577938 Z" id="Path" stroke="none" fill="#FB515E" fill-rule="nonzero"></path>
                                        <path d="M107,111 L107,118.112365 C105.113955,118.442626 103.356104,119.293745 101.922455,120.570819 C100.590761,121.811082 99.5554111,123.338855 98.8941022,125.039488 C98.0103594,127.19378 97.5809831,129.588199 97.406052,131.852264 C97.1890963,134.907628 97.3309299,137.978088 97.8286128,141 L90.1929843,141 C89.8681123,136.74859 89.9658011,133.103217 90.3929056,129.970117 C90.8654467,126.439091 91.7378303,123.566702 92.8442127,121.229456 C95.0569774,116.55725 98.205737,114.02104 100.970557,112.644306 C104.255627,111 107,111 107,111 Z" id="Path" stroke="none" fill="#FB515E" fill-rule="nonzero"></path>
                                        <path d="M91.9146235,153 C91.9146235,153 84.2503931,145.893501 90.3699828,141 L97.9707038,141 C97.9707038,141 98.7781811,153 91.9146235,153 Z" id="Path" stroke="none" fill="#FB515E" fill-rule="nonzero"></path>
                                        <path d="M91.9146235,153 C91.9146235,153 84.2503931,145.893501 90.3699828,141 L97.9707038,141 C97.9707038,141 98.7781811,153 91.9146235,153 Z" id="Path" stroke="none" fill="#000000" fill-rule="nonzero" opacity="0.3"></path>
                                        <rect id="Rectangle" stroke="none" fill="#000000" fill-rule="nonzero" opacity="0.3" x="119" y="109" width="26" height="20"></rect>
                                        <rect id="Rectangle" stroke="none" fill="#000000" fill-rule="nonzero" opacity="0.3" x="118" y="149" width="7" height="5"></rect>
                                        <rect id="Rectangle" stroke="none" fill="#000000" fill-rule="nonzero" opacity="0.3" x="118" y="159" width="7" height="7"></rect>
                                        <rect id="Rectangle" stroke="none" fill="#000000" fill-rule="nonzero" opacity="0.3" x="118" y="169" width="7" height="2"></rect>
                                        <rect id="Rectangle" stroke="none" fill="#000000" fill-rule="nonzero" opacity="0.3" x="139" y="149" width="7" height="5"></rect>
                                        <rect id="Rectangle" stroke="none" fill="#000000" fill-rule="nonzero" opacity="0.3" x="139" y="159" width="7" height="7"></rect>
                                        <rect id="Rectangle" stroke="none" fill="#000000" fill-rule="nonzero" opacity="0.3" x="139" y="169" width="7" height="2"></rect>
                                        <path d="M107,112 L107,118.688172 C105.122458,118.998736 103.372532,119.799093 101.945345,121 L101,113.531183 C104.267998,112 107,112 107,112 Z" id="Path" stroke="none" fill="#000000" fill-rule="nonzero" opacity="0.3"></path>
                                        <path d="M99,124.951387 C98.1685814,127.180254 97.7646273,129.657561 97.6000534,132 L91,130.043235 C91.4445632,126.389976 92.2652952,123.418154 93.3061715,121 L99,124.951387 Z" id="Path" stroke="none" fill="#000000" fill-rule="nonzero" opacity="0.3"></path>
                                        <path d="M156,111 L156,118.113992 C157.888501,118.442716 159.64899,119.294126 161.084594,120.573008 C162.413263,121.812061 163.446564,123.337718 164.107191,125.035837 C164.99058,127.190621 165.419784,129.585589 165.594645,131.850172 C165.811514,134.906234 165.669737,137.977397 165.172254,141 L172.807093,141 C173.131835,136.747617 173.034185,133.101411 172.607252,129.967594 C172.1349,126.435761 171.262866,123.562714 170.156927,121.224933 C167.945049,116.551658 164.797551,114.014868 162.033839,112.637819 C158.743274,111 156,111 156,111 Z" id="Path" stroke="none" fill="#FB515E" fill-rule="nonzero"></path>
                                        <path d="M171.08618,153 C171.08618,153 178.748837,145.893501 172.630504,141 L165.029075,141 C165.029075,141 164.224031,153 171.08618,153 Z" id="Path" stroke="none" fill="#FB515E" fill-rule="nonzero"></path>
                                        <path d="M171.08618,153 C171.08618,153 178.748837,145.893501 172.630504,141 L165.029075,141 C165.029075,141 164.224031,153 171.08618,153 Z" id="Path" stroke="none" fill="#000000" fill-rule="nonzero" opacity="0.3"></path>
                                        <path d="M156,112 L156,118.688172 C157.87791,118.99722 159.628526,119.797667 161.056078,121 L162,113.531183 C158.727889,112 156,112 156,112 Z" id="Path" stroke="none" fill="#000000" fill-rule="nonzero" opacity="0.3"></path>
                                        <path d="M164,124.951387 C164.831419,127.180254 165.235373,129.657561 165.399947,132 L172,130.043235 C171.555437,126.389976 170.734705,123.418154 169.693828,121 L164,124.951387 Z" id="Path" stroke="none" fill="#000000" fill-rule="nonzero" opacity="0.3"></path>
                                        <rect id="Rectangle" stroke="none" fill="#000000" fill-rule="nonzero" opacity="0.1" x="127" y="101" width="9" height="1"></rect>
                                        <path d="M151,110 L151,123 C150.355468,122.497883 149.998153,121.837946 150.000007,121.153081 L150.000007,111.839993 C149.99994,111.157432 150.357176,110.500117 151,110 Z" id="Path" stroke="none" fill="#000000" fill-rule="nonzero" opacity="0.1"></path>
                                        <path d="M113,110.643148 L113,120.356852 C112.936026,120.97077 112.583209,121.5505 112,122 L112,109 C112.583209,109.4495 112.936026,110.02923 113,110.643148 L113,110.643148 Z" id="Path" stroke="none" fill="#000000" fill-rule="nonzero" opacity="0.1"></path>
                                        <rect id="Rectangle" stroke="none" fill="#000000" fill-rule="nonzero" opacity="0.1" x="115" y="134.775012" width="34" height="1"></rect>
                                        <rect id="Rectangle" stroke="none" fill="#000000" fill-rule="nonzero" opacity="0.1" x="114" y="144.825889" width="17" height="1"></rect>
                                        <rect id="Rectangle" stroke="none" fill="#000000" fill-rule="nonzero" opacity="0.1" x="132" y="144.825889" width="17" height="1"></rect>
                                        <rect id="Rectangle" stroke="none" fill="#FB515E" fill-rule="nonzero" x="115" y="54" width="3" height="23"></rect>
                                        <rect id="Rectangle" stroke="none" fill="#FB515E" fill-rule="nonzero" x="145" y="54" width="3" height="23"></rect>
                                        <circle id="Oval" stroke="none" fill="#000000" fill-rule="nonzero" opacity="0.1" cx="117" cy="54" r="3"></circle>
                                        <circle id="Oval" stroke="none" fill="#FB515E" fill-rule="nonzero" cx="117" cy="54" r="3"></circle>
                                        <circle id="Oval" stroke="none" fill="#000000" fill-rule="nonzero" opacity="0.1" cx="147" cy="54" r="3"></circle>
                                        <circle id="Oval" stroke="none" fill="#FB515E" fill-rule="nonzero" cx="147" cy="54" r="3"></circle>
                                        <path d="M53.4355095,123 C53.4355095,123 62.4770181,140.016431 55.1096013,149.326031 C47.7421845,158.63563 55.7782962,184 55.7782962,184" id="Path" stroke="#FC6681" stroke-width="2" fill="none"></path>
                                        <path d="M57,117.99886 C57,121.309519 54.5082044,124 54.5082044,124 C54.5082044,124 52,121.309519 52,117.99886 C52,114.688201 54.5082044,112 54.5082044,112 C54.5082044,112 57,114.697321 57,117.99886 Z" id="Path" stroke="none" fill="#FC6681" fill-rule="nonzero"></path>
                                        <path d="M58.5644905,123 C58.5644905,123 49.5229819,140.016431 56.8903987,149.326031 C64.2578155,158.63563 56.2217038,184 56.2217038,184" id="Path" stroke="#FFD037" stroke-width="2" fill="none"></path>
                                        <path d="M56,118 C56,121.313569 58.5,124 58.5,124 C58.5,124 61,121.313569 61,118 C61,114.686431 58.5,112 58.5,112 C58.5,112 56,114.697834 56,118 Z" id="Path" stroke="none" fill="#FFD037" fill-rule="nonzero"></path>
                                        <path d="M61.4355095,123 C61.4355095,123 70.4770181,140.016431 63.1096013,149.326031 C55.7421845,158.63563 63.7782962,184 63.7782962,184" id="Path" stroke="#FC6681" stroke-width="2" fill="none"></path>
                                        <path d="M65,118 C65,121.313569 62.4988279,124 62.4988279,124 C62.4988279,124 60,121.311288 60,118 C60,114.688712 62.5011721,112 62.5011721,112 C62.5011721,112 65,114.697834 65,118 Z" id="Path" stroke="none" fill="#FC6681" fill-rule="nonzero"></path>
                                        <path d="M62.6864035,131.25468 C60.4780702,133.738993 57,134 57,134 C57,134 57.1052632,130.232006 59.3135965,127.74532 C61.5219298,125.258634 65,125 65,125 C65,125 64.8947368,128.770366 62.6864035,131.25468 Z" id="Path" stroke="none" fill="#FC6681" fill-rule="nonzero"></path>
                                        <path d="M63.6864035,143.25468 C61.4780702,145.738993 58,146 58,146 C58,146 58.1052632,142.232006 60.3135965,139.74532 C62.5219298,137.258634 66,137 66,137 C66,137 65.8947368,140.770366 63.6864035,143.25468 Z" id="Path" stroke="none" fill="#FC6681" fill-rule="nonzero"></path>
                                        <path d="M50.8681968,149.915429 C53.078507,152.407249 52.9996502,156 52.9996502,156 C52.9996502,156 49.3397661,155.569595 47.1317751,153.084571 C44.9237842,150.599547 45.0003217,147 45.0003217,147 C45.0003217,147 48.6578865,147.430405 50.8681968,149.915429 Z" id="Path" stroke="none" fill="#FC6681" fill-rule="nonzero"></path>
                                        <path d="M53.3486992,124.405674 C56.1122775,126.289272 57,129.922263 57,129.922263 C57,129.922263 53.4148791,130.482634 50.6513008,128.594326 C47.8877225,126.706019 47,123.077737 47,123.077737 C47,123.077737 50.5828389,122.517366 53.3486992,124.405674 Z" id="Path" stroke="none" fill="#FC6681" fill-rule="nonzero"></path>
                                        <path d="M66.5644905,123 C66.5644905,123 57.5229819,140.016431 64.8903987,149.326031 C72.2578155,158.63563 64.2217038,184 64.2217038,184" id="Path" stroke="#FFD037" stroke-width="2" fill="none"></path>
                                        <path d="M64,117.99886 C64,121.309519 66.4976548,124 66.4976548,124 C66.4976548,124 69,121.314079 69,118.00114 C69,114.688201 66.4976548,112 66.4976548,112 C66.4976548,112 64,114.697321 64,117.99886 Z" id="Path" stroke="none" fill="#FFD037" fill-rule="nonzero"></path>
                                        <path d="M64.3540877,131.401281 C62.1451002,133.610459 62,137 62,137 C62,137 65.4369247,136.807898 67.6459123,134.598719 C69.8548998,132.389541 70,129 70,129 C70,129 66.5630753,129.192102 64.3540877,131.401281 Z" id="Path" stroke="none" fill="#FFD037" fill-rule="nonzero"></path>
                                        <path d="M69.3540877,148.401281 C67.1451002,150.610459 67,154 67,154 C67,154 70.4369247,153.807898 72.6459123,151.598719 C74.8548998,149.389541 75,146 75,146 C75,146 71.5630753,146.192102 69.3540877,148.401281 Z" id="Path" stroke="none" fill="#FFD037" fill-rule="nonzero"></path>
                                        <path d="M62,144 C62,144 67.4096472,136.167652 75,136" id="Path" stroke="#FFD037" stroke-width="2" fill="none"></path>
                                        <path d="M59,139 C59,139 53.5889869,131.159268 46,131" id="Path" stroke="#FC6681" stroke-width="2" fill="none"></path>
                                        <path d="M57,151 C57,151 62.4096472,143.167652 70,143" id="Path" stroke="#FFD037" stroke-width="2" fill="none"></path>
                                        <circle id="Oval" stroke="none" fill="#FFD037" fill-rule="nonzero" cx="74.5" cy="135.5" r="1.5"></circle>
                                        <circle id="Oval" stroke="none" fill="#FC6681" fill-rule="nonzero" cx="45.5" cy="131.5" r="1.5"></circle>
                                        <path d="M62,154 C62,154 56.5889869,146.159268 49,146" id="Path" stroke="#FC6681" stroke-width="2" fill="none"></path>
                                        <circle id="Oval" stroke="none" fill="#FC6681" fill-rule="nonzero" cx="49.5" cy="145.5" r="1.5"></circle>
                                        <circle id="Oval" stroke="none" fill="#FFD037" fill-rule="nonzero" cx="70.5" cy="142.5" r="1.5"></circle>
                                        <path d="M91,174.368544 C91,174.368544 78.2654676,171.850714 74.8680681,168.492101 C71.4706686,165.133487 56.1892298,159.259304 54.49053,163.456441 C52.7918303,167.653577 31.5683717,181.922035 46.0016039,184.446645 C60.434836,186.971256 79.9618811,187.802998 84.2074873,186.125952 C88.4530935,184.448905 91,174.368544 91,174.368544 Z" id="Path" stroke="none" fill="#A8A8A8" fill-rule="nonzero"></path>
                                        <path d="M45.9977698,182.792411 C60.4322317,185.366589 79.9609406,186.223878 84.2069086,184.5093 C87.4399719,183.201414 89.6944277,176.923101 90.5747173,174 L91,174.090119 C91,174.090119 88.4528765,184.38683 84.2069086,186.10603 C79.9609406,187.825229 60.4276588,186.963319 45.9977698,184.389141 C41.8318282,183.645079 40.6405792,181.900461 41.0887266,179.691382 C41.438556,181.130981 42.8973215,182.240142 45.9977698,182.792411 Z" id="Path" stroke="none" fill="#000000" fill-rule="nonzero" opacity="0.2"></path>
                                        <path d="M227.260373,126 C227.260373,126 230.263825,130.009282 225.874511,136.065711 C221.485197,142.12214 217.867557,147.231964 219.329911,151 C219.329911,151 225.951003,139.755629 231.341468,139.599393 C236.731932,139.443158 233.190784,132.761787 227.260373,126 Z" id="Path" stroke="none" fill="#FC6681" fill-rule="nonzero"></path>
                                        <path d="M227.173363,126 C227.43841,126.387066 227.647624,126.810183 227.79473,127.256662 C233.113902,133.565245 235.949884,139.453409 230.835557,139.600441 C226.071746,139.738283 220.365641,148.330454 219,150.506065 C219.044712,150.673619 219.098663,150.838521 219.161601,151 C219.161601,151 225.860071,139.756662 231.313532,139.600441 C236.766993,139.44422 233.17308,132.761165 227.173363,126 Z" id="Path" stroke="none" fill="#000000" fill-rule="nonzero" opacity="0.1"></path>
                                        <path d="M233,130.783318 C233,132.007277 232.775974,133 232.5,133 C232.224026,133 232,132.00329 232,130.783318 C232,129.563345 232.279221,130.135456 232.555195,130.135456 C232.831169,130.135456 233,129.559358 233,130.783318 Z" id="Path" stroke="none" fill="#FFD037" fill-rule="nonzero"></path>
                                        <path d="M234.290175,133.003145 C233.117603,133.707692 232.092962,134.134254 232.005943,133.961712 C231.918925,133.78917 232.79781,133.065452 233.963856,132.360905 C235.129903,131.656358 234.675232,132.169191 234.76225,132.348923 C234.849268,132.528654 235.462748,132.298598 234.290175,133.003145 Z" id="Path" stroke="none" fill="#FFD037" fill-rule="nonzero"></path>
                                        <path d="M210.739627,126 C210.739627,126 207.736175,130.009282 212.125489,136.065711 C216.514803,142.12214 220.132443,147.231964 218.670089,151 C218.670089,151 212.048997,139.755629 206.658532,139.599393 C201.268068,139.443158 204.809216,132.761787 210.739627,126 Z" id="Path" stroke="none" fill="#FC6681" fill-rule="nonzero"></path>
                                        <path d="M210.826637,126 C210.56159,126.387066 210.352376,126.810183 210.20527,127.256662 C204.886098,133.565245 202.050116,139.453409 207.164443,139.600441 C211.928254,139.738283 217.634359,148.330454 219,150.506065 C218.955288,150.673619 218.901337,150.838521 218.838399,151 C218.838399,151 212.139929,139.756662 206.686468,139.600441 C201.233007,139.44422 204.82692,132.761165 210.826637,126 Z" id="Path" stroke="none" fill="#000000" fill-rule="nonzero" opacity="0.1"></path>
                                        <path d="M205,130.783318 C205,132.007277 205.224026,133 205.5,133 C205.775974,133 206,132.00329 206,130.783318 C206,129.563345 205.720779,130.135456 205.444805,130.135456 C205.168831,130.135456 205,129.559358 205,130.783318 Z" id="Path" stroke="none" fill="#FFD037" fill-rule="nonzero"></path>
                                        <path d="M203.709825,133.003145 C204.882397,133.707692 205.907038,134.134254 205.994057,133.961712 C206.081075,133.78917 205.20219,133.065452 204.036144,132.360905 C202.870097,131.656358 203.324768,132.169191 203.23775,132.348923 C203.150732,132.528654 202.537252,132.298598 203.709825,133.003145 Z" id="Path" stroke="none" fill="#FFD037" fill-rule="nonzero"></path>
                                        <path d="M206,150.576372 C206,150.576372 214.600942,150.315414 217.191365,148.497784 C219.781789,146.680154 230.420039,144.510798 231.063035,147.424452 C231.706032,150.338106 243.987495,161.920108 234.278018,161.997261 C224.56854,162.074414 211.717829,160.508665 209.129711,158.956531 C206.541592,157.404398 206,150.576372 206,150.576372 Z" id="Path" stroke="none" fill="#A8A8A8" fill-rule="nonzero"></path>
                                        <path d="M234.453377,160.031573 C224.743829,160.105865 211.893025,158.598179 209.304888,157.103604 C207.3344,155.965192 206.539291,151.883515 206.288083,150 L206,150 C206,150 206.543901,156.577006 209.132038,158.069396 C211.720175,159.561787 224.573284,161.071658 234.280528,160.997366 C237.082998,160.975515 238.050957,160.031573 237.99795,158.630955 C237.608462,159.487495 236.539098,160.014093 234.453377,160.031573 Z" id="Path" stroke="none" fill="#000000" fill-rule="nonzero" opacity="0.2"></path>
                                    </g>
                                </g>
                            </g>
                        </g>
                    </g>
                </g>
            </g>
        </g>
    </g>
</svg>