<?xml version="1.0" encoding="UTF-8"?>
<svg width="360px" height="200px" viewBox="0 0 360 200" version="1.1" xmlns="http://www.w3.org/2000/svg" xmlns:xlink="http://www.w3.org/1999/xlink">
    <!-- Generator: Sketch 54.1 (76490) - https://sketchapp.com -->
    <title>mobile@JPG</title>
    <desc>Created with Sketch.</desc>
    <defs>
        <rect id="path-1" x="0" y="0" width="360" height="200"></rect>
    </defs>
    <g id="Page-1" stroke="none" stroke-width="1" fill="none" fill-rule="evenodd">
        <g id="Desktop-HD" transform="translate(-150.000000, -4441.000000)">
            <g id="Portfolio" transform="translate(0.000000, 3920.000000)">
                <g id="Works" transform="translate(150.000000, 239.000000)">
                    <g id="Project-4" transform="translate(0.000000, 282.000000)">
                        <g id="Content/Projects/Dark/Case-(Var-3)">
                            <g id="mobile">
                                <mask id="mask-2" fill="white">
                                    <use xlink:href="#path-1"></use>
                                </mask>
                                <g id="Path"></g>
                                <g mask="url(#mask-2)">
                                    <g transform="translate(78.000000, 6.000000)">
                                        <path d="M178,107.287032 L130.287627,47.287719 C128.121166,49.2815033 125.451903,50.6378292 122.571395,51.2085477 C113.589048,52.9887231 104.816968,46.8160507 102.978401,37.4214979 C101.678744,30.7806089 104.194699,24.3110471 108.952252,20.4580559 L92.683698,0 L0,79.7129676 L85.3162871,187 L178,107.287032 Z" id="Path" stroke="none" fill="#F2F2F2" fill-rule="nonzero"></path>
                                        <path d="M77.2897777,59.233083 L37.2002025,67.3929941 C34.9059503,67.8599717 32.9465475,69.3348675 31.8691999,71.4057848 C30.7918524,73.4767021 30.7120167,75.9217057 31.6519887,78.0579753 L77.3547324,181.926435 C79.4300838,186.643076 84.7243493,189.062265 89.6673365,187.55262 L135.859285,173.38814 C138.34001,172.627441 140.350221,170.80327 141.341079,168.413676 C142.331936,166.024081 142.199956,163.31863 140.981171,161.035981 L89.4510521,64.5257467 C86.9260629,60.3806036 82.0588768,58.2623734 77.2897777,59.233083 Z" id="Path" stroke="none" fill="#3F3D56" fill-rule="nonzero"></path>
                                        <path d="M38.7650694,68.5284224 L45.2588818,67.2295292 L45.2588818,67.2295292 C46.1567711,69.1211994 48.1878288,70.1735554 50.225022,69.8026454 L73.6916163,65.5301069 C74.1619501,65.4444739 74.5723897,65.1557499 74.816315,64.738937 C75.0602403,64.3221241 75.1135757,63.8183619 74.9624663,63.3585132 L74.3241122,61.4159198 L80.787382,60.1231336 C83.5348529,59.5735843 86.3156553,60.8987456 87.652683,63.3947187 L140.225691,161.538382 C141.141181,163.247428 141.250537,165.283476 140.523508,167.083298 C139.796479,168.88312 138.310138,170.255918 136.475646,170.821937 L91.6699329,184.64636 C87.8069189,185.838258 83.6724455,183.933179 82.0158182,180.197948 L35.4109959,75.1170946 C34.8268956,73.8001114 34.8671711,72.2847396 35.5203776,71.0015943 C36.1735841,69.7184491 37.3683148,68.8078004 38.7650694,68.5284224 Z" id="Path" stroke="none" fill="#FB515E" fill-rule="nonzero"></path>
                                        <path d="M66,64 L57,66" id="Path" stroke="#2F2E41" stroke-width="2" fill="none"></path>
                                        <circle id="Oval" stroke="none" fill="#2F2E41" fill-rule="nonzero" cx="53" cy="66" r="1"></circle>
                                        <polygon id="Path" stroke="none" fill="#FFFFFF" fill-rule="nonzero" points="60 75.6285714 102.686131 167 162 150.904762 162 148.92381 115.839416 63 60.9927007 74.8857143 60.7321168 75.0813333"></polygon>
                                        <polygon id="Path" stroke="none" fill="#000000" fill-rule="nonzero" opacity="0.2" points="60 74.5536758 102.686131 167 162 150.715417 162 148.711161 102.934307 165.496808 60.7321168 74"></polygon>
                                        <path d="M137,114 L93,125" id="Path" stroke="#3F3D56" stroke-width="2" fill="#3F3D56" fill-rule="nonzero"></path>
                                        <path d="M139,119 L95,130" id="Path" stroke="#3F3D56" stroke-width="2" fill="#3F3D56" fill-rule="nonzero"></path>
                                        <path d="M132,125 L105,132" id="Path" stroke="#3F3D56" stroke-width="2" fill="#3F3D56" fill-rule="nonzero"></path>
                                        <polygon id="Path" stroke="none" fill="#FB515E" fill-rule="nonzero" points="107 146.5 111.10513 155.560946 111.305195 156 112.004156 155.82027 146 147.013514 146 145.72973 141.441558 137 107.75974 146.243243 107.458377 146.345946"></polygon>
                                        <polygon id="Path" stroke="none" fill="#000000" fill-rule="nonzero" opacity="0.2" points="107 145.75 111.10513 154.5725 111.305195 155 112.004156 154.825 146 146.25 146 145 111.811688 154 107.458377 145.6"></polygon>
                                        <path d="M111.008736,95.0264263 C108.12416,87.7064857 100.158952,83.5116316 93.7644775,85.4880349 C87.9029786,87.2997067 85.4951754,93.7288637 87.958638,99.9802011 C90.4221006,106.231538 97.1253765,110.702602 103.387929,109.908654 C110.219923,109.042503 113.893311,102.34636 111.008736,95.0264263 Z" id="Path" stroke="#3F3D56" stroke-width="2" fill="#3F3D56" fill-rule="nonzero"></path>
                                        <path d="M111.008736,95.0264263 C108.12416,87.7064857 100.158952,83.5116316 93.7644775,85.4880349 C87.9029786,87.2997067 85.4951754,93.7288637 87.958638,99.9802011 C90.4221006,106.231538 97.1253765,110.702602 103.387929,109.908654 C110.219923,109.042503 113.893311,102.34636 111.008736,95.0264263 Z" id="Path" stroke="none" fill="#000000" fill-rule="nonzero" opacity="0.2"></path>
                                        <path d="M113.008736,94.0264263 C110.12416,86.7064857 102.158952,82.5116316 95.7644775,84.4880349 C89.9029786,86.2997067 87.4951754,92.7288637 89.958638,98.9802011 C92.4221006,105.231538 99.1253765,109.702602 105.387929,108.908654 C112.219923,108.042503 115.893311,101.34636 113.008736,94.0264263 Z" id="Path" stroke="#3F3D56" stroke-width="2" fill="#3F3D56" fill-rule="nonzero"></path>
                                        <circle id="Oval" stroke="#3F3D56" stroke-width="2" fill="none" cx="153.5" cy="14.5" r="3.5"></circle>
                                        <circle id="Oval" stroke="#3F3D56" stroke-width="2" fill="none" cx="201.5" cy="121.5" r="3.5"></circle>
                                        <circle id="Oval" stroke="#3F3D56" stroke-width="2" fill="none" cx="42.5" cy="23.5" r="3.5"></circle>
                                        <circle id="Oval" stroke="none" fill="#F2F2F2" fill-rule="nonzero" cx="118.5" cy="34.5" r="13.5"></circle>
                                        <circle id="Oval" stroke="none" fill="#2F2E41" fill-rule="nonzero" cx="172.5" cy="58.5" r="9.5"></circle>
                                        <polygon id="Path" stroke="none" fill="#9F616A" fill-rule="nonzero" points="181.25 172.941176 183 180 178.75 180 177 172"></polygon>
                                        <polygon id="Path" stroke="none" fill="#9F616A" fill-rule="nonzero" points="162 173 162 179.533333 158 180 158 173"></polygon>
                                        <path d="M183,94.2466048 C183,94.2466048 182.515152,104.881344 182.030303,105.623302 C181.545455,106.365261 177.181818,117 177.181818,117 L175,110.075054 C175,110.075054 178.393939,104.386705 177.909091,101.171551 C177.424242,97.9563975 177.729697,94 177.729697,94 L183,94.2466048 Z" id="Path" stroke="none" fill="#9F616A" fill-rule="nonzero"></path>
                                        <circle id="Oval" stroke="none" fill="#9F616A" fill-rule="nonzero" cx="168" cy="61" r="7"></circle>
                                        <path d="M174.351569,61 C174.351569,61 174.105935,71.6224066 175.825376,73.2157676 C177.544817,74.8091286 166,73.4813278 166,73.4813278 C166,73.4813278 168.456344,66.0456432 166.491269,64.4522822 C164.526194,62.8589212 174.351569,61 174.351569,61 Z" id="Path" stroke="none" fill="#9F616A" fill-rule="nonzero"></path>
                                        <path d="M164.866263,73.4894394 C164.866263,73.4894394 166.3563,70.7685439 168.343017,71.015898 C170.329734,71.2632521 176.786565,71.7579604 177.034904,72.2526687 C177.283244,72.747377 178.028263,74.478856 178.524942,74.9735643 C179.021621,75.4682726 182.746716,76.210335 182.995055,79.1785847 C183.243395,82.1468345 174.054829,100.203687 174.054829,100.203687 C174.054829,100.203687 175.296527,104.408707 175.048187,105.398124 C174.799848,106.387541 176.289885,109.35579 176.041546,110.592561 C175.793206,111.829332 179.76664,119.249956 177.779923,128.896768 L177.779923,144.480079 C177.779923,144.480079 184.485093,171.44168 182.498376,173.420514 C180.511659,175.399347 173.806489,174.162576 172.564791,173.420514 C171.323093,172.678451 166.107961,135.327975 166.107961,135.327975 L163.624565,122.712914 L163.376225,150.416578 C163.376225,150.416578 163.872904,173.667868 162.134527,174.40993 C160.396149,175.151993 153.69098,175.399347 153.1943,173.915222 C152.80693,172.757726 150.90898,141.959864 150.092335,128.459831 C149.809423,123.800004 150.177402,119.123617 151.185734,114.564591 C152.219346,109.895119 153.719911,104.409078 155.429362,102.18252 C158.657777,97.9774997 160.644494,84.6203759 160.644494,84.6203759 L156.42272,76.9523975 C156.42272,76.9523975 158.906117,74.478856 160.396154,74.478856 C161.886192,74.478856 164.866263,73.4894394 164.866263,73.4894394 Z" id="Path" stroke="none" fill="#2F2E41" fill-rule="nonzero"></path>
                                        <path d="M181.388051,77 L182.573985,77.9188144 C182.573985,77.9188144 183.411995,94.4067819 182.737347,95.4307102 C182.062699,96.4546386 177.372258,95.9549001 177.018886,95.05285 C176.665515,94.1507998 181.388051,77 181.388051,77 Z" id="Path" stroke="none" fill="#2F2E41" fill-rule="nonzero"></path>
                                        <path d="M160.442974,92.3794286 C161.17049,97.3891853 161.808046,101.848832 158.088071,105.883411 C154.34957,109.966535 150.133127,113.591813 145.528334,116.682215 C145.072087,117.881887 138.373984,126.691616 138.033255,123.177515 C137.692526,119.663414 140.006697,116.908494 143.295274,113.93685 C146.583851,110.965206 151.184601,104.517523 153.780507,100.979674 C156.376414,97.441825 155.307714,95.2356583 155.217545,92.280571 C155.127376,89.3254836 159.422272,92.4151911 160.442974,92.3794286 Z" id="Path" stroke="none" fill="#9F616A" fill-rule="nonzero"></path>
                                        <path d="M157.274869,177 C157.274869,177 157.042376,179.563064 156.344898,180.24955 C155.647421,180.936036 153.78748,181.851352 154.019972,184.368469 C154.252465,186.885586 155.763667,187 155.763667,187 L155.647421,186.427928 L156.344898,186.656757 L156.461145,187 L162.970938,187 C162.970938,187 163.087185,184.597297 162.854692,183.453153 C162.622199,182.309009 162.622199,176.817118 161.924722,177.045947 C161.227244,177.274775 159.367303,177.503604 158.902317,178.418919 C158.437332,179.334235 157.042376,179.013513 157.274869,177 Z" id="Path" stroke="none" fill="#2F2E41" fill-rule="nonzero"></path>
                                        <path d="M182.725131,177 C182.725131,177 182.957624,179.563064 183.655102,180.24955 C184.352579,180.936036 186.21252,181.851352 185.980028,184.368469 C185.747535,186.885586 184.236333,187 184.236333,187 L184.352579,186.427928 L183.655102,186.656757 L183.538855,187 L177.029062,187 C177.029062,187 176.912815,184.597297 177.145308,183.453153 C177.377801,182.309009 177.377801,176.817118 178.075278,177.045947 C178.772756,177.274775 180.632697,177.503604 181.097683,178.418919 C181.562668,179.334235 182.957624,179.013513 182.725131,177 Z" id="Path" stroke="none" fill="#2F2E41" fill-rule="nonzero"></path>
                                        <path d="M160.635452,76 L157.159694,76.7655293 C157.159694,76.7655293 157.159694,82.3794105 156.16662,84.6759983 C155.173547,86.9725861 153.435667,92.3312909 154.180473,92.5864673 C154.925278,92.8416438 161.876795,96.4141136 162.373332,94.3727023 C162.869869,92.3312909 164.111211,76 160.635452,76 Z" id="Path" stroke="none" fill="#2F2E41" fill-rule="nonzero"></path>
                                        <circle id="Oval" stroke="none" fill="#2F2E41" fill-rule="nonzero" cx="181.5" cy="46.5" r="9.5"></circle>
                                        <path d="M189.951914,54.0029054 C187.579144,55.6273036 184.522508,56.0620364 181.750716,55.1693281 C178.978925,54.2766199 176.835598,52.16714 176,49.5094256 C176.424861,52.7097559 178.713324,55.4119795 181.919419,56.4990907 C185.125513,57.5862019 188.704577,56.8735192 191.177151,54.6556409 C193.649724,52.4377626 194.595759,49.0914682 193.624197,46 C194.036433,49.1028924 192.628309,52.1715791 189.951914,54.0029054 Z" id="Path" stroke="none" fill="#2F2E41" fill-rule="nonzero"></path>
                                        <circle id="Oval" stroke="none" fill="#2F2E41" fill-rule="nonzero" cx="175" cy="60" r="7"></circle>
                                        <ellipse id="Oval" stroke="none" fill="#2F2E41" fill-rule="nonzero" cx="168.5" cy="57.5" rx="5.5" ry="4.5"></ellipse>
                                        <ellipse id="Oval" stroke="none" fill="#A0616A" fill-rule="nonzero" cx="167" cy="63" rx="1" ry="2"></ellipse>
                                    </g>
                                </g>
                            </g>
                        </g>
                    </g>
                </g>
            </g>
        </g>
    </g>
</svg>