<?xml version="1.0" encoding="UTF-8"?>
<svg width="360px" height="200px" viewBox="0 0 360 200" version="1.1" xmlns="http://www.w3.org/2000/svg" xmlns:xlink="http://www.w3.org/1999/xlink">
    <!-- Generator: Sketch 54.1 (76490) - https://sketchapp.com -->
    <title>watch@JPG</title>
    <desc>Created with Sketch.</desc>
    <defs>
        <rect id="path-1" x="0" y="0" width="360" height="200"></rect>
        <linearGradient x1="50.0382974%" y1="99.9706047%" x2="50.03503%" y2="-0.0248627156%" id="linearGradient-3">
            <stop stop-color="#808080" stop-opacity="0.25" offset="0%"></stop>
            <stop stop-color="#808080" stop-opacity="0.12" offset="54%"></stop>
            <stop stop-color="#808080" stop-opacity="0.1" offset="100%"></stop>
        </linearGradient>
        <linearGradient x1="239.580811%" y1="61.9598986%" x2="193.45156%" y2="-26.493345%" id="linearGradient-4">
            <stop stop-color="#808080" stop-opacity="0.25" offset="0%"></stop>
            <stop stop-color="#808080" stop-opacity="0.12" offset="54%"></stop>
            <stop stop-color="#808080" stop-opacity="0.1" offset="100%"></stop>
        </linearGradient>
        <linearGradient x1="-9.29670057%" y1="81.1624176%" x2="109.290499%" y2="18.8252335%" id="linearGradient-5">
            <stop stop-color="#808080" stop-opacity="0.25" offset="0%"></stop>
            <stop stop-color="#808080" stop-opacity="0.12" offset="54%"></stop>
            <stop stop-color="#808080" stop-opacity="0.1" offset="100%"></stop>
        </linearGradient>
        <linearGradient x1="26.6435449%" y1="65.4019541%" x2="65.263659%" y2="29.2707133%" id="linearGradient-6">
            <stop stop-color="#000000" stop-opacity="0.12" offset="0%"></stop>
            <stop stop-color="#000000" stop-opacity="0.09" offset="55%"></stop>
            <stop stop-color="#000000" stop-opacity="0.02" offset="100%"></stop>
        </linearGradient>
    </defs>
    <g id="Page-1" stroke="none" stroke-width="1" fill="none" fill-rule="evenodd">
        <g id="Desktop-HD" transform="translate(-540.000000, -4441.000000)">
            <g id="Portfolio" transform="translate(0.000000, 3920.000000)">
                <g id="Works" transform="translate(150.000000, 239.000000)">
                    <g id="Project-5" transform="translate(390.000000, 282.000000)">
                        <g id="Content/Projects/Dark/Case-(Var-3)">
                            <g id="watch">
                                <mask id="mask-2" fill="white">
                                    <use xlink:href="#path-1"></use>
                                </mask>
                                <g id="Path"></g>
                                <g mask="url(#mask-2)">
                                    <g transform="translate(58.000000, 2.000000)">
                                        <g id="Group" opacity="0.3" stroke="none" stroke-width="1" fill="none" fill-rule="evenodd" transform="translate(172.000000, 7.000000)">
                                            <path d="M0.184974093,0.0867605634 C0.650051813,0.337402191 1.11248705,0.592425665 1.57227979,0.851830986" id="Path" stroke="#2196F3" stroke-width="4"></path>
                                            <path d="M4.27290155,2.41615023 C32.2092746,19.3292019 50.8678756,49.9030986 50.8678756,84.8123944 C50.8737763,92.9210952 49.8527822,100.998227 47.8290155,108.852958" id="Path" stroke="#2196F3" stroke-width="4" stroke-dasharray="11.85"></path>
                                            <path d="M47.4326425,110.359437 C47.2934715,110.865978 47.1498964,111.371643 47.0019171,111.876432" id="Path" stroke="#2196F3" stroke-width="4"></path>
                                        </g>
                                        <path d="M32,93 C32,50.5745223 58.7021434,14.4697163 96,1" id="Path" stroke="#2196F3" stroke-width="4" fill="none" opacity="0.21" stroke-dasharray="12"></path>
                                        <path d="M174,177.469837 C159.886683,185.060579 144.076629,189.024839 128.016478,188.999883 C96.5544832,188.999883 68.6090306,174.083554 51,151" id="Path" stroke="#2196F3" stroke-width="4" fill="none" opacity="0.5" stroke-dasharray="12"></path>
                                        <g id="Group" opacity="0.21" stroke="none" stroke-width="1" fill="none" fill-rule="evenodd" transform="translate(63.000000, 26.000000)">
                                            <path d="M126.790515,83.8161818 C126.643876,84.324303 126.491127,84.8306599 126.332268,85.3352525" id="Path" stroke="#2196F3" stroke-width="4"></path>
                                            <path d="M125.313649,88.3257576 C116.148701,113.184 92.4638557,130.891495 64.6783505,130.891495 C28.9586186,130.891495 0,101.624242 0,65.5238182 C0,29.4233939 28.9586186,0.156141414 64.6783505,0.156141414 C78.8539436,0.135268044 92.6402441,4.84231517 103.899093,13.5472525" id="Path" stroke="#2196F3" stroke-width="4" stroke-dasharray="11.95"></path>
                                            <path d="M105.135052,14.5158586 C105.543546,14.8475488 105.947677,15.1836498 106.347443,15.5241616" id="Path" stroke="#2196F3" stroke-width="4"></path>
                                        </g>
                                        <g id="Group" opacity="0.5" stroke="none" stroke-width="1" fill="none" fill-rule="evenodd" transform="translate(122.000000, 55.000000)">
                                            <path d="M0.00529503106,0.57 C0.534798137,0.493652968 1.06430124,0.427716895 1.59380435,0.372191781" id="Path" stroke="#2196F3" stroke-width="4"></path>
                                            <path d="M4.63315217,0.166575342 C4.94202899,0.166575342 5.2509058,0.166575342 5.55978261,0.166575342 C18.7046372,0.166533177 30.8662469,7.01078507 37.5221953,18.1542274 C44.1781438,29.2976697 44.3326684,43.0731885 37.9283075,54.3582192" id="Path" stroke="#2196F3" stroke-width="4" stroke-dasharray="11.56"></path>
                                            <path d="M37.1552329,55.6543836 C36.8781263,56.0985845 36.5913121,56.5323744 36.2947904,56.9557534" id="Path" stroke="#2196F3" stroke-width="4"></path>
                                        </g>
                                        <path d="M218.17094,141 L192,127.016497 L205.651581,104.392182 C205.874818,104.022875 206.343303,103.892842 206.721479,104.095219 L228.571279,115.771353 C228.944122,115.97283 229.101279,116.430507 228.93224,116.822546 L218.17094,141 Z" id="Path" stroke="none" fill="url(#linearGradient-3)" fill-rule="nonzero"></path>
                                        <path d="M218.472259,139 L193,126.145058 L206.262639,105.385139 C206.494748,105.022465 206.981853,104.894766 207.375059,105.09351 L228.55424,115.783164 C228.941901,115.981024 229.105305,116.430482 228.929547,116.815482 L218.472259,139 Z" id="Path" stroke="none" fill="#3F3D56" fill-rule="nonzero"></path>
                                        <path d="M201,173.984849 L174.8283,160 L164.067755,184.184325 C163.898728,184.576476 164.055874,185.034282 164.428691,185.235817 L186.282151,196.904754 C186.6603,197.107188 187.128752,196.977118 187.351974,196.607707 L201,173.984849 Z" id="Path" stroke="none" fill="url(#linearGradient-4)" fill-rule="nonzero"></path>
                                        <path d="M200,174.855918 L174.514361,162 L164.07049,184.186202 C163.89464,184.571231 164.05813,185.020724 164.445994,185.218598 L185.6363,195.906483 C186.029713,196.105242 186.517073,195.977534 186.749305,195.614831 L200,174.855918 Z" id="Path" stroke="none" fill="#3F3D56" fill-rule="nonzero"></path>
                                        <path d="M177.834989,129.518154 L215.737688,129.456504 C217.02451,129.454411 218.069382,130.49589 218.071475,131.782712 C218.071479,131.785241 218.071479,131.78777 218.071475,131.7903 L218.009842,169.598407 C218.007749,170.882266 216.967494,171.922517 215.683635,171.924606 L177.780935,171.986256 C176.494113,171.988349 175.449241,170.94687 175.447148,169.660049 C175.447144,169.657519 175.447144,169.65499 175.447148,169.65246 L175.508782,131.844353 C175.510874,130.560494 176.551129,129.520243 177.834989,129.518154 Z" id="Rectangle" stroke="none" fill="url(#linearGradient-5)" fill-rule="nonzero" transform="translate(196.759312, 150.721380) rotate(-62.170000) translate(-196.759312, -150.721380) "></path>
                                        <path d="M178.487884,130.05613 L215.018576,130.115681 C216.302435,130.117774 217.342686,131.158029 217.344775,132.441888 L217.404342,169.064327 C217.406435,170.351149 216.364957,171.396021 215.078135,171.398114 C215.075606,171.398118 215.073076,171.398118 215.070547,171.398114 L178.539855,171.338563 C177.255995,171.33647 176.215744,170.296216 176.213656,169.012356 L176.154088,132.389917 C176.151995,131.103095 177.193474,130.058223 178.480296,130.05613 C178.482825,130.056126 178.485354,130.056126 178.487884,130.05613 Z" id="Rectangle" stroke="none" fill="#3F3D56" fill-rule="nonzero" transform="translate(196.779215, 150.727122) rotate(27.830000) translate(-196.779215, -150.727122) "></path>
                                        <path d="M219.367824,148.817592 L219.367824,148.817592 C220.073993,148.818744 220.646169,149.390921 220.647317,150.09709 L220.653574,153.943561 C220.654717,154.646765 220.085586,155.21775 219.382383,155.218894 C219.381001,155.218896 219.379618,155.218896 219.378236,155.218894 L219.378236,155.218894 C218.672067,155.217743 218.099892,154.645566 218.098743,153.939397 L218.092487,150.092925 C218.091343,149.389722 218.660475,148.818736 219.363678,148.817592 C219.36506,148.81759 219.366442,148.81759 219.367824,148.817592 Z" id="Rectangle" stroke="none" fill="#3F3D56" fill-rule="nonzero" transform="translate(219.373030, 152.018243) rotate(27.830000) translate(-219.373030, -152.018243) "></path>
                                        <path d="M180.408908,131.979093 L213.107355,132.032396 C214.391214,132.034489 215.431465,133.074744 215.433553,134.358604 L215.486874,167.140262 C215.488967,168.427083 214.447489,169.471955 213.160667,169.474048 C213.158137,169.474052 213.155608,169.474052 213.153079,169.474048 L180.454632,169.420745 C179.170772,169.418652 178.130521,168.378397 178.128433,167.094538 L178.075113,134.31288 C178.07302,133.026058 179.114498,131.981186 180.40132,131.979093 C180.403849,131.979089 180.406378,131.979089 180.408908,131.979093 Z" id="Rectangle" stroke="none" fill="#FB515E" fill-rule="nonzero" transform="translate(196.780993, 150.726571) rotate(27.830000) translate(-196.780993, -150.726571) "></path>
                                        <polygon id="Path" stroke="none" fill="url(#linearGradient-6)" fill-rule="nonzero" points="208 151.487786 206.350611 148 194.989043 152.744397 192.829892 148.246789 189 149.850919 192.176008 156.340468 192.176008 156.340468 192.936648 158"></polygon>
                                        <polygon id="Path" stroke="none" fill="#FFFFFF" fill-rule="nonzero" points="208 151.285601 206.521011 148 195.3987 153.216123 193.220505 148.384513 190 149.893397 192.921588 156.363829 192.921588 156.363829 193.680578 158"></polygon>
                                        <circle id="Oval" stroke="none" fill="#80DEEA" fill-rule="nonzero" opacity="0.3" cx="241.5" cy="3.5" r="3.5"></circle>
                                        <circle id="Oval" stroke="none" fill="#80DEEA" fill-rule="nonzero" opacity="0.3" cx="203.5" cy="86.5" r="3.5"></circle>
                                        <circle id="Oval" stroke="none" fill="#80DEEA" fill-rule="nonzero" opacity="0.5" cx="3.5" cy="18.5" r="3.5"></circle>
                                        <circle id="Oval" stroke="none" fill="#80DEEA" fill-rule="nonzero" opacity="0.3" cx="7.5" cy="7.5" r="3.5"></circle>
                                    </g>
                                </g>
                                <g id="tv" mask="url(#mask-2)">
                                    <g transform="translate(136.848671, 78.361277) rotate(2.000000) translate(-136.848671, -78.361277) translate(52.848671, 19.861277)">
                                        <polygon id="Path-2" fill="#464A5F" fill-rule="evenodd" points="19.3591234 107.615053 19.3591234 108.740053 1.97981305 115.490053 2.39360615 116.615053 4.46257167 116.615053 21.0142958 112.115053 22.2556751 113.615053 24.3246406 113.615053 23.9108475 111.365053 25.9798131 111.365053 25.5660199 107.615053"></polygon>
                                        <polygon id="Path-3" fill="#464A5F" fill-rule="evenodd" points="143.89331 103.351632 143.89331 106.736248 145.548483 106.736248 145.13469 109.274709 146.789862 109.274709 148.031242 107.159324 165.824345 112.659324 167.89331 112.659324 167.89331 111.813171 150.100207 103.774709 150.100207 101.659324 143.89331 101.659324"></polygon>
                                        <path d="M164.18712,104.028292 L2.84629784,109.153237 C2.09640354,109.154813 1.37669,108.854287 0.845884313,108.31794 C0.315078624,107.781592 0.0167832504,107.05348 0.0167848643,106.294182 L0.0167848643,8.13724959 C0.0167832504,7.37795222 0.315078624,6.64984004 0.845884313,6.11349239 C1.37669,5.57714474 2.09640354,5.27661932 2.84629784,5.27819462 L164.18712,0.153249621 C164.937014,0.151674315 165.656728,0.452199734 166.187533,0.988547385 C166.718339,1.52489504 167.016634,2.25300722 167.016633,3.01230459 L167.016633,101.139579 C167.024466,101.904003 166.729631,102.639764 166.197972,103.182547 C165.666313,103.72533 164.942117,104.029919 164.18712,104.028292 Z" id="Path" fill="#464A5F" fill-rule="nonzero"></path>
                                        <polygon id="Path" fill="#FB515E" fill-rule="nonzero" points="162.016785 99.3996996 4.01678486 105.153243 4.01678486 9.91344653 162.016785 4.15324346"></polygon>
                                        <polygon id="Path" fill="#000000" fill-rule="nonzero" opacity="0.2" points="164.40958 7.35049918 4.4095805 13.0765669 4.4095805 9.80263467 164.40958 4.07656693"></polygon>
                                    </g>
                                </g>
                            </g>
                        </g>
                    </g>
                </g>
            </g>
        </g>
    </g>
</svg>