<?xml version="1.0" encoding="UTF-8"?>
<svg width="360px" height="200px" viewBox="0 0 360 200" version="1.1" xmlns="http://www.w3.org/2000/svg" xmlns:xlink="http://www.w3.org/1999/xlink">
    <!-- Generator: Sketch 54.1 (76490) - https://sketchapp.com -->
    <title>watch@JPG</title>
    <desc>Created with Sketch.</desc>
    <defs>
        <rect id="path-1" x="0" y="0" width="360" height="200"></rect>
        <linearGradient x1="50.0382974%" y1="99.9706047%" x2="50.03503%" y2="-0.0248627156%" id="linearGradient-3">
            <stop stop-color="#808080" stop-opacity="0.25" offset="0%"></stop>
            <stop stop-color="#808080" stop-opacity="0.12" offset="54%"></stop>
            <stop stop-color="#808080" stop-opacity="0.1" offset="100%"></stop>
        </linearGradient>
        <linearGradient x1="239.580811%" y1="61.9598986%" x2="193.45156%" y2="-26.493345%" id="linearGradient-4">
            <stop stop-color="#808080" stop-opacity="0.25" offset="0%"></stop>
            <stop stop-color="#808080" stop-opacity="0.12" offset="54%"></stop>
            <stop stop-color="#808080" stop-opacity="0.1" offset="100%"></stop>
        </linearGradient>
        <linearGradient x1="-9.29670057%" y1="81.1624176%" x2="109.290499%" y2="18.8252335%" id="linearGradient-5">
            <stop stop-color="#808080" stop-opacity="0.25" offset="0%"></stop>
            <stop stop-color="#808080" stop-opacity="0.12" offset="54%"></stop>
            <stop stop-color="#808080" stop-opacity="0.1" offset="100%"></stop>
        </linearGradient>
        <linearGradient x1="26.6435449%" y1="65.4019541%" x2="65.263659%" y2="29.2707133%" id="linearGradient-6">
            <stop stop-color="#000000" stop-opacity="0.12" offset="0%"></stop>
            <stop stop-color="#000000" stop-opacity="0.09" offset="55%"></stop>
            <stop stop-color="#000000" stop-opacity="0.02" offset="100%"></stop>
        </linearGradient>
        <linearGradient x1="37.8871471%" y1="101.742388%" x2="62.1109533%" y2="-1.74066946%" id="linearGradient-7">
            <stop stop-color="#808080" stop-opacity="0.25" offset="0%"></stop>
            <stop stop-color="#808080" stop-opacity="0.12" offset="54%"></stop>
            <stop stop-color="#808080" stop-opacity="0.1" offset="100%"></stop>
        </linearGradient>
        <linearGradient x1="68.3107934%" y1="96.6551196%" x2="38.0554907%" y2="14.6662472%" id="linearGradient-8">
            <stop stop-color="#000000" stop-opacity="0.12" offset="0%"></stop>
            <stop stop-color="#000000" stop-opacity="0.09" offset="55%"></stop>
            <stop stop-color="#000000" stop-opacity="0.02" offset="100%"></stop>
        </linearGradient>
    </defs>
    <g id="Page-1" stroke="none" stroke-width="1" fill="none" fill-rule="evenodd">
        <g id="Desktop-HD" transform="translate(-540.000000, -4441.000000)">
            <g id="Portfolio" transform="translate(0.000000, 3920.000000)">
                <g id="Works" transform="translate(150.000000, 239.000000)">
                    <g id="Project-5" transform="translate(390.000000, 282.000000)">
                        <g id="Content/Projects/Dark/Case-(Var-3)">
                            <g id="watch">
                                <mask id="mask-2" fill="white">
                                    <use xlink:href="#path-1"></use>
                                </mask>
                                <g id="Path"></g>
                                <g mask="url(#mask-2)">
                                    <g transform="translate(58.000000, -2.000000)">
                                        <g id="Group" opacity="0.3" stroke="none" stroke-width="1" fill="none" fill-rule="evenodd" transform="translate(172.000000, 11.000000)">
                                            <path d="M0.184974093,0.0867605634 C0.650051813,0.337402191 1.11248705,0.592425665 1.57227979,0.851830986" id="Path" stroke="#2196F3" stroke-width="4"></path>
                                            <path d="M4.27290155,2.41615023 C32.2092746,19.3292019 50.8678756,49.9030986 50.8678756,84.8123944 C50.8737763,92.9210952 49.8527822,100.998227 47.8290155,108.852958" id="Path" stroke="#2196F3" stroke-width="4" stroke-dasharray="11.85"></path>
                                            <path d="M47.4326425,110.359437 C47.2934715,110.865978 47.1498964,111.371643 47.0019171,111.876432" id="Path" stroke="#2196F3" stroke-width="4"></path>
                                        </g>
                                        <path d="M32,97 C32,54.5745223 58.7021434,18.4697163 96,5" id="Path" stroke="#2196F3" stroke-width="4" fill="none" opacity="0.21" stroke-dasharray="12"></path>
                                        <path d="M174,181.469837 C159.886683,189.060579 144.076629,193.024839 128.016478,192.999883 C96.5544832,192.999883 68.6090306,178.083554 51,155" id="Path" stroke="#2196F3" stroke-width="4" fill="none" opacity="0.5" stroke-dasharray="12"></path>
                                        <g id="Group" opacity="0.21" stroke="none" stroke-width="1" fill="none" fill-rule="evenodd" transform="translate(63.000000, 30.000000)">
                                            <path d="M126.790515,83.8161818 C126.643876,84.324303 126.491127,84.8306599 126.332268,85.3352525" id="Path" stroke="#2196F3" stroke-width="4"></path>
                                            <path d="M125.313649,88.3257576 C116.148701,113.184 92.4638557,130.891495 64.6783505,130.891495 C28.9586186,130.891495 0,101.624242 0,65.5238182 C0,29.4233939 28.9586186,0.156141414 64.6783505,0.156141414 C78.8539436,0.135268044 92.6402441,4.84231517 103.899093,13.5472525" id="Path" stroke="#2196F3" stroke-width="4" stroke-dasharray="11.95"></path>
                                            <path d="M105.135052,14.5158586 C105.543546,14.8475488 105.947677,15.1836498 106.347443,15.5241616" id="Path" stroke="#2196F3" stroke-width="4"></path>
                                        </g>
                                        <g id="Group" opacity="0.5" stroke="none" stroke-width="1" fill="none" fill-rule="evenodd" transform="translate(122.000000, 59.000000)">
                                            <path d="M0.00529503106,0.57 C0.534798137,0.493652968 1.06430124,0.427716895 1.59380435,0.372191781" id="Path" stroke="#2196F3" stroke-width="4"></path>
                                            <path d="M4.63315217,0.166575342 C4.94202899,0.166575342 5.2509058,0.166575342 5.55978261,0.166575342 C18.7046372,0.166533177 30.8662469,7.01078507 37.5221953,18.1542274 C44.1781438,29.2976697 44.3326684,43.0731885 37.9283075,54.3582192" id="Path" stroke="#2196F3" stroke-width="4" stroke-dasharray="11.56"></path>
                                            <path d="M37.1552329,55.6543836 C36.8781263,56.0985845 36.5913121,56.5323744 36.2947904,56.9557534" id="Path" stroke="#2196F3" stroke-width="4"></path>
                                        </g>
                                        <path d="M218.17094,145 L192,131.016497 L205.651581,108.392182 C205.874818,108.022875 206.343303,107.892842 206.721479,108.095219 L228.571279,119.771353 C228.944122,119.97283 229.101279,120.430507 228.93224,120.822546 L218.17094,145 Z" id="Path" stroke="none" fill="url(#linearGradient-3)" fill-rule="nonzero"></path>
                                        <path d="M218.472259,143 L193,130.145058 L206.262639,109.385139 C206.494748,109.022465 206.981853,108.894766 207.375059,109.09351 L228.55424,119.783164 C228.941901,119.981024 229.105305,120.430482 228.929547,120.815482 L218.472259,143 Z" id="Path" stroke="none" fill="#F2F2F2" fill-rule="nonzero"></path>
                                        <path d="M201,177.984849 L174.8283,164 L164.067755,188.184325 C163.898728,188.576476 164.055874,189.034282 164.428691,189.235817 L186.282151,200.904754 C186.6603,201.107188 187.128752,200.977118 187.351974,200.607707 L201,177.984849 Z" id="Path" stroke="none" fill="url(#linearGradient-4)" fill-rule="nonzero"></path>
                                        <path d="M200,178.855918 L174.514361,166 L164.07049,188.186202 C163.89464,188.571231 164.05813,189.020724 164.445994,189.218598 L185.6363,199.906483 C186.029713,200.105242 186.517073,199.977534 186.749305,199.614831 L200,178.855918 Z" id="Path" stroke="none" fill="#F2F2F2" fill-rule="nonzero"></path>
                                        <path d="M177.834989,133.518154 L215.737688,133.456504 C217.02451,133.454411 218.069382,134.49589 218.071475,135.782712 C218.071479,135.785241 218.071479,135.78777 218.071475,135.7903 L218.009842,173.598407 C218.007749,174.882266 216.967494,175.922517 215.683635,175.924606 L177.780935,175.986256 C176.494113,175.988349 175.449241,174.94687 175.447148,173.660049 C175.447144,173.657519 175.447144,173.65499 175.447148,173.65246 L175.508782,135.844353 C175.510874,134.560494 176.551129,133.520243 177.834989,133.518154 Z" id="Rectangle" stroke="none" fill="url(#linearGradient-5)" fill-rule="nonzero" transform="translate(196.759312, 154.721380) rotate(-62.170000) translate(-196.759312, -154.721380) "></path>
                                        <path d="M178.487884,134.05613 L215.018576,134.115681 C216.302435,134.117774 217.342686,135.158029 217.344775,136.441888 L217.404342,173.064327 C217.406435,174.351149 216.364957,175.396021 215.078135,175.398114 C215.075606,175.398118 215.073076,175.398118 215.070547,175.398114 L178.539855,175.338563 C177.255995,175.33647 176.215744,174.296216 176.213656,173.012356 L176.154088,136.389917 C176.151995,135.103095 177.193474,134.058223 178.480296,134.05613 C178.482825,134.056126 178.485354,134.056126 178.487884,134.05613 Z" id="Rectangle" stroke="none" fill="#F2F2F2" fill-rule="nonzero" transform="translate(196.779215, 154.727122) rotate(27.830000) translate(-196.779215, -154.727122) "></path>
                                        <path d="M219.367824,152.817592 L219.367824,152.817592 C220.073993,152.818744 220.646169,153.390921 220.647317,154.09709 L220.653574,157.943561 C220.654717,158.646765 220.085586,159.21775 219.382383,159.218894 C219.381001,159.218896 219.379618,159.218896 219.378236,159.218894 L219.378236,159.218894 C218.672067,159.217743 218.099892,158.645566 218.098743,157.939397 L218.092487,154.092925 C218.091343,153.389722 218.660475,152.818736 219.363678,152.817592 C219.36506,152.81759 219.366442,152.81759 219.367824,152.817592 Z" id="Rectangle" stroke="none" fill="#F2F2F2" fill-rule="nonzero" transform="translate(219.373030, 156.018243) rotate(27.830000) translate(-219.373030, -156.018243) "></path>
                                        <path d="M180.408908,135.979093 L213.107355,136.032396 C214.391214,136.034489 215.431465,137.074744 215.433553,138.358604 L215.486874,171.140262 C215.488967,172.427083 214.447489,173.471955 213.160667,173.474048 C213.158137,173.474052 213.155608,173.474052 213.153079,173.474048 L180.454632,173.420745 C179.170772,173.418652 178.130521,172.378397 178.128433,171.094538 L178.075113,138.31288 C178.07302,137.026058 179.114498,135.981186 180.40132,135.979093 C180.403849,135.979089 180.406378,135.979089 180.408908,135.979093 Z" id="Rectangle" stroke="none" fill="#FB515E" fill-rule="nonzero" transform="translate(196.780993, 154.726571) rotate(27.830000) translate(-196.780993, -154.726571) "></path>
                                        <polygon id="Path" stroke="none" fill="url(#linearGradient-6)" fill-rule="nonzero" points="208 155.487786 206.350611 152 194.989043 156.744397 192.829892 152.246789 189 153.850919 192.176008 160.340468 192.176008 160.340468 192.936648 162"></polygon>
                                        <polygon id="Path" stroke="none" fill="#FFFFFF" fill-rule="nonzero" points="208 155.285601 206.521011 152 195.3987 157.216123 193.220505 152.384513 190 153.893397 192.921588 160.363829 192.921588 160.363829 193.680578 162"></polygon>
                                        <path d="M45.2747225,10.6681531 L105.672999,10.5825001 C112.43848,10.5729058 117.930764,16.0496343 117.940359,22.8151157 C117.940375,22.8266812 117.940375,22.8382468 117.940359,22.8498124 L117.757694,152.010312 C117.748145,158.762248 112.277014,164.2334 105.525078,164.242975 L45.1268017,164.328628 C38.3613203,164.338223 32.8690362,158.861494 32.8594418,152.096013 C32.8594254,152.084447 32.8594254,152.072882 32.8594418,152.061316 L33.0421069,22.9008163 C33.0516558,16.1488808 38.522787,10.6777283 45.2747225,10.6681531 Z" id="Rectangle" stroke="none" fill="url(#linearGradient-7)" fill-rule="nonzero" transform="translate(75.399900, 87.455564) rotate(-22.950000) translate(-75.399900, -87.455564) "></path>
                                        <path d="M47.8045153,12.7433749 L103.126668,12.6649205 C110.659824,12.6542375 116.775314,18.752407 116.785997,26.2855634 C116.786016,26.2984413 116.786016,26.3113192 116.785997,26.3241971 L116.613134,148.553984 C116.602502,156.072057 110.510565,162.164018 102.992491,162.17468 L47.6703386,162.253134 C40.1371822,162.263817 34.021692,156.165648 34.011009,148.632491 C34.0109907,148.619613 34.0109907,148.606735 34.0110089,148.593857 L34.1838723,26.3640708 C34.1945047,18.8459973 40.2864418,12.7540365 47.8045153,12.7433749 Z" id="Rectangle" stroke="none" fill="#FFFFFF" fill-rule="nonzero" transform="translate(75.398503, 87.459027) rotate(-22.950000) translate(-75.398503, -87.459027) "></path>
                                        <path d="M66.463086,14.2315614 C67.2850236,17.4310931 65.6408778,20.7494618 62.5910802,22.0464053 L36.2217952,33.1698577 C33.1639922,34.4490533 29.6263604,33.3156719 27.8910358,30.5008609 L13.9227416,36.3916054 C13.1530746,36.7154479 12.544267,37.3307457 12.2304536,38.1019342 C11.9166402,38.8731226 11.9235706,39.7369227 12.2497179,40.5030187 L65.2314446,165.085159 C65.5566233,165.851664 66.1744599,166.45797 66.9488304,166.770493 C67.7232008,167.083017 68.5905651,167.076115 69.3598222,166.751308 L136.077258,138.613659 C136.846925,138.289816 137.455733,137.674519 137.769546,136.90333 C138.08336,136.132142 138.076429,135.268342 137.750282,134.502246 L84.7738414,9.91484067 C84.4486627,9.14833641 83.8308261,8.54203049 83.0564556,8.22950664 C82.2820852,7.91698278 81.4147209,7.9238847 80.6454638,8.24869174 L66.463086,14.2315614 Z" id="Path" stroke="none" fill="#FB515E" fill-rule="nonzero"></path>
                                        <path d="M40.2030106,23.602012 L57.4575796,23.5775427 C57.7753063,23.5770921 58.03324,23.8342952 58.0336906,24.1520219 C58.0336913,24.152565 58.0336913,24.1531082 58.0336906,24.1536513 L58.0336906,24.1536513 C58.0332396,24.4725432 57.7748397,24.7309441 57.4559478,24.7313964 L40.2013788,24.7558657 C39.8836521,24.7563163 39.6257184,24.4991132 39.6252678,24.1813865 C39.6252671,24.1808433 39.6252671,24.1803002 39.6252678,24.179757 L39.6252678,24.179757 C39.6257188,23.8608651 39.8841187,23.6024642 40.2030106,23.602012 Z" id="Rectangle" stroke="none" fill="#DBDBDB" fill-rule="nonzero" transform="translate(48.829479, 24.166704) rotate(-22.950000) translate(-48.829479, -24.166704) "></path>
                                        <ellipse id="Oval" stroke="none" fill="#DBDBDB" fill-rule="nonzero" transform="translate(60.852771, 18.930406) rotate(-22.950000) translate(-60.852771, -18.930406) " cx="60.8527711" cy="18.9304059" rx="1" ry="1"></ellipse>
                                        <polygon id="Path" stroke="none" fill="url(#linearGradient-8)" fill-rule="nonzero" points="86 71.4128728 78.9835987 70 74.5614749 91.3840921 65.477553 89.6127682 64 96.826269 77.1662876 99.29618 77.1662876 99.29618 80.4769544 100"></polygon>
                                        <polygon id="Path" stroke="none" fill="#FFFFFF" fill-rule="nonzero" points="86 72.1905318 79.6762861 71 75.5105395 92.5989041 66.2067754 90.8456701 65 97.0979159 77.4603513 99.4372979 77.4603513 99.4372979 80.6380176 100"></polygon>
                                        <circle id="Oval" stroke="none" fill="#80DEEA" fill-rule="nonzero" opacity="0.3" cx="241.5" cy="7.5" r="3.5"></circle>
                                        <circle id="Oval" stroke="none" fill="#80DEEA" fill-rule="nonzero" opacity="0.3" cx="203.5" cy="90.5" r="3.5"></circle>
                                        <circle id="Oval" stroke="none" fill="#80DEEA" fill-rule="nonzero" opacity="0.5" cx="3.5" cy="22.5" r="3.5"></circle>
                                        <circle id="Oval" stroke="none" fill="#80DEEA" fill-rule="nonzero" opacity="0.3" cx="7.5" cy="11.5" r="3.5"></circle>
                                        <g id="Group" opacity="0.2" stroke="none" stroke-width="1" fill="none" fill-rule="evenodd" transform="translate(12.000000, 7.000000)">
                                            <path d="M29.2,27.350495 L55.4958123,16.1953795 C58.5368074,14.8944364 60.1762078,11.5658343 59.3566426,8.35643564 L72.7970758,2.65082508 L72.596787,2.17821782 C72.2725469,1.40934976 71.6564934,0.801174066 70.884358,0.487686426 C70.1122226,0.174198785 69.2473617,0.18112199 68.4803249,0.506930693 L54.3415162,6.50561056 C55.1610815,9.71500923 53.5216811,13.0436113 50.4806859,14.3445545 L24.1927798,25.5023102 C23.48909,25.8000771 22.7392039,25.9733798 21.976426,26.0145215 C23.9042289,27.8606019 26.7413543,28.3853179 29.2,27.350495 Z" id="Path" fill="#FFFFFF" fill-rule="nonzero"></path>
                                            <path d="M5.29974729,34.7036304 C4.97454139,33.9351718 4.967631,33.0687078 5.28053863,32.2951411 C5.59344626,31.5215745 6.20049672,30.9043791 6.96794224,30.579538 L18.9720939,25.4864686 C17.6913948,24.9424348 16.6124248,24.0110098 15.886065,22.8224422 L1.95808664,28.7313531 C1.19064112,29.0561943 0.583590667,29.6733897 0.270683035,30.4469563 C-0.0422245974,31.220523 -0.0353142014,32.086987 0.289891697,32.8554455 L53.1187004,157.824422 C53.4429405,158.593291 54.0589939,159.201466 54.8311294,159.514954 C55.6032648,159.828441 56.4681257,159.821518 57.2351625,159.49571 L57.9282671,159.20264 L5.29974729,34.7036304 Z" id="Path" fill="#FFFFFF" fill-rule="nonzero"></path>
                                        </g>
                                    </g>
                                </g>
                            </g>
                        </g>
                    </g>
                </g>
            </g>
        </g>
    </g>
</svg>