<?xml version="1.0" encoding="UTF-8"?>
<svg width="350px" height="230px" viewBox="0 0 350 230" version="1.1" xmlns="http://www.w3.org/2000/svg" xmlns:xlink="http://www.w3.org/1999/xlink">
    <!-- Generator: Sketch 54.1 (76490) - https://sketchapp.com -->
    <title>Riafy Solutions List image@PNG</title>
    <desc>Created with Sketch.</desc>
    <defs>
        <rect id="path-1" x="0" y="0" width="350" height="230"></rect>
    </defs>
    <g id="Page-1" stroke="none" stroke-width="1" fill="none" fill-rule="evenodd">
        <g id="Desktop-HD" transform="translate(-150.000000, -4964.000000)">
            <g id="Blog" transform="translate(0.000000, 4794.000000)">
                <g id="Item-1" transform="translate(150.000000, 170.000000)">
                    <g id="Content/Blog/Dark/Article-(Var-2)">
                        <g id="Image">
                            <g id="Riafy-Solutions-List-image">
                                <mask id="mask-2" fill="white">
                                    <use xlink:href="#path-1"></use>
                                </mask>
                                <use id="Path" fill="#FB515E" xlink:href="#path-1"></use>
                                <g id="Riafy-Solutions-Logo-Rectangle-White@2x" mask="url(#mask-2)">
                                    <g transform="translate(53.000000, 38.000000)">
                                        <rect id="Rectangle" x="0" y="0" width="244" height="154"></rect>
                                        <g id="Group" stroke-width="1" fill-rule="evenodd" transform="translate(18.000000, 16.000000)">
                                            <path d="M52.3247496,61.0980545 L34.272947,61.0980545 L31.023132,38.8805801 L28.7482614,38.8805801 L24.8484833,61.0980545 L7.62446352,61.0980545 L18.0238717,0 L39.7976327,0 C50.4136952,0.435636752 56.1550351,5.00982265 57.0216525,13.7225577 C57.8156607,21.7053005 56.7652595,27.856842 51.4969669,32.3460288 C50.7218224,33.0065403 49.3135693,33.8778139 47.2722073,34.9598494 L52.6717142,59.0865928 L62.8637798,0 L81.0286123,0 L70.4895821,61.0980545 L52.3247496,61.0980545 Z M122.019587,58.7704519 L132.167787,0 L160.711731,0 L179.508507,0 L180.480754,22.8709295 L189.555059,0 L209,0 L186.314236,40.8409455 L183.073412,61.0980545 L164.600719,61.0980545 L168.165625,40.8409455 L162.461799,9.58886967 L161.330719,16.3100739 L147.092346,16.3100739 L145.891519,23.5589956 L159.100612,23.5589956 L156.441639,39.0923993 L143.31832,39.0923993 L139.45852,61.0980545 L121.617668,61.0980545 L103.892942,61.0980545 L103.892942,52.123199 L92.9613731,52.123199 L89.7765854,61.0980545 L71.0121602,61.0980545 L96.6626136,0 L118.956128,0 L122.019587,58.7704519 Z M96.8007868,38.223906 L103.902003,38.223906 L103.902003,18.3595139 L103.546942,18.3595139 L96.8007868,38.223906 Z M39.131229,21.2976094 C40.0042825,17.176481 37.8216487,15.2243675 32.5833273,15.441269 L30.9463519,26.5032453 C35.5298831,27.1539498 38.2581754,25.4187378 39.131229,21.2976094 Z" id="Combined-Shape" fill="#FFFFFF" fill-rule="nonzero"></path>
                                            <g id="Group-2" transform="translate(0.000000, 70.277811)" fill-rule="nonzero">
                                                <rect id="Rectangle" fill="#FFFFFF" x="0" y="0" width="201.375536" height="50.1876876"></rect>
                                                <path d="M26.0128755,19.4505506 L22.2006438,19.4505506 L22.2006438,18.5852456 C22.2006438,17.7073956 21.9950843,16.9486938 21.5839592,16.3091174 C21.1728342,15.6695409 20.4814069,15.3497575 19.5096567,15.3497575 C18.9864065,15.3497575 18.5566004,15.4500817 18.2202253,15.6507332 C17.8838502,15.8513846 17.6222291,16.1084653 17.4353541,16.4219832 C17.2484791,16.7355011 17.1176685,17.0991764 17.0429185,17.5130199 C16.9681684,17.9268635 16.930794,18.3595116 16.930794,18.8109774 C16.930794,19.3376874 16.9494813,19.782876 16.9868562,20.1465568 C17.0242312,20.5102374 17.1176673,20.8237506 17.2671674,21.0871056 C17.4166674,21.3504607 17.6346851,21.5824604 17.9212268,21.7831118 C18.2077684,21.9837632 18.6002002,22.1844116 19.0985336,22.3850631 L22.0137697,23.5513437 C22.8609365,23.8774022 23.5461347,24.2598882 24.0693848,24.6988133 C24.5926349,25.1377383 24.9975248,25.6518999 25.2840665,26.2413134 C25.5706082,26.8307269 25.7637096,27.5079154 25.8633763,28.272899 C25.9630429,29.0378826 26.0128755,29.9094491 26.0128755,30.8876248 C26.0128755,32.0162891 25.9007522,33.0634231 25.6765021,34.029058 C25.4522521,34.994693 25.0847367,35.8223677 24.5739449,36.5121071 C24.0631531,37.2018464 23.384184,37.7473592 22.5370172,38.1486621 C21.6898503,38.5499649 20.6558239,38.7506134 19.434907,38.7506134 C18.5129901,38.7506134 17.6533779,38.5875865 16.8560443,38.2615279 C16.0587108,37.9354694 15.3735126,37.4902807 14.8004292,36.9259486 C14.2273457,36.3616164 13.7726233,35.6906983 13.4362482,34.913174 C13.0998731,34.1356497 12.9316881,33.2954344 12.9316881,32.392503 L12.9316881,30.9628687 L16.7439199,30.9628687 L16.7439199,32.1667713 C16.7439199,32.8690513 16.9494794,33.5023479 17.3606044,34.06668 C17.7717295,34.6310121 18.4631568,34.913174 19.434907,34.913174 C20.0827405,34.913174 20.5872956,34.8191201 20.9485873,34.6310093 C21.309879,34.4428986 21.5839583,34.1795476 21.7708333,33.8409483 C21.9577084,33.5023489 22.0760608,33.0822414 22.1258941,32.5806128 C22.1757275,32.0789842 22.2006438,31.5272011 22.2006438,30.9252468 C22.2006438,30.2229668 22.1757275,29.6461026 22.1258941,29.1946369 C22.0760608,28.7431711 21.9701665,28.3794959 21.8082082,28.1036002 C21.6462498,27.8277045 21.4220031,27.601975 21.1354614,27.426405 C20.8489197,27.250835 20.4689461,27.0627271 19.9955293,26.8620757 L17.2671674,25.733417 C15.622667,25.0562185 14.5201209,24.1595709 13.9594957,23.0434473 C13.3988706,21.9273237 13.1185622,20.529055 13.1185622,18.8485993 C13.1185622,17.8453422 13.2556019,16.8922622 13.5296853,15.9893308 C13.8037687,15.0863993 14.2086585,14.3088867 14.744367,13.6567696 C15.2800754,13.0046524 15.9590445,12.4842206 16.7812947,12.0954584 C17.6035449,11.7066963 18.5628224,11.5123181 19.6591559,11.5123181 C20.6059895,11.5123181 21.4718308,11.6878855 22.256706,12.0390255 C23.0415812,12.3901655 23.7143213,12.854165 24.2749464,13.4310378 C24.8355714,14.0079107 25.2653776,14.6537478 25.5643777,15.3685685 C25.8633777,16.0833893 26.0128755,16.81701 26.0128755,17.5694529 L26.0128755,19.4505506 Z M34.7585837,18.0585383 C34.7585837,16.9800368 34.9454559,16.0269568 35.319206,15.1992697 C35.6929561,14.3715826 36.1850529,13.6881239 36.7955114,13.1488732 C37.4059699,12.6096224 38.0911681,12.2020554 38.8511266,11.9261596 C39.6110851,11.6502639 40.3772613,11.5123181 41.1496781,11.5123181 C41.9220949,11.5123181 42.6882711,11.6502639 43.4482296,11.9261596 C44.2081881,12.2020554 44.8933863,12.6096224 45.5038448,13.1488732 C46.1143033,13.6881239 46.6064001,14.3715826 46.9801502,15.1992697 C47.3539003,16.0269568 47.5407725,16.9800368 47.5407725,18.0585383 L47.5407725,32.2043932 C47.5407725,33.3079761 47.3539003,34.2673263 46.9801502,35.0824728 C46.6064001,35.8976192 46.1143033,36.5748077 45.5038448,37.1140583 C44.8933863,37.653309 44.2081881,38.0608761 43.4482296,38.3367719 C42.6882711,38.6126676 41.9220949,38.7506134 41.1496781,38.7506134 C40.3772613,38.7506134 39.6110851,38.6126676 38.8511266,38.3367719 C38.0911681,38.0608761 37.4059699,37.653309 36.7955114,37.1140583 C36.1850529,36.5748077 35.6929561,35.8976192 35.319206,35.0824728 C34.9454559,34.2673263 34.7585837,33.3079761 34.7585837,32.2043932 L34.7585837,18.0585383 Z M38.5708155,32.2043932 C38.5708155,33.1324061 38.8262075,33.8158647 39.3369993,34.2547898 C39.8477911,34.6937148 40.4520113,34.913174 41.1496781,34.913174 C41.8473449,34.913174 42.4515651,34.6937148 42.9623569,34.2547898 C43.4731488,33.8158647 43.7285408,33.1324061 43.7285408,32.2043932 L43.7285408,18.0585383 C43.7285408,17.1305254 43.4731488,16.4470668 42.9623569,16.0081417 C42.4515651,15.5692167 41.8473449,15.3497575 41.1496781,15.3497575 C40.4520113,15.3497575 39.8477911,15.5692167 39.3369993,16.0081417 C38.8262075,16.4470668 38.5708155,17.1305254 38.5708155,18.0585383 L38.5708155,32.2043932 Z M57.0339771,11.7380499 L60.8462089,11.7380499 L60.8462089,34.6874422 L68.3959227,34.6874422 L68.3959227,38.5248816 L57.0339771,38.5248816 L57.0339771,11.7380499 Z M89.3258226,32.5053689 C89.3258226,33.3832189 89.1638663,34.1983531 88.8399499,34.9507959 C88.5160336,35.7032388 88.0737691,36.3616164 87.5131438,36.9259486 C86.9525185,37.4902807 86.2984658,37.9354694 85.5509657,38.2615279 C84.8034655,38.5875865 84.006144,38.7506134 83.1589771,38.7506134 C82.3118103,38.7506134 81.5144887,38.5875865 80.7669886,38.2615279 C80.0194884,37.9354694 79.3654358,37.4902807 78.8048104,36.9259486 C78.2441851,36.3616164 77.8019207,35.7032388 77.4780043,34.9507959 C77.1540879,34.1983531 76.9921316,33.3832189 76.9921316,32.5053689 L76.9921316,11.7380499 L80.8043634,11.7380499 L80.8043634,32.1291493 C80.8043634,33.0822436 81.0286101,33.7845131 81.4771102,34.2359788 C81.9256103,34.6874445 82.4862266,34.913174 83.1589771,34.913174 C83.8317276,34.913174 84.392344,34.6874445 84.8408441,34.2359788 C85.2893442,33.7845131 85.5135908,33.0822436 85.5135908,32.1291493 L85.5135908,11.7380499 L89.3258226,11.7380499 L89.3258226,32.5053689 Z M101.547389,15.3497575 L97.1371602,15.3497575 L97.1371602,11.7380499 L109.76985,11.7380499 L109.76985,15.3497575 L105.359621,15.3497575 L105.359621,38.5248816 L101.547389,38.5248816 L101.547389,15.3497575 Z M117.693312,11.7380499 L121.505544,11.7380499 L121.505544,38.5248816 L117.693312,38.5248816 L117.693312,11.7380499 Z M131.110873,18.0585383 C131.110873,16.9800368 131.297745,16.0269568 131.671495,15.1992697 C132.045245,14.3715826 132.537342,13.6881239 133.1478,13.1488732 C133.758259,12.6096224 134.443457,12.2020554 135.203416,11.9261596 C135.963374,11.6502639 136.72955,11.5123181 137.501967,11.5123181 C138.274384,11.5123181 139.04056,11.6502639 139.800519,11.9261596 C140.560477,12.2020554 141.245675,12.6096224 141.856134,13.1488732 C142.466592,13.6881239 142.958689,14.3715826 143.332439,15.1992697 C143.706189,16.0269568 143.893062,16.9800368 143.893062,18.0585383 L143.893062,32.2043932 C143.893062,33.3079761 143.706189,34.2673263 143.332439,35.0824728 C142.958689,35.8976192 142.466592,36.5748077 141.856134,37.1140583 C141.245675,37.653309 140.560477,38.0608761 139.800519,38.3367719 C139.04056,38.6126676 138.274384,38.7506134 137.501967,38.7506134 C136.72955,38.7506134 135.963374,38.6126676 135.203416,38.3367719 C134.443457,38.0608761 133.758259,37.653309 133.1478,37.1140583 C132.537342,36.5748077 132.045245,35.8976192 131.671495,35.0824728 C131.297745,34.2673263 131.110873,33.3079761 131.110873,32.2043932 L131.110873,18.0585383 Z M134.923104,32.2043932 C134.923104,33.1324061 135.178496,33.8158647 135.689288,34.2547898 C136.20008,34.6937148 136.8043,34.913174 137.501967,34.913174 C138.199634,34.913174 138.803854,34.6937148 139.314646,34.2547898 C139.825438,33.8158647 140.08083,33.1324061 140.08083,32.2043932 L140.08083,18.0585383 C140.08083,17.1305254 139.825438,16.4470668 139.314646,16.0081417 C138.803854,15.5692167 138.199634,15.3497575 137.501967,15.3497575 C136.8043,15.3497575 136.20008,15.5692167 135.689288,16.0081417 C135.178496,16.4470668 134.923104,17.1305254 134.923104,18.0585383 L134.923104,32.2043932 Z M153.236767,11.7380499 L156.899499,11.7380499 L162.655222,27.8778684 L162.729971,27.8778684 L162.729971,11.7380499 L166.542203,11.7380499 L166.542203,38.5248816 L162.95422,38.5248816 L157.123748,22.422685 L157.048999,22.422685 L157.048999,38.5248816 L153.236767,38.5248816 L153.236767,11.7380499 Z M188.443848,19.4505506 L184.631617,19.4505506 L184.631617,18.5852456 C184.631617,17.7073956 184.426057,16.9486938 184.014932,16.3091174 C183.603807,15.6695409 182.91238,15.3497575 181.940629,15.3497575 C181.417379,15.3497575 180.987573,15.4500817 180.651198,15.6507332 C180.314823,15.8513846 180.053202,16.1084653 179.866327,16.4219832 C179.679452,16.7355011 179.548641,17.0991764 179.473891,17.5130199 C179.399142,17.9268635 179.361767,18.3595116 179.361767,18.8109774 C179.361767,19.3376874 179.380454,19.782876 179.417829,20.1465568 C179.455204,20.5102374 179.54864,20.8237506 179.69814,21.0871056 C179.84764,21.3504607 180.065658,21.5824604 180.3522,21.7831118 C180.638741,21.9837632 181.031173,22.1844116 181.529506,22.3850631 L184.444742,23.5513437 C185.291909,23.8774022 185.977107,24.2598882 186.500358,24.6988133 C187.023608,25.1377383 187.428498,25.6518999 187.715039,26.2413134 C188.001581,26.8307269 188.194682,27.5079154 188.294349,28.272899 C188.394016,29.0378826 188.443848,29.9094491 188.443848,30.8876248 C188.443848,32.0162891 188.331725,33.0634231 188.107475,34.029058 C187.883225,34.994693 187.51571,35.8223677 187.004918,36.5121071 C186.494126,37.2018464 185.815157,37.7473592 184.96799,38.1486621 C184.120823,38.5499649 183.086797,38.7506134 181.86588,38.7506134 C180.943963,38.7506134 180.084351,38.5875865 179.287017,38.2615279 C178.489684,37.9354694 177.804486,37.4902807 177.231402,36.9259486 C176.658318,36.3616164 176.203596,35.6906983 175.867221,34.913174 C175.530846,34.1356497 175.362661,33.2954344 175.362661,32.392503 L175.362661,30.9628687 L179.174893,30.9628687 L179.174893,32.1667713 C179.174893,32.8690513 179.380452,33.5023479 179.791577,34.06668 C180.202703,34.6310121 180.894129,34.913174 181.86588,34.913174 C182.513713,34.913174 183.018268,34.8191201 183.37956,34.6310093 C183.740852,34.4428986 184.014931,34.1795476 184.201806,33.8409483 C184.388681,33.5023489 184.507034,33.0822414 184.556867,32.5806128 C184.6067,32.0789842 184.631617,31.5272011 184.631617,30.9252468 C184.631617,30.2229668 184.6067,29.6461026 184.556867,29.1946369 C184.507034,28.7431711 184.40114,28.3794959 184.239181,28.1036002 C184.077222,27.8277045 183.852976,27.601975 183.566434,27.426405 C183.279893,27.250835 182.899919,27.0627271 182.426502,26.8620757 L179.69814,25.733417 C178.05364,25.0562185 176.951094,24.1595709 176.390469,23.0434473 C175.829843,21.9273237 175.549535,20.529055 175.549535,18.8485993 C175.549535,17.8453422 175.686574,16.8922622 175.960658,15.9893308 C176.234742,15.0863993 176.639632,14.3088867 177.17534,13.6567696 C177.711048,13.0046524 178.390018,12.4842206 179.212268,12.0954584 C180.034517,11.7066963 180.993795,11.5123181 182.090129,11.5123181 C183.036962,11.5123181 183.902804,11.6878855 184.687679,12.0390255 C185.472554,12.3901655 186.145294,12.854165 186.705919,13.4310378 C187.266544,14.0079107 187.69635,14.6537478 187.995351,15.3685685 C188.294351,16.0833893 188.443848,16.81701 188.443848,17.5694529 L188.443848,19.4505506 Z" id="SOLUTIONS" fill="#FB515E"></path>
                                            </g>
                                        </g>
                                    </g>
                                </g>
                            </g>
                        </g>
                    </g>
                </g>
            </g>
        </g>
    </g>
</svg>