<?xml version="1.0" encoding="UTF-8"?>
<svg width="350px" height="230px" viewBox="0 0 350 230" version="1.1" xmlns="http://www.w3.org/2000/svg" xmlns:xlink="http://www.w3.org/1999/xlink">
    <!-- Generator: Sketch 54.1 (76490) - https://sketchapp.com -->
    <title>Hyperchargelistimage@2x</title>
    <desc>Created with Sketch.</desc>
    <defs>
        <rect id="path-1" x="0" y="0" width="350" height="230"></rect>
    </defs>
    <g id="Page-1" stroke="none" stroke-width="1" fill="none" fill-rule="evenodd">
        <g id="Desktop-HD" transform="translate(-545.000000, -4964.000000)">
            <g id="Blog" transform="translate(0.000000, 4794.000000)">
                <g id="Item-2" transform="translate(545.000000, 170.000000)">
                    <g id="Content/Blog/Dark/Article-(Var-2)">
                        <g id="Image">
                            <g id="Hyperchargelistimage">
                                <mask id="mask-2" fill="white">
                                    <use xlink:href="#path-1"></use>
                                </mask>
                                <use id="Path" fill="#FFBE02" xlink:href="#path-1"></use>
                                <g id="Group-7" mask="url(#mask-2)">
                                    <g transform="translate(59.000000, 71.000000)">
                                        <g id="Group-6" transform="translate(24.000000, 0.000000)">
                                            <path d="M0,0 L9.441966,0.0274074074 C9.89764349,0.0274074074 10.3519526,0.0274074074 10.8924709,0.0274074074 L10.8924709,14.7780741 L23.9470152,14.7780741 L23.9470152,0.0698888889 L34.8312757,0.0698888889 L34.8312757,36.915037 L23.9962776,36.915037 L23.9962776,23.3141111 L10.9362597,23.3141111 L10.9362597,37 L0,37 L0,0 Z" id="Path" fill="#484848" fill-rule="nonzero"></path>
                                            <path d="M176.537679,24.9828461 C179.019604,28.9707304 181.483604,32.9215755 184,36.9629608 C183.746292,36.9753072 183.598755,36.9890254 183.448461,36.9890254 C179.703512,36.9890254 175.958563,36.9807945 172.212235,37 C171.754457,37 171.522811,36.8628179 171.328393,36.4512715 C169.893013,33.4908813 168.416268,30.5524402 166.980888,27.5906782 C166.767167,27.1489518 166.507943,27.0035387 166.032241,27.0103978 C164.337638,27.0350906 162.643034,27.0200006 160.886383,27.0200006 L160.886383,36.9341526 L149.925926,36.9341526 L149.925926,0.0376488714 C150.13689,0.0266743016 150.357505,0.00609698323 150.5795,0.00609698323 C156.11695,0.00609698323 161.654401,-0.00762122904 167.191852,0.00609698323 C169.988154,0.0143279106 172.738954,0.34905229 175.342218,1.44102199 C179.772454,3.30121157 182.161997,6.65394265 182.665276,11.3908413 C182.934909,13.7358073 182.697016,16.1110292 181.967579,18.3569495 C181.149689,20.9317938 179.439439,23.1340667 177.141614,24.5712997 C176.948575,24.6975072 176.765188,24.8278303 176.537679,24.9828461 Z M160.87811,18.5997619 C160.964226,18.6252436 161.052313,18.6435971 161.14147,18.6546347 C163.255243,18.6546347 165.369016,18.6779557 167.484167,18.6546347 C170.211527,18.6203392 171.929571,17.1168231 172.299102,14.4417718 C172.376065,13.8500984 172.381619,13.2513902 172.315648,12.6584042 C172.056425,10.1891259 170.523147,8.61015972 168.026054,8.46474667 C165.735789,8.32756454 163.434493,8.39204014 161.131818,8.37283464 C161.040668,8.39108365 160.953114,8.42398073 160.872595,8.47023395 L160.87811,18.5997619 Z" id="Shape" fill="#484848" fill-rule="nonzero"></path>
                                            <polygon id="Path" fill="#484848" fill-rule="nonzero" points="114.337449 0 144.070231 0 144.070231 8.30870438 125.16344 8.30870438 125.16344 14.347023 142.31206 14.347023 142.31206 22.7189846 125.152578 22.7189846 125.152578 28.6459154 144.625514 28.6459154 144.625514 37 114.337449 37"></polygon>
                                            <path d="M88.9146791,27.0555803 L88.9146791,37 L77.9917695,37 L77.9917695,0.00549491349 L78.6801304,0.00549491349 C84.0493448,0.00549491349 89.4185592,-0.00686864187 94.7795133,0.00549491349 C97.526073,0.0151110121 100.220317,0.36266429 102.757615,1.4959902 C107.116316,3.44531076 109.280522,6.91260117 109.708683,11.5654192 C109.912438,13.7730007 109.766505,15.96135 109.116693,18.0823866 C107.644977,22.8904359 104.230707,25.580196 99.4245722,26.5706542 C97.8000406,26.9058439 96.1080497,26.9635405 94.4435933,27.0322269 C92.6455948,27.1132769 90.8352058,27.0555803 88.9146791,27.0555803 Z M88.9559808,8.30968293 L88.9559808,18.6442415 C91.0775088,18.6442415 93.1659956,18.7623821 95.2352082,18.611272 C97.3044208,18.4601619 98.7403415,17.2966139 99.227701,15.2195366 C99.4038626,14.4157372 99.4609154,13.5905015 99.3970377,12.770179 C99.2428449,10.4897899 97.9156853,8.85505309 95.6674988,8.57618623 C93.4730045,8.29731937 91.2385853,8.37836935 88.9559808,8.30968293 Z" id="Shape" fill="#484848" fill-rule="nonzero"></path>
                                            <path d="M61.9054419,37 L51.1447142,37 L51.1447142,36.2627759 C51.1447142,32.9459539 51.1609364,29.6291319 51.1271402,26.3136827 C51.1148487,25.7747011 50.9807157,25.2458025 50.7351036,24.767846 C46.5659976,16.7494471 42.3820212,8.73745484 38.1831745,0.731869271 C38.0804339,0.535550749 37.9912118,0.329622231 37.8600823,0.0523051587 C38.1561375,0.0385765908 38.3913594,0.0179837389 38.6265814,0.0179837389 C41.6885221,0.0179837389 44.7518146,0.0303394501 47.8191627,0.00288231423 C48.3599028,0.00288231423 48.6532543,0.162133702 48.9101059,0.65498929 C51.2965721,5.24033098 53.6979087,9.81652028 56.1141156,14.3835572 C56.2263192,14.59635 56.3547449,14.7954142 56.5264299,15.094697 C56.6913556,14.8201257 56.8103184,14.6306714 56.9090035,14.4370986 C59.2666303,9.83802837 61.6170471,5.23483955 63.9602542,0.627532155 C64.1995317,0.153896561 64.4617906,-0.00535482652 64.9836048,0.000136600644 C68.0468973,0.0275937365 71.1101899,0.0138651686 74.1761861,0.0138651686 L74.962963,0.0138651686 C74.7926298,0.35570651 74.6709633,0.61243073 74.5411857,0.86503638 C70.4405734,8.79557245 66.3440167,16.7247357 62.2515155,24.652526 C62.0410078,25.0736929 61.9277412,25.5380251 61.9203122,26.0102814 C61.8946271,29.6510976 61.9054419,33.2864224 61.9054419,37 Z" id="Path" fill="#484848" fill-rule="nonzero"></path>
                                        </g>
                                        <g id="Group-5" transform="translate(0.000000, 50.000000)">
                                            <path d="M158.457516,37.2275741 L157.735953,37.2275741 C154.057776,37.2275741 150.378219,37.2151482 146.698662,37.24 C146.17577,37.24 145.937089,37.0563726 145.720482,36.6076591 C144.30357,33.6696211 142.848027,30.7509123 141.432495,27.8128743 C141.213128,27.3586381 140.96341,27.1653462 140.446037,27.1777721 C138.975318,27.2122885 137.503219,27.1888173 136.03112,27.1915786 C135.807615,27.1915786 135.58273,27.2164305 135.301279,27.2316177 L135.301279,37.1723478 L124.339869,37.1723478 L124.339869,0.0036817519 L125.086266,0.0036817519 C130.558003,0.0036817519 136.02974,-0.00460218987 141.504237,0.0036817519 C144.419461,0.0105850367 147.286398,0.351607306 149.985016,1.53759164 C154.28542,3.42633036 156.599112,6.76613955 157.101309,11.4120502 C157.377241,13.9676463 157.144079,16.4624934 156.266614,18.882785 C155.41208,21.2887425 153.774684,23.3376934 151.617155,24.7008735 C151.425382,24.8251326 151.237748,24.9535337 150.970094,25.1316384 C153.450725,29.1410663 155.920319,33.1311649 158.457516,37.2275741 Z M135.324733,8.4132633 L135.324733,18.7750938 C137.551507,18.7750938 139.731372,18.7971843 141.909857,18.7750938 C144.638828,18.7405774 146.357886,17.228758 146.727635,14.5364769 C146.805822,13.9410983 146.811844,13.3384472 146.745571,12.7416229 C146.487574,10.2564403 144.952011,8.69629798 142.454824,8.51405126 C140.829582,8.39531476 139.193304,8.43673447 137.562544,8.4132633 C136.832703,8.40497936 136.102862,8.4132633 135.324733,8.4132633 Z" id="Shape" fill="#484848" fill-rule="nonzero"></path>
                                            <polygon id="Path" fill="#484848" fill-rule="nonzero" points="62.6656037 14.8655435 62.6656037 0 73.5424837 0 73.5424837 37.24 62.6875883 37.24 62.6875883 23.5013472 49.5806456 23.5013472 49.5806456 37.2344625 38.6666667 37.2344625 38.6666667 0 49.5311803 0 49.5311803 14.8655435"></polygon>
                                            <polygon id="Path" fill="#484848" fill-rule="nonzero" points="201.673203 0 231.444006 0 231.444006 8.36259868 212.513038 8.36259868 212.513038 14.4400847 229.683587 14.4400847 229.683587 22.866351 212.502163 22.866351 212.502163 28.8317268 232 28.8317268 232 37.24 201.673203 37.24"></polygon>
                                            <path d="M197.882353,5.65370108 L191.690286,13.1438662 C190.274661,11.8241364 188.623823,10.7817583 186.823515,10.0708719 C184.38944,9.12236579 181.886411,8.71153031 179.348905,9.54147314 C175.457143,10.8139602 173.33336,13.6277697 172.807931,17.6134254 C172.248025,21.8748096 174.140122,26.0410675 178.09808,27.9215359 C180.620416,29.1195763 183.200673,29.0520228 185.81265,28.2096722 C187.946086,27.5203509 187.950223,27.5327587 187.950223,25.2910859 L187.950223,18.363407 L197.344512,18.363407 C197.356924,18.6212131 197.378989,18.8666115 197.378989,19.1133885 C197.378989,23.5939769 197.369335,28.0745653 197.39278,32.553775 C197.39278,33.0900669 197.209362,33.3809605 196.768057,33.6484172 C192.651505,36.0955077 188.195699,37.4700144 183.439254,37.8973936 C179.0262,38.2944427 174.810354,37.5582475 170.947553,35.3551767 C165.320909,32.1470754 162.213843,27.2460011 161.586362,20.7994684 C160.655483,11.2372035 166.551048,3.05495983 176.305276,0.737461662 C183.672319,-1.01479305 190.509794,0.373500023 196.740475,4.71070956 C197.016291,4.90785545 197.282453,5.13533147 197.549995,5.35177836 C197.643772,5.42346777 197.718242,5.50618632 197.882353,5.65370108 Z" id="Path" fill="#484848" fill-rule="nonzero"></path>
                                            <path d="M119.79085,37.2389679 C116.0195,37.2389679 112.355398,37.2458722 108.691297,37.2196359 C108.506667,37.2196359 108.231078,36.9724624 108.156412,36.7777615 C107.548217,35.1704432 106.964006,33.5539193 106.403779,31.9281896 C106.247658,31.4766491 106.049452,31.2860908 105.541718,31.2888525 C101.01646,31.3118668 96.4912018,31.3118668 91.965944,31.2888525 C91.4568524,31.2888525 91.2667916,31.4849343 91.1106702,31.9281896 C90.5468231,33.5281433 89.9585396,35.1188912 89.3458196,36.7004335 C89.2602923,36.9213707 88.9779162,37.2141125 88.7837826,37.2168742 C85.2540815,37.2472531 81.7243803,37.2389679 78.0915033,37.2389679 C78.2068973,36.937941 78.2937823,36.6935292 78.394243,36.4546408 C83.3810772,24.5332368 88.3638387,12.6118328 93.3425274,0.690428803 C93.5665277,0.150513479 93.8366856,0 94.3837892,0 C97.6419749,0.0248554369 100.900161,0.0248554369 104.158346,0 C104.622638,0 104.82899,0.151894337 104.998687,0.574436764 C109.842523,12.5759305 114.692694,24.5792654 119.549201,36.5844414 C119.625225,36.7722381 119.693104,36.9641773 119.79085,37.2389679 Z M100.105978,5.22654604 L99.9702201,5.20721404 L93.2529273,18.1872755 C93.5991095,18.1872755 93.8190371,18.1872755 94.037607,18.1872755 C95.5309421,18.154135 97.0242772,18.1375647 98.5176123,18.0726644 C99.0511402,18.0491898 99.2208374,18.2107501 99.2154071,18.7630932 C99.1896131,21.2928243 99.2031889,23.8239363 99.2059041,26.35781 C99.2059041,26.5966984 99.2262677,26.8369676 99.2371283,27.075856 L99.363383,27.0993305 L106.090179,14.099937 C105.735851,14.099937 105.518639,14.099937 105.301426,14.099937 C103.808091,14.1358393 102.314756,14.1537905 100.821421,14.2214525 C100.287893,14.2463079 100.119554,14.0833667 100.124984,13.5310237 C100.14942,10.9999117 100.135845,8.4687997 100.134487,5.93630685 C100.14399,5.70432277 100.122269,5.46543441 100.111408,5.22654604 L100.105978,5.22654604 Z" id="Shape" fill="#484848" fill-rule="nonzero"></path>
                                            <path d="M28.6630645,24.1839285 L34.7901707,30.8461911 C34.7497247,30.9297033 34.7009842,31.0088019 34.644708,31.0822555 C30.1965404,35.5881869 24.9041453,38.2263104 18.5500085,37.984724 C11.3108604,37.7086253 5.52362027,34.5666216 2.15894578,27.8698467 C-3.26939573,17.0619615 1.6613818,2.97540383 15.568703,0.398022093 C22.5169258,-0.892739514 28.6508293,0.97920994 33.9663353,5.674269 C34.2559012,5.93104083 34.5427482,6.19057365 34.875817,6.48876029 L28.6222806,14.0386803 C28.3911716,13.7763865 28.1858925,13.5403221 27.9778944,13.3083992 C26.4539348,11.6159139 24.6798337,10.3003034 22.5169258,9.58106617 C18.6574062,8.29030456 14.5545425,9.78952072 12.5466136,13.3719019 C10.5386846,16.954283 10.5536387,20.6388207 12.5819596,24.2032554 C14.7135999,27.9485348 18.9714425,29.3704433 23.0756657,27.792539 C24.1075917,27.3839939 25.0960057,26.8701162 26.0257035,26.2588105 C26.9324663,25.6596763 27.7440665,24.9128292 28.6630645,24.1839285 Z" id="Path" fill="#484848" fill-rule="nonzero"></path>
                                            <path d="M100.130066,5.33251167 C100.140971,5.57301375 100.162779,5.81351583 100.164142,6.05401791 C100.164142,8.60083764 100.179136,11.1490476 100.154601,13.7000378 C100.154601,14.256112 100.318166,14.4173735 100.85384,14.3951306 C102.353182,14.3270115 103.852524,14.3089391 105.351866,14.2727942 C105.569952,14.2727942 105.788038,14.2727942 106.143791,14.2727942 L99.3899367,27.36 L99.2631742,27.3363668 C99.2522699,27.0958648 99.2318243,26.8539725 99.2318243,26.6134704 C99.2318243,24.0652605 99.2154679,21.5170506 99.2413656,18.9674505 C99.2413656,18.4113763 99.076438,18.2487246 98.540764,18.2723578 C97.041422,18.3376965 95.54208,18.3543787 94.042738,18.3877432 C93.8232889,18.3877432 93.6024767,18.3877432 93.254902,18.3877432 L99.9992148,5.32 L100.130066,5.33251167 Z" id="Path" fill="#FFBE02" fill-rule="nonzero"></path>
                                        </g>
                                    </g>
                                </g>
                            </g>
                        </g>
                    </g>
                </g>
            </g>
        </g>
    </g>
</svg>