<?xml version="1.0" encoding="UTF-8"?>
<svg width="350px" height="230px" viewBox="0 0 350 230" version="1.1" xmlns="http://www.w3.org/2000/svg" xmlns:xlink="http://www.w3.org/1999/xlink">
    <!-- Generator: Sketch 54.1 (76490) - https://sketchapp.com -->
    <title>Riafy Solutions List image@PNG</title>
    <desc>Created with Sketch.</desc>
    <defs>
        <rect id="path-1" x="0" y="0" width="350" height="230"></rect>
    </defs>
    <g id="Page-1" stroke="none" stroke-width="1" fill="none" fill-rule="evenodd">
        <g id="Desktop-HD" transform="translate(-150.000000, -4964.000000)">
            <g id="Blog" transform="translate(0.000000, 4794.000000)">
                <g id="Item-1" transform="translate(150.000000, 170.000000)">
                    <g id="Content/Blog/Dark/Article-(Var-2)">
                        <g id="Image">
                            <g id="Riafy-Solutions-List-image">
                                <mask id="mask-2" fill="white">
                                    <use xlink:href="#path-1"></use>
                                </mask>
                                <use id="Path" fill="#FB515E" xlink:href="#path-1"></use>
                                <g id="Riafy-Solutions-Logo-Rectangle" mask="url(#mask-2)">
                                    <g transform="translate(37.000000, 28.000000)">
                                        <rect id="Rectangle" x="0" y="0" width="276" height="174"></rect>
                                        <g id="Group" stroke-width="1" fill-rule="evenodd" transform="translate(14.000000, 19.000000)">
                                            <g id="Asset-2" transform="translate(11.783159, 0.340308)" fill="#FFFFFF" fill-rule="nonzero">
                                                <path d="M56.033138,19.2964109 C56.033138,24.2765246 55.0518115,28.4796426 53.0891583,31.905765 C51.2073769,35.2567471 48.2670872,37.8830188 44.7326444,39.3698174 L51.2057427,68.657046 L29.8725562,68.657046 L26.2154386,43.6402343 L23.6737418,43.6402343 L19.3217717,68.657046 L0,68.657046 L11.8856325,0 L35.553279,0 C42.1848524,0 47.2641825,1.61721135 50.7912694,4.85163406 C54.3183562,8.08605677 56.0656458,12.9009824 56.033138,19.2964109 Z M35.6508022,21.9394196 C35.6508022,19.9367695 35.1184884,18.6111864 34.0538608,17.9626704 C33.1458093,17.3654346 32.0913308,17.0309686 31.0062627,16.9960144 L28.3060908,16.9960144 L26.0874394,29.6726674 L28.2146629,29.6726674 C30.0843219,29.6941146 31.9061364,29.0795319 33.3833892,27.9290158 C34.8949979,26.7665814 35.6508022,24.7700493 35.6508022,21.9394196 Z" id="Shape"></path>
                                                <polygon id="Path" points="72.2702311 68.657046 51.795037 68.657046 63.6779621 0 84.1775314 0"></polygon>
                                                <path d="M110.405152,58.5744572 L98.1347428,58.5744572 L94.5627309,68.657046 L73.4963945,68.657046 L102.291931,0 L127.314301,0 L130.886313,68.657046 L110.405152,68.657046 L110.405152,58.5744572 Z M102.96854,43.1569063 L110.69774,43.1569063 L110.69774,20.5567345 L110.313719,20.5567345 L102.96854,43.1569063 Z" id="Shape"></path>
                                                <polygon id="Path" points="176.614883 18.3297549 160.556137 18.3297549 159.232145 26.4729137 174.125533 26.4729137 171.129772 43.9277838 156.303499 43.9277838 151.953238 68.657046 131.818793 68.657046 143.71642 0 179.714367 0"></polygon>
                                                <polygon id="Path" points="201.976787 68.657046 181.491329 68.657046 185.45429 46.0629923 176.662614 4.34715428e-15 198.001633 4.34715428e-15 199.257586 25.3104794 199.538042 25.3104794 209.585672 0 231.424633 0 205.945845 46.0629923"></polygon>
                                            </g>
                                            <g id="Group-2" transform="translate(0.000000, 79.461810)">
                                                <path d="M233.792912,7.10542736e-15 L223.918985,56.7462821 L1.40119027e-11,56.7462821 L9.87392775,0 L233.792912,0 Z" id="Combined-Shape" fill="#FFFFFF"></path>
                                                <path d="M35.0103932,22.1450196 L30.8105993,22.1450196 L30.8105993,21.1963653 C30.8105993,20.2339576 30.584142,19.4021749 30.1312208,18.7009921 C29.6782996,17.9998094 28.9165799,17.6492232 27.8460388,17.6492232 C27.2695936,17.6492232 26.7960922,17.759211 26.4255203,17.9791899 C26.0549484,18.1991688 25.7667301,18.4810126 25.5608568,18.8247296 C25.3549835,19.1684467 25.2108744,19.5671524 25.1285251,20.0208589 C25.0461757,20.4745654 25.0050017,20.9488878 25.0050017,21.4438403 C25.0050017,22.0212849 25.0255887,22.5093558 25.0667634,22.9080676 C25.107938,23.3067793 25.2108731,23.6504912 25.3755718,23.9392135 C25.5402704,24.2279358 25.7804523,24.4822826 26.0961247,24.7022615 C26.411797,24.9222404 26.8441244,25.142216 27.3931199,25.3621949 L30.604727,26.6408159 C31.5380192,26.9982816 32.2928766,27.4176101 32.8693218,27.8988139 C33.445767,28.3800178 33.8918191,28.9437053 34.2074914,29.5898933 C34.5231638,30.2360813 34.7358963,30.978499 34.8456954,31.8171685 C34.9554945,32.6558381 35.0103932,33.6113571 35.0103932,34.6837542 C35.0103932,35.9211356 34.8868711,37.0691332 34.6398232,38.1277817 C34.3927752,39.1864302 33.9878972,40.0938295 33.4251769,40.850007 C32.8624566,41.6061845 32.1144615,42.2042431 31.1811693,42.6442009 C30.2478771,43.0841587 29.1087287,43.3041343 27.7636899,43.3041343 C26.7480484,43.3041343 25.8010455,43.1254042 24.9226528,42.7679384 C24.0442601,42.4104727 23.2894028,41.9224019 22.658058,41.3037112 C22.0267133,40.6850205 21.5257625,39.9494771 21.1551906,39.0970589 C20.7846187,38.2446406 20.5993355,37.3234928 20.5993355,36.3335878 L20.5993355,34.7662459 L24.7991295,34.7662459 L24.7991295,36.0861127 C24.7991295,36.8560389 25.0255867,37.5503369 25.4785079,38.1690275 C25.9314291,38.7877182 26.6931488,39.0970589 27.7636899,39.0970589 C28.477384,39.0970589 29.0332335,38.9939453 29.4312552,38.7877151 C29.8292768,38.5814849 30.1312198,38.2927669 30.3370931,37.9215525 C30.5429664,37.5503381 30.6733508,37.0897642 30.7282504,36.5398169 C30.7831499,35.9898697 30.8105993,35.3849368 30.8105993,34.7250001 C30.8105993,33.9550739 30.7831499,33.3226441 30.7282504,32.8276915 C30.6733508,32.332739 30.556691,31.9340332 30.3782675,31.6315622 C30.199844,31.3290913 29.9527998,31.0816187 29.6371274,30.8891372 C29.321455,30.6966556 28.9028523,30.4904285 28.3813067,30.2704496 L25.3755718,29.0330745 C23.5638869,28.2906457 22.3492527,27.3076297 21.7316329,26.0839971 C21.114013,24.8603644 20.8052077,23.3274095 20.8052077,21.4850862 C20.8052077,20.3851916 20.9561792,19.3403075 21.2581267,18.3504025 C21.5600742,17.3604974 22.0061263,16.508092 22.5962963,15.7931605 C23.1864664,15.0782291 23.9344615,14.5076674 24.8403039,14.0814583 C25.7461464,13.6552492 26.8029467,13.4421478 28.0107366,13.4421478 C29.0538279,13.4421478 30.0076931,13.6346264 30.8723609,14.0195895 C31.7370287,14.4045526 32.4781614,14.9132462 33.0957813,15.5456855 C33.7134011,16.1781249 34.1869026,16.8861713 34.5162998,17.6698462 C34.8456971,18.453521 35.0103932,19.2578068 35.0103932,20.0827277 L35.0103932,22.1450196 Z M44.5047372,20.6189236 C44.5047372,19.436537 44.7104657,18.3916529 45.121929,17.4842399 C45.5333923,16.5768269 46.0751442,15.827535 46.7472009,15.2363417 C47.4192576,14.6451484 48.1735956,14.198323 49.0102376,13.895852 C49.8468796,13.593381 50.6903667,13.4421478 51.5407242,13.4421478 C52.3910816,13.4421478 53.2345687,13.593381 54.0712107,13.895852 C54.9078528,14.198323 55.6621908,14.6451484 56.3342475,15.2363417 C57.0063042,15.827535 57.5480561,16.5768269 57.9595194,17.4842399 C58.3709826,18.3916529 58.5767112,19.436537 58.5767112,20.6189236 L58.5767112,36.1273586 C58.5767112,37.3372425 58.3709826,38.3890009 57.9595194,39.2826652 C57.5480561,40.1763294 57.0063042,40.9187471 56.3342475,41.5099404 C55.6621908,42.1011337 54.9078528,42.5479591 54.0712107,42.8504301 C53.2345687,43.1529011 52.3910816,43.3041343 51.5407242,43.3041343 C50.6903667,43.3041343 49.8468796,43.1529011 49.0102376,42.8504301 C48.1735956,42.5479591 47.4192576,42.1011337 46.7472009,41.5099404 C46.0751442,40.9187471 45.5333923,40.1763294 45.121929,39.2826652 C44.7104657,38.3890009 44.5047372,37.3372425 44.5047372,36.1273586 L44.5047372,20.6189236 Z M48.6585126,36.1668381 C48.6585126,37.1838392 48.9439462,37.9328355 49.5148219,38.4138496 C50.0856975,38.8948636 50.7609915,39.135367 51.5407242,39.135367 C52.3204568,39.135367 52.9957508,38.8948636 53.5666265,38.4138496 C54.1375022,37.9328355 54.4229357,37.1838392 54.4229357,36.1668381 L54.4229357,20.6645209 C54.4229357,19.6475198 54.1375022,18.8985235 53.5666265,18.4175095 C52.9957508,17.9364954 52.3204568,17.695992 51.5407242,17.695992 C50.7609915,17.695992 50.0856975,17.9364954 49.5148219,18.4175095 C48.9439462,18.8985235 48.6585126,19.6475198 48.6585126,20.6645209 L48.6585126,36.1668381 Z M69.0883063,13.6973784 L73.2694092,13.6973784 L73.2694092,38.8440503 L81.5496327,38.8440503 L81.5496327,43.0489037 L69.0883063,43.0489037 L69.0883063,13.6973784 Z M104.607325,36.4591184 C104.607325,37.421274 104.428109,38.3146909 104.069672,39.1393957 C103.711235,39.9641005 103.221837,40.6857065 102.601465,41.3042351 C101.981093,41.9227637 101.257336,42.4107068 100.430173,42.7680789 C99.6030105,43.125451 98.7207166,43.3041343 97.7832654,43.3041343 C96.8458141,43.3041343 95.9635202,43.125451 95.1363574,42.7680789 C94.3091945,42.4107068 93.5854378,41.9227637 92.9650656,41.3042351 C92.3446935,40.6857065 91.8552961,39.9641005 91.4968588,39.1393957 C91.1384216,38.3146909 90.9592057,37.421274 90.9592057,36.4591184 L90.9592057,13.6973784 L95.1777153,13.6973784 L95.1777153,36.046768 C95.1777153,37.0913941 95.4258604,37.8611071 95.9221582,38.35593 C96.4184559,38.8507529 97.0388188,39.0981607 97.7832654,39.0981607 C98.527712,39.0981607 99.1480748,38.8507529 99.6443725,38.35593 C100.14067,37.8611071 100.388815,37.0913941 100.388815,36.046768 L100.388815,13.6973784 L104.607325,13.6973784 L104.607325,36.4591184 Z M118.022701,17.6548875 L113.169189,17.6548875 L113.169189,13.6973784 L127.071621,13.6973784 L127.071621,17.6548875 L122.218109,17.6548875 L122.218109,43.0489037 L118.022701,43.0489037 L118.022701,17.6548875 Z M135.803027,13.6973784 L139.956802,13.6973784 L139.956802,43.0489037 L135.803027,43.0489037 L135.803027,13.6973784 Z M150.637939,20.6189236 C150.637939,19.436537 150.843667,18.3916529 151.255131,17.4842399 C151.666594,16.5768269 152.208346,15.827535 152.880403,15.2363417 C153.552459,14.6451484 154.306797,14.198323 155.143439,13.895852 C155.980081,13.593381 156.823568,13.4421478 157.673926,13.4421478 C158.524283,13.4421478 159.36777,13.593381 160.204412,13.895852 C161.041055,14.198323 161.795393,14.6451484 162.467449,15.2363417 C163.139506,15.827535 163.681258,16.5768269 164.092721,17.4842399 C164.504184,18.3916529 164.709913,19.436537 164.709913,20.6189236 L164.709913,36.1273586 C164.709913,37.3372425 164.504184,38.3890009 164.092721,39.2826652 C163.681258,40.1763294 163.139506,40.9187471 162.467449,41.5099404 C161.795393,42.1011337 161.041055,42.5479591 160.204412,42.8504301 C159.36777,43.1529011 158.524283,43.3041343 157.673926,43.3041343 C156.823568,43.3041343 155.980081,43.1529011 155.143439,42.8504301 C154.306797,42.5479591 153.552459,42.1011337 152.880403,41.5099404 C152.208346,40.9187471 151.666594,40.1763294 151.255131,39.2826652 C150.843667,38.3890009 150.637939,37.3372425 150.637939,36.1273586 L150.637939,20.6189236 Z M154.791714,36.1668381 C154.791714,37.1838392 155.077148,37.9328355 155.648024,38.4138496 C156.218899,38.8948636 156.894193,39.135367 157.673926,39.135367 C158.453659,39.135367 159.128953,38.8948636 159.699828,38.4138496 C160.270704,37.9328355 160.556137,37.1838392 160.556137,36.1668381 L160.556137,20.6645209 C160.556137,19.6475198 160.270704,18.8985235 159.699828,18.4175095 C159.128953,17.9364954 158.453659,17.695992 157.673926,17.695992 C156.894193,17.695992 156.218899,17.9364954 155.648024,18.4175095 C155.077148,18.8985235 154.791714,19.6475198 154.791714,20.6645209 L154.791714,36.1668381 Z M174.967195,13.6973784 L179.004292,13.6973784 L185.3483,31.3824969 L185.43069,31.3824969 L185.43069,13.6973784 L189.632566,13.6973784 L189.632566,43.0489037 L185.677859,43.0489037 L179.251461,25.4050093 L179.169071,25.4050093 L179.169071,43.0489037 L174.967195,43.0489037 L174.967195,13.6973784 Z M213.622738,22.1450196 L209.422944,22.1450196 L209.422944,21.1963653 C209.422944,20.2339576 209.196487,19.4021749 208.743566,18.7009921 C208.290645,17.9998094 207.528925,17.6492232 206.458384,17.6492232 C205.881939,17.6492232 205.408437,17.759211 205.037865,17.9791899 C204.667293,18.1991688 204.379075,18.4810126 204.173202,18.8247296 C203.967329,19.1684467 203.82322,19.5671524 203.74087,20.0208589 C203.658521,20.4745654 203.617347,20.9488878 203.617347,21.4438403 C203.617347,22.0212849 203.637934,22.5093558 203.679109,22.9080676 C203.720283,23.3067793 203.823218,23.6504912 203.987917,23.9392135 C204.152616,24.2279358 204.392797,24.4822826 204.70847,24.7022615 C205.024142,24.9222404 205.45647,25.142216 206.005465,25.3621949 L209.217072,26.6408159 C210.150364,26.9982816 210.905222,27.4176101 211.481667,27.8988139 C212.058112,28.3800178 212.504164,28.9437053 212.819837,29.5898933 C213.135509,30.2360813 213.348241,30.978499 213.458041,31.8171685 C213.56784,32.6558381 213.622738,33.6113571 213.622738,34.6837542 C213.622738,35.9211356 213.499216,37.0691332 213.252168,38.1277817 C213.00512,39.1864302 212.600242,40.0938295 212.037522,40.850007 C211.474802,41.6061845 210.726807,42.2042431 209.793514,42.6442009 C208.860222,43.0841587 207.721074,43.3041343 206.376035,43.3041343 C205.360394,43.3041343 204.413391,43.1254042 203.534998,42.7679384 C202.656605,42.4104727 201.901748,41.9224019 201.270403,41.3037112 C200.639058,40.6850205 200.138108,39.9494771 199.767536,39.0970589 C199.396964,38.2446406 199.211681,37.3234928 199.211681,36.3335878 L199.211681,34.7662459 L203.411475,34.7662459 L203.411475,36.0861127 C203.411475,36.8560389 203.637932,37.5503369 204.090853,38.1690275 C204.543774,38.7877182 205.305494,39.0970589 206.376035,39.0970589 C207.089729,39.0970589 207.645579,38.9939453 208.0436,38.7877151 C208.441622,38.5814849 208.743565,38.2927669 208.949438,37.9215525 C209.155311,37.5503381 209.285696,37.0897642 209.340595,36.5398169 C209.395495,35.9898697 209.422944,35.3849368 209.422944,34.7250001 C209.422944,33.9550739 209.395495,33.3226441 209.340595,32.8276915 C209.285696,32.332739 209.169036,31.9340332 208.990613,31.6315622 C208.812189,31.3290913 208.565145,31.0816187 208.249473,30.8891372 C207.9338,30.6966556 207.515197,30.4904285 206.993652,30.2704496 L203.987917,29.0330745 C202.176232,28.2906457 200.961598,27.3076297 200.343978,26.0839971 C199.726358,24.8603644 199.417553,23.3274095 199.417553,21.4850862 C199.417553,20.3851916 199.568524,19.3403075 199.870472,18.3504025 C200.172419,17.3604974 200.618471,16.508092 201.208641,15.7931605 C201.798812,15.0782291 202.546807,14.5076674 203.452649,14.0814583 C204.358491,13.6552492 205.415292,13.4421478 206.623082,13.4421478 C207.666173,13.4421478 208.620038,13.6346264 209.484706,14.0195895 C210.349374,14.4045526 211.090507,14.9132462 211.708126,15.5456855 C212.325746,16.1781249 212.799248,16.8861713 213.128645,17.6698462 C213.458042,18.453521 213.622738,19.2578068 213.622738,20.0827277 L213.622738,22.1450196 Z" id="SOLUTIONS" fill="#FB515E" fill-rule="nonzero"></path>
                                            </g>
                                        </g>
                                    </g>
                                </g>
                            </g>
                        </g>
                    </g>
                </g>
            </g>
        </g>
    </g>
</svg>