<?xml version="1.0" encoding="UTF-8"?>
<svg width="350px" height="230px" viewBox="0 0 350 230" version="1.1" xmlns="http://www.w3.org/2000/svg" xmlns:xlink="http://www.w3.org/1999/xlink">
    <!-- Generator: Sketch 54.1 (76490) - https://sketchapp.com -->
    <title>Magicwalllistimage@PNG</title>
    <desc>Created with Sketch.</desc>
    <defs>
        <rect id="path-1" x="0" y="0" width="350" height="230"></rect>
    </defs>
    <g id="Page-1" stroke="none" stroke-width="1" fill="none" fill-rule="evenodd">
        <g id="Desktop-HD" transform="translate(-940.000000, -4964.000000)">
            <g id="Blog" transform="translate(0.000000, 4794.000000)">
                <g id="Item-3" transform="translate(940.000000, 170.000000)">
                    <g id="Content/Blog/Dark/Article-(Var-2)">
                        <g id="Image">
                            <g id="Magicwalllistimage">
                                <mask id="mask-2" fill="white">
                                    <use xlink:href="#path-1"></use>
                                </mask>
                                <use id="Path" fill="#29C1FF" xlink:href="#path-1"></use>
                                <g id="Asset-1" mask="url(#mask-2)" fill-rule="nonzero">
                                    <g transform="translate(75.000000, 48.000000)">
                                        <path d="M100.177022,47.1743707 C100.177022,48.4273311 100.091057,49.6837337 100.177022,50.9263675 C100.452109,54.3685664 99.723127,57.6317709 98.7671976,60.9087442 C98.4233381,62.134167 97.8112683,62.4852713 96.5836899,62.4818291 C85.1228531,62.4370805 73.6620163,62.4474071 62.197741,62.4474071 C42.2882766,62.4474071 22.3788122,62.4474071 2.46934777,62.4474071 C0.0245067991,62.4474071 0.0210682042,62.4474071 0.0210682042,60.0378679 C0.0210682042,46.2690724 -0.0614580731,32.500277 0.100155887,18.7314815 C0.127664646,16.2840781 1.100787,13.8297903 1.80226036,11.4271355 C1.9088568,11.0588202 2.89573353,10.7386958 3.48029466,10.7386958 C9.20899375,10.690505 14.9411314,10.6491986 20.6732691,10.7386958 C22.1617753,10.8122146 23.6050026,10.2148701 24.6070217,9.11053569 C27.2203538,6.45315817 29.8474403,3.80954944 32.591439,1.28985987 C33.37233,0.594356095 34.3642919,0.182121005 35.4076482,0.119512258 C42.7971886,0.0265728887 50.1936062,0.0678792751 57.5831466,0.0644370762 C67.1871422,0.0644370762 76.7876991,0.095416866 86.3916946,0.0265728887 C87.7877642,0.0265728887 88.5683252,0.494711934 89.2835529,1.63407976 C91.9003236,5.81290918 94.6099364,9.92977902 97.2920404,14.0673021 C97.6540183,14.6733176 98.1609735,15.1796212 98.7671976,15.5405632 C98.8766336,14.9354274 98.945559,14.3236484 98.9735133,13.7093134 C98.9116186,9.57867474 98.8497239,5.46868929 100.348951,1.499834 C100.737513,0.467174343 101.122635,0.0334572865 102.257371,0.0368994853 C114.347471,0.0690266747 126.438717,0.0690266747 138.531109,0.0368994853 L157.869767,0.0368994853 C160.163309,0.0368994853 160.170187,0.0368994853 160.170187,2.26400215 C160.170187,7.08308056 160.170187,11.902159 160.170187,16.7212374 C160.144088,17.4034502 160.321232,18.078024 160.679099,18.6591953 C161.053905,18.1325389 161.449344,17.6265357 161.803519,17.0826683 C165.214605,11.850526 168.646323,6.62871031 172.009269,1.36214605 C172.497665,0.453413575 173.478577,-0.0781322726 174.505689,0.00936189441 C182.412165,0.062142277 190.320933,0.062142277 198.231993,0.00936189441 C199.607431,0.00936189441 199.992554,0.405214764 199.989115,1.75111452 C199.947852,15.4028752 200.095712,29.0580781 199.875642,42.713281 C199.813747,46.4274136 198.871572,50.1071242 195.704626,52.8608833 C192.640838,55.5251452 189.92091,58.5887022 186.956841,61.373441 C186.259101,62.0002573 185.368934,62.3705373 184.432912,62.4233117 C176.524144,62.4990401 168.615376,62.4680603 160.706607,62.4646181 C154.310821,62.4646181 147.918473,62.4921557 141.522686,62.4405227 C140.233213,62.4405227 139.407951,62.7434362 139.284161,64.1375267 C139.258011,64.2493737 139.222349,64.3587757 139.177565,64.4645356 C137.86746,68.9703739 137.86746,68.9703739 133.263182,68.9703739 C128.964938,68.9703739 124.666694,68.9049722 120.371889,68.9979115 C118.77982,69.0323335 118.153996,68.6536916 118.19182,66.9325922 C118.281224,62.4577337 118.19182,62.3441411 113.642559,62.5128089 C111.551893,62.5885372 110.327754,61.9448461 109.244596,60.1411339 C106.83758,56.110319 104.172669,52.2240765 101.604038,48.2896432 C101.308319,47.8387151 100.961021,47.422209 100.641232,46.988492 L100.177022,47.1743707 Z M43.1444867,15.4717192 L43.1444867,17.7470126 C43.1444867,28.8205664 43.1685569,39.8906779 43.1204165,50.9607895 C43.1204165,52.475357 43.464276,53.1224904 45.1354331,53.0674152 C48.6840631,52.9538226 52.2430088,52.960707 55.7950773,53.0674152 C57.4180941,53.115606 57.8204097,52.52699 57.8169711,50.9848849 C57.7734156,35.5546548 57.7734156,20.1232773 57.8169711,4.69075235 C57.8169711,3.12455187 57.3733924,2.58068445 55.7847615,2.59445324 C49.3098873,2.65985502 42.8315746,2.57380005 36.360139,2.66673942 C35.3670406,2.73284506 34.4254506,3.1331673 33.6883508,3.80266504 C30.7552293,6.55642413 27.9837218,9.45131338 25.0609162,12.1981881 C24.4011172,12.7859164 23.5601396,13.1297059 22.6779699,13.1723304 C17.2346742,13.2583853 11.7913785,13.2515009 6.3480828,13.1929835 C5.00703079,13.1929835 4.55657486,13.5922786 4.56001346,14.9622738 C4.60586139,27.065045 4.60586139,39.1689636 4.56001346,51.2740296 C4.56001346,52.6199293 4.98639922,53.0915106 6.33432842,53.063973 C9.88639694,52.9916868 13.4453427,52.9538226 16.9939726,53.063973 C18.7339016,53.1224904 19.2703224,52.5579698 19.2531294,50.8196593 C19.1740417,43.422374 19.2153049,36.0182042 19.2256207,28.6209189 C19.2256207,25.5229399 18.9711646,25.9428881 21.9764966,25.8052002 C23.4963555,25.732914 23.9193027,26.2079374 23.9055483,27.7293893 C23.8298992,35.357302 23.8677238,42.9852147 23.8711624,50.6165696 C23.8711624,53.0261088 23.8711624,53.0261088 26.1956525,53.0261088 C29.5196276,53.0261088 32.8436026,53.0261088 36.1675777,53.0261088 C38.4748748,53.0261088 38.4851906,53.0261088 38.4851906,50.7508154 C38.4851906,39.6807038 38.4851906,28.6094449 38.4851906,17.5370385 L38.4851906,15.4717192 L43.1444867,15.4717192 Z M137.200373,39.1609318 C137.200373,32.9649738 137.169425,26.7690159 137.227881,20.5730579 C137.227881,19.2202738 136.784303,18.7624613 135.443251,18.7831145 C131.722691,18.8450741 127.998693,18.8313053 124.274695,18.7831145 C123.067748,18.7659035 122.634485,19.2787911 122.661994,20.4216012 C122.696379,21.8535559 122.661994,23.2889528 122.661994,24.7243497 C122.661994,29.4263934 122.661994,34.128437 122.661994,38.8373651 C122.661994,39.8115074 122.541643,40.5584645 121.286556,40.4379876 C120.773774,40.3760138 120.255408,40.3760138 119.742626,40.4379876 C118.322487,40.6307507 117.882347,40.0937677 117.896101,38.6342753 C117.962581,31.0614378 117.962581,23.4886003 117.896101,15.9157628 C117.896101,14.3564468 118.408452,13.9674783 119.866416,13.9881315 C125.024308,14.0500911 130.182201,13.9881315 135.340093,14.0191113 C136.715531,14.0191113 137.289776,13.6060474 137.23132,12.1431129 C137.128162,9.62342332 137.117846,7.09340716 137.23132,4.57027539 C137.303531,3.00407491 136.681145,2.62199083 135.233496,2.62887523 C125.323466,2.66788682 115.414582,2.65985502 105.506844,2.60477984 C103.94916,2.60477984 103.392108,3.09701428 103.402424,4.67009916 C103.447125,14.759184 103.402424,24.8517111 103.467757,34.9442382 C103.514807,36.0162288 103.844632,37.0566228 104.423686,37.9596044 C106.944176,41.9904192 109.746631,45.8560086 112.119262,49.9694362 C113.4947,52.3789754 115.114278,53.4116351 117.868592,53.046762 C119.312802,52.8471145 121.417222,52.5338744 122.146204,53.3014847 C122.957713,54.1585922 122.655116,56.179163 122.637923,57.6902883 C122.62073,59.2014136 123.277502,59.5387491 124.618554,59.5146537 C128.170623,59.4561363 131.722691,59.4320409 135.278198,59.5146537 C136.79118,59.5490756 137.251952,59.036188 137.234759,57.5353893 C137.15911,51.4186019 137.200373,45.2811614 137.200373,39.1609318 Z M63.7588631,27.7397159 C63.7588631,35.5362964 63.7829332,43.336319 63.7347929,51.1466682 C63.7347929,52.5235478 64.0786524,53.1052794 65.5538096,53.0708574 C69.1608956,52.9848024 72.7748589,52.9985712 76.3785063,53.0708574 C77.6954882,53.0949528 78.1837686,52.7059843 78.1631371,51.315336 C78.0909266,45.9248525 78.1218739,40.5343691 78.1390669,35.1370013 C78.1390669,31.6948024 77.7195583,32.0734443 81.2544339,31.9632939 C82.7364683,31.9185454 83.070012,32.4899504 83.052819,33.8633877 C82.9909243,39.6531662 83.052819,45.4429447 83.0115559,51.2361654 C83.0115559,52.5407588 83.3726083,53.0880684 84.7618006,53.0605308 C88.4296352,52.9848024 92.0974697,52.9848024 95.7653043,53.0605308 C97.2060756,53.0915106 97.6462157,52.561412 97.6427771,51.1673214 C97.601514,41.0197192 97.6427771,30.8583481 97.5911982,20.7210725 C97.5808704,19.8708478 97.3434154,19.038884 96.9034792,18.3115333 C93.8706385,13.5199924 90.7415172,8.7904112 87.6983607,4.00231258 C87.2031429,3.08747431 86.2178977,2.54852467 85.1813092,2.62543303 C78.7098736,2.66329722 72.2349995,2.68050821 65.7635639,2.62543303 C64.1783716,2.62543303 63.700407,3.14520506 63.7244771,4.71484774 C63.793249,12.3737402 63.7554245,20.0567281 63.7588631,27.7397159 Z M178.078389,41.4740894 L178.078389,39.4810563 C178.078389,32.4865082 178.040564,25.4885179 178.078389,18.4836432 C178.105898,14.8073748 177.249687,15.2617451 181.496352,15.1929011 C182.60358,15.1722479 182.87179,15.6954621 182.837404,16.66272 C182.79958,18.3838194 182.868351,20.1049189 182.816773,21.8260183 C182.782387,23.0170191 183.270667,23.4266408 184.446666,23.4094298 C188.229121,23.3577968 192.011575,23.344028 195.79403,23.4094298 C197.141959,23.4335252 197.417046,22.8690046 197.406731,21.6642349 C197.362029,15.9295316 197.348275,10.1948283 197.406731,4.45324063 C197.423924,3.07636108 196.96659,2.64608622 195.642731,2.65641282 C189.054384,2.69427701 182.469474,2.62543303 175.884565,2.7252568 C174.96946,2.82924247 174.138689,3.30927504 173.591022,4.05050336 C170.437831,8.69402963 167.401552,13.4132843 164.37215,18.1428655 C163.946931,18.8123169 163.709396,19.5839274 163.684431,20.3768526 C163.639729,30.7034492 163.684431,41.0300458 163.646606,51.3359892 C163.646606,52.5579698 164.048922,53.0570886 165.365903,53.0329932 C172.009269,52.977918 178.652634,53.0329932 185.309754,52.9641492 C186.13919,52.9240788 186.929601,52.5995612 187.548279,52.0450821 C190.625821,49.1329819 193.638031,46.1451533 196.605538,43.1160183 C197.087064,42.5819547 197.367899,41.8967771 197.399853,41.1780603 C197.468625,36.7651614 197.399853,32.3488202 197.454871,27.9359213 C197.454871,26.7242673 197.035362,26.3352988 195.855924,26.3490676 C192.131926,26.4007006 188.407928,26.4282382 184.687368,26.3490676 C183.188141,26.3112034 182.837404,26.927357 182.864913,28.276699 C182.926808,31.4848283 182.864913,34.6963998 182.864913,37.9148558 C182.864913,42.2416998 182.864913,42.2416998 178.521967,41.7425809 C178.449757,41.7116011 178.401617,41.6634103 178.078389,41.4740894 Z M157.563732,35.9493602 C157.563732,30.7860619 157.539661,25.6227636 157.563732,20.4594653 C157.563732,19.3304241 157.29896,18.7693457 156.043873,18.7865567 C152.261418,18.8347475 148.478964,18.8209787 144.69651,18.7865567 C143.609914,18.7865567 143.169773,19.1755252 143.173212,20.297682 C143.200721,30.6793538 143.200721,41.0587307 143.173212,51.4358129 C143.173212,52.6577935 143.637422,53.029551 144.799667,53.0157822 C148.46521,52.9675914 152.13419,52.9538226 155.803171,53.0157822 C157.130469,53.0398776 157.59124,52.6268137 157.574047,51.2499342 C157.515591,46.1554799 157.560293,41.050699 157.563732,35.9493602 Z M150.42177,2.67362382 C148.533981,2.67362382 146.639316,2.67362382 144.758404,2.67362382 C143.726826,2.67362382 143.169773,2.97653732 143.193844,4.14688493 C143.248861,6.9534244 143.248861,9.75996388 143.193844,12.5665034 C143.176651,13.6232584 143.647738,14.0019003 144.624299,14.0019003 C148.454894,14.0019003 152.288927,13.9778049 156.12296,14.0019003 C157.226749,14.0019003 157.604995,13.5440878 157.580925,12.4425842 C157.51903,9.6888251 157.51903,6.93506601 157.580925,4.18130692 C157.608433,3.04882349 157.164855,2.64264403 156.085136,2.66329722 C154.197347,2.7080458 152.309559,2.67362382 150.42177,2.67362382 Z M82.6923077,22.7796731 C82.5103261,22.8669972 82.3193251,22.9332045 82.1228869,22.9770535 C77.1668173,22.9088675 77.9506496,23.8168172 77.9049553,18.710049 C77.9049553,17.1094737 77.9049553,15.5088985 77.9049553,13.4166667 L82.6923077,22.7796731 Z" id="Combined-Shape" fill="#6F2BE3"></path>
                                        <path d="M98.9286031,88.3126131 C98.969895,87.6293388 99.0662428,86.9187336 99.0455968,86.2252102 C98.949249,82.2348886 98.973336,78.2787307 100.421994,74.4489785 C100.810826,73.4240671 101.223745,72.9936044 102.342068,73.0004371 C107.847656,73.0448499 113.353244,73.0619318 118.858832,73.0004371 C120.255875,72.9833552 120.599974,73.4650636 120.596533,74.7769502 C120.5518,85.9348187 120.572446,97.0926872 120.575887,108.257388 C120.575887,110.501944 120.575887,110.512194 122.888234,110.51561 C126.215674,110.51561 129.539673,110.51561 132.867113,110.51561 C135.468503,110.51561 135.475385,110.51561 135.475385,107.990912 C135.475385,99.0536843 135.372155,90.1130407 135.554528,81.1792299 C135.602702,78.7331081 136.46295,76.293819 137.068564,73.8818609 C137.161471,73.5197255 137.894403,73.0790136 138.33485,73.0755973 C144.184537,73.0209353 150.034224,73.0482663 155.883912,73.0243517 C157.294719,73.0243517 157.040085,73.984352 157.040085,74.8008647 C157.040085,83.5672734 157.040085,92.3359596 157.040085,101.106923 C157.040085,103.384504 157.040085,105.662085 157.040085,107.939666 C157.040085,110.505361 157.040085,110.505361 159.713736,110.508777 C163.443772,110.508777 167.170367,110.560023 170.893521,110.481446 C172.400676,110.447282 173.030378,110.823083 172.995968,112.469774 C172.892738,117.362018 173.130166,122.267927 172.882415,127.160171 C172.76198,129.551631 171.905173,131.919176 171.261707,134.266223 C171.168801,134.60786 170.401459,134.949497 169.947248,134.966579 C158.823666,135.000743 147.69779,135.008714 136.569621,134.990494 L129.818393,134.990494 L62.0618089,134.990494 C52.5302596,134.990494 42.9952692,135.021241 33.4637199,134.935832 C32.4199757,134.876651 31.42747,134.467069 30.648988,133.774265 C27.7516723,131.106079 25.0367291,128.239744 22.1394134,125.574974 C21.3867533,124.924036 20.4352185,124.543738 19.4382343,124.495401 C13.5885469,124.399743 7.73885961,124.413408 1.88917229,124.471486 C0.512775268,124.471486 -0.0068146066,124.129849 6.73784928e-05,122.667642 C0.0551232592,108.66052 -0.041224532,94.6533981 0.11017914,80.646276 C0.134266088,78.3914709 1.12527194,76.1332495 1.76873755,73.9057755 C1.86852633,73.5641384 2.47758201,73.2703304 2.90770608,73.1370919 C3.3620459,73.0564448 3.82598576,73.0437777 4.2841031,73.0995119 L58.1218725,73.0995119 C67.6052479,73.0995119 77.0920644,73.1165937 86.5754398,73.0619318 C87.889899,73.0619318 88.6606813,73.4821454 89.3523208,74.5685515 C92.008767,78.7570227 94.7512381,82.8942483 97.4696222,87.0451393 C97.7930755,87.5370968 98.1578207,88.0051397 98.50192,88.486848 L98.9286031,88.3126131 Z M38.5150969,112.664507 L38.5150969,110.642016 C38.5150969,99.7711223 38.5150969,88.9002289 38.5150969,78.0293356 C38.5150969,75.5388009 38.5150969,75.5353846 36.1064022,75.5319682 L26.2892504,75.5319682 C23.9012016,75.5319682 23.8805556,75.5319682 23.8805556,77.858517 C23.8805556,85.4838577 23.8805556,93.1137535 23.8805556,100.748204 C23.8805556,101.291407 23.7532389,102.275322 23.5811893,102.299237 C22.3515139,102.514575 21.0958166,102.541076 19.8580354,102.377814 C19.544905,102.323152 19.2661846,101.065927 19.2627436,100.355322 C19.2214517,92.7299811 19.2214517,85.1000853 19.2627436,77.4656343 C19.2627436,75.9795128 18.7775637,75.4670571 17.270409,75.5046372 C13.6608078,75.5900465 10.0443246,75.5832138 6.43816443,75.5046372 C5.01703451,75.4738899 4.56282349,75.9521819 4.56970548,77.3631432 C4.61329138,89.318165 4.61329138,101.275464 4.56970548,113.235041 C4.56970548,114.816821 5.1615562,115.127711 6.58612711,115.110629 C11.8026718,115.042302 17.0192165,115.110629 22.2357612,115.059384 C23.4248856,114.973971 24.5893363,115.425874 25.4049153,116.289277 C28.1129765,119.070204 30.9105034,121.755471 33.7355583,124.433906 C34.310204,124.973693 35.1876571,125.489565 35.9309115,125.499814 C42.6959029,125.578391 49.4608942,125.530562 56.2327676,125.554476 C57.388941,125.554476 57.850034,125.141095 57.8465931,123.945365 C57.8190651,108.350769 57.8190651,92.7550345 57.8465931,77.1581609 C57.8465931,75.8667726 57.3545311,75.4875554 56.1260968,75.5046372 C52.5715515,75.5558828 49.0170062,75.5046372 45.4590199,75.5046372 C43.1879648,75.5046372 43.1810828,75.5046372 43.1810828,77.7833569 C43.1810828,88.2010116 43.1810828,98.6175276 43.1810828,109.032905 C43.1810828,113.21796 43.1810828,113.21796 38.9176931,112.838742 C38.7781014,112.793815 38.6432628,112.73546 38.5150969,112.664507 Z M63.8029512,100.522724 C63.8029512,108.206143 63.8339201,115.896395 63.7754232,123.576397 C63.7754232,125.028355 64.1608144,125.62622 65.70582,125.585224 C69.2569243,125.499814 72.8149106,125.503231 76.3728969,125.585224 C77.8077908,125.612554 78.2379149,125.100099 78.2207099,123.699387 C78.1518901,118.291271 78.193182,112.883155 78.193182,107.475039 C78.193182,104.465216 78.193182,104.540377 81.2900753,104.478882 C82.7593791,104.448135 83.1241243,104.970839 83.1103603,106.35447 C83.0449815,112.162301 83.1103603,117.970132 83.0621864,123.777963 C83.0621864,125.100099 83.4854285,125.609138 84.8342976,125.585224 C88.3888429,125.527145 91.9433882,125.503231 95.5013745,125.585224 C97.118641,125.62622 97.7036097,125.113764 97.6932867,123.449991 C97.6313489,113.487853 97.6932867,103.529131 97.6313489,93.5669921 C97.6230948,92.6687628 97.3736497,91.7889792 96.9087404,91.0183791 C93.887549,86.2354594 90.7596867,81.5516144 87.7178493,76.7994419 C87.1225576,75.870189 86.4205952,75.5353846 85.3091546,75.5422173 C78.8297656,75.5797974 72.3503766,75.6071284 65.8744287,75.5217191 C64.2021063,75.4978045 63.7272493,76.027342 63.7444543,77.6569511 C63.8442431,85.2686263 63.8029512,92.8939669 63.8029512,100.522724 Z M103.512005,100.464646 C103.512005,108.151481 103.512005,115.836039 103.512005,123.518319 C103.512005,124.601309 103.512005,125.568142 105.077657,125.547643 C114.193993,125.506647 123.309182,125.499814 132.423224,125.527145 C133.507137,125.527145 133.951025,125.144512 133.930379,124.017109 C133.871882,120.887713 133.847795,117.754901 133.930379,114.625505 C133.96823,113.258956 133.400466,113.023226 132.209883,113.036892 C128.139189,113.091554 124.065054,112.989063 119.9978,113.091554 C118.408062,113.129134 117.967615,112.650842 117.977938,111.075895 C118.043317,99.9761046 117.977938,88.8694816 118.050199,77.7765241 C118.050199,76.1093349 117.678571,75.4431425 115.865168,75.5148863 C112.489555,75.6515412 109.096736,75.6515412 105.721122,75.5148863 C103.931806,75.4431425 103.467272,76.0922531 103.481036,77.7560259 C103.546415,85.3232882 103.508564,92.8939669 103.512005,100.464646 Z M139.955557,100.57397 C139.955557,108.253972 139.955557,115.94764 139.955557,123.617394 C139.955557,124.81654 140.17234,125.533978 141.634762,125.527145 C150.691454,125.483871 159.752734,125.483871 168.818603,125.527145 C170.012627,125.527145 170.4049,125.076184 170.380813,123.904369 C170.318875,120.829635 170.305111,117.754901 170.380813,114.680166 C170.415223,113.388778 169.967894,113.01981 168.70505,113.040308 C164.634356,113.105219 160.563662,112.985646 156.496408,113.101803 C154.813763,113.146216 154.404285,112.59618 154.431813,110.980236 C154.500633,99.8838625 154.431813,88.7909051 154.497192,77.6945312 C154.497192,76.1025022 154.101478,75.4704735 152.391304,75.5319682 C149.01225,75.6515412 145.629754,75.5592992 142.247258,75.5627155 C140.007172,75.5627155 139.993408,75.5627155 139.993408,77.8790153 C139.968174,85.4474164 139.955557,93.0124011 139.955557,100.57397 Z M78.1265466,86.3538462 C79.5723456,89.0933649 81.0181446,91.8123372 82.6555556,94.9148421 C81.056467,94.9148421 79.8684731,94.9936033 78.6978985,94.8634761 C78.3843518,94.8292322 77.9070639,94.1785965 77.8966123,93.8087614 C77.8234514,91.3397702 77.85829,88.870779 77.85829,86.4017877 L78.1265466,86.3538462 Z" id="Combined-Shape" fill="#6F2BE3"></path>
                                        <path d="M42.398852,16.0039418 L37.767992,16.0039418 L37.767992,18.0906936 C37.767992,29.2756834 37.767992,40.4618325 37.767992,51.6491409 C37.767992,53.9410899 37.767992,53.9445679 35.4611186,53.9480458 C32.1525464,53.9480458 28.8439743,53.9480458 25.5354022,53.9480458 C23.2251061,53.9480458 23.2216835,53.9480458 23.2216835,51.513502 C23.2216835,43.802954 23.1806116,36.0958839 23.2559101,28.3888139 C23.2559101,26.8515734 22.8486135,26.3716204 21.3357974,26.4446567 C18.3409692,26.5837735 18.5976687,26.1420777 18.5976687,29.2895951 C18.5976687,36.7671224 18.5463288,44.2446498 18.62505,51.7186993 C18.6421633,53.4576591 18.1082282,54.0454275 16.3763619,53.9863029 C12.8441759,53.8645757 9.30172195,53.9028328 5.76611332,53.9863029 C4.42443028,54.0141263 3.99659768,53.5376513 4.00002034,52.1777847 C4.04109227,39.949419 4.04109227,27.719894 4.00002034,15.4892097 C4.00002034,14.0980418 4.44496625,13.6841693 5.77980397,13.7015589 C11.197876,13.7606836 16.6159481,13.7676394 22.0340202,13.6806914 C22.9121019,13.6376246 23.7491826,13.2902675 24.4059241,12.6964401 C27.3151858,9.91410438 30.0738504,6.98221806 32.9933801,4.21379398 C33.7252985,3.54203026 34.6584584,3.14019815 35.6425196,3.07303631 C42.0839672,2.97913248 48.5322602,3.07303631 54.9771305,3 C56.5583998,3 57.0067684,3.53559963 56.9999231,5.1180531 C56.9474423,20.7107265 56.9474423,36.3022405 56.9999231,51.8925952 C56.9999231,53.4507033 56.6028944,54.0454275 54.9873985,53.9967367 C51.4552126,53.8889212 47.9127586,53.8819653 44.37715,53.9967367 C42.7274275,54.0523834 42.3646254,53.3985345 42.3714708,51.8682498 C42.419388,40.68326 42.398852,29.4982702 42.3954294,18.3098025 L42.398852,16.0039418 Z" id="Path" fill="#FFFFFF"></path>
                                        <path d="M137.966696,39.5819807 C137.966696,45.7255195 137.92401,51.8725058 137.99871,58.0160445 C137.99871,59.5191775 137.539839,60.0328628 135.974697,59.9983873 C132.303727,59.9121984 128.629201,59.9363313 124.94756,59.9983873 C123.560275,60.0225201 122.880861,59.653632 122.898647,58.1711844 C122.916432,56.6887368 123.229461,54.6339954 122.389976,53.7755548 C121.635862,53.0067506 119.458891,53.3204779 117.964892,53.5204359 C115.119179,53.8996667 113.447323,52.8309254 112.017352,50.4383239 C109.562925,46.3184985 106.663855,42.4468969 104.056471,38.4098128 C103.457454,37.5054268 103.116258,36.4634146 103.067586,35.3897568 C102.996443,25.2815325 103.046243,15.1733083 103,5.06853156 C103,3.49300002 103.565585,3 105.17697,3 C115.423908,3.05745921 125.674402,3.0655035 135.928454,3.02413287 C137.42601,3.02413287 138.062739,3.3999161 137.995153,4.96855254 C137.87421,7.4887135 137.884882,10.0226647 137.995153,12.5531683 C138.055624,14.0183781 137.458025,14.4424271 136.038725,14.4320844 C130.703014,14.3872663 125.367303,14.4631124 120.031591,14.4010565 C118.523363,14.3803712 117.975564,14.7699446 117.993349,16.3316859 C118.076349,23.9163017 118.076349,31.5009174 117.993349,39.0855331 C117.993349,40.5335052 118.434435,41.0851137 119.903534,40.8920507 C120.433993,40.8299806 120.970231,40.8299806 121.50069,40.8920507 C122.799047,41.0196102 122.923547,40.2645961 122.923547,39.2889387 C122.902204,34.5795819 122.923547,29.870225 122.923547,25.1539731 C122.923547,23.7163436 122.955561,22.2787142 122.923547,20.8445323 C122.89509,19.6999448 123.343289,19.1862595 124.591846,19.2034973 C128.444229,19.2483154 132.296613,19.2621057 136.14544,19.2034973 C137.532725,19.1828119 138.002267,19.6413364 137.991596,20.9962246 C137.934682,27.1707913 137.966696,33.376386 137.966696,39.5819807 Z" id="Path" fill="#FFFFFF"></path>
                                        <path d="M63.0354826,28.4316305 C63.0354826,20.665514 63.0745134,12.8993975 63,5.11936316 C63,3.53273721 63.4683698,2.98994412 65.104116,3.00734133 C71.7819343,3.07693019 78.4633009,3.05953297 85.1411192,3.00734133 C86.2107659,2.92960083 87.2274319,3.47438182 87.7384428,4.39911849 C90.8786496,9.23902354 94.1253041,14.0197781 97.2371249,18.8631626 C97.6910912,19.5983831 97.9361191,20.4393487 97.9467762,21.2987726 C97.9929035,31.5561702 97.9467762,41.8274856 98,52.0744449 C98,53.4662221 97.5493715,54.0194535 96.0626521,53.9881385 C92.2778454,53.9092711 88.4930387,53.9092711 84.708232,53.9881385 C83.2889294,54.015974 82.8915247,53.4627426 82.9021695,52.1440338 C82.9518451,46.2881314 82.88088,40.4357085 82.9447486,34.5832855 C82.9624899,33.1915084 82.618309,32.6174003 81.0890105,32.662633 C77.4414031,32.7739752 77.8955799,32.3912365 77.8742903,35.8706794 C77.8742903,41.3160075 77.8246148,46.7648151 77.8991281,52.224061 C77.9204177,53.6158381 77.4165653,54.0229329 76.0575831,53.9985768 C72.3354623,53.9324674 68.6062449,53.9185496 64.8876723,53.9985768 C63.3583739,54.0333713 63.0035483,53.4314276 63.0106448,52.0535683 C63.0638686,44.1969862 63.0390308,36.3125686 63.0354826,28.4316305 Z M82.7247567,23.2750961 L77.8884834,14.1972297 C77.8884834,16.2257449 77.8884834,17.7775764 77.8884834,19.3294079 C77.9346107,24.2806551 77.1433496,23.4003561 82.1463909,23.4664655 C82.3459038,23.4242025 82.5399188,23.3600069 82.7247567,23.2750961 L82.7247567,23.2750961 Z" id="Shape" fill="#FFFFFF"></path>
                                        <path d="M177.965204,41.5415241 C178.299821,41.7296484 178.349657,41.7775345 178.399494,41.780955 C182.895462,42.2769189 182.895462,42.2769189 182.895462,37.9774251 C182.895462,34.7861541 182.941739,31.594883 182.895462,28.4001915 C182.866984,27.0593788 183.230079,26.44712 184.782132,26.4847448 C188.633785,26.5736763 192.488998,26.5463128 196.344211,26.4847448 C197.565206,26.4847448 198.017295,26.8575729 197.999496,28.0615679 C197.9461,32.4465727 197.999496,36.8349979 197.94254,41.2200027 C197.90946,41.9341765 197.618729,42.6150231 197.120237,43.1457108 C194.04817,46.1556985 190.929826,49.1246409 187.743847,52.0183336 C187.103369,52.5693077 186.285108,52.891774 185.426447,52.9315912 C178.549003,53.0034204 171.67156,52.9315912 164.779877,53 C163.43429,53 163,52.5279792 163,51.3137228 C163.021359,41.0524011 163,30.7910795 163.039157,20.5502805 C163.065002,19.7623674 163.310907,18.9956343 163.751108,18.3304146 C166.90505,13.6478314 170.055431,8.95840744 173.319725,4.35449446 C173.896847,3.62543469 174.763317,3.15959757 175.71188,3.06840881 C182.528808,2.96921604 189.345736,3.03762485 196.166223,3 C197.536728,3 198.010176,3.42755507 197.992377,4.78546997 C197.921182,10.4805035 197.935421,16.1789574 197.992377,21.8876727 C197.992377,23.0848269 197.718276,23.6457792 196.322852,23.6218361 C192.407124,23.5534273 188.491395,23.567109 184.575666,23.6218361 C183.35823,23.6218361 182.852745,23.2319059 182.888343,22.0484334 C182.941739,20.3382132 182.870544,18.6279929 182.909701,16.9177726 C182.93106,15.9566288 182.667638,15.4367218 181.521397,15.4572445 C177.125102,15.5256533 178.01148,15.0741552 177.983002,18.7271857 C177.929606,25.6775209 177.983002,32.6312765 177.983002,39.591873 L177.965204,41.5415241 Z" id="Path" fill="#FFFFFF"></path>
                                        <path d="M156.973257,36.0372166 C156.973257,41.1042182 156.926457,46.1746387 157,51.2450593 C157,52.612671 156.568768,53.0229545 155.278417,52.9990213 C151.714907,52.9340598 148.148054,52.9477359 144.581201,52.9990213 C143.451307,52.9990213 142.996675,52.6571184 143.000018,51.4296868 C143.033447,41.1201736 143.033447,30.8106604 143.000018,20.5011472 C143.000018,19.3865436 143.424564,18.9899362 144.480914,19.0001933 C148.158082,19.0343836 151.83525,19.0480597 155.512418,19.0001933 C156.73257,19.0001933 157,19.5404 156.989971,20.6618416 C156.949857,25.7835476 156.973257,30.9086726 156.973257,36.0372166 Z" id="Path" fill="#FFFFFF"></path>
                                        <path d="M150.033239,3.00072301 C151.869987,3.00072301 153.713427,3.02743632 155.543484,3.00072301 C156.594011,2.98068803 157.025597,3.3747093 156.998832,4.47329403 C156.943071,7.14462468 156.943071,9.81595532 156.998832,12.487286 C157.022251,13.5558182 156.664269,14.0066053 155.580286,13.9999269 C151.849913,13.9765528 148.11954,13.9999269 144.392513,13.9999269 C143.442355,13.9999269 142.984005,13.632619 143.000733,12.6074958 C143.047571,9.8849647 143.047571,7.16243355 143.000733,4.4399024 C142.977313,3.30458687 143.515959,2.99738385 144.522993,3.0107405 C146.356396,3.03411465 148.203181,3.0107405 150.033239,3.0107405 L150.033239,3.00072301 Z" id="Path" fill="#FFFFFF"></path>
                                        <path d="M37.7727191,112.826463 C37.8989687,112.90951 38.0331197,112.979435 38.1731448,113.03518 C42.4135508,113.421306 42.4135508,113.421306 42.4135508,109.160002 C42.4135508,98.5525446 42.4135508,87.9462466 42.4135508,77.3411081 C42.4135508,75.0313075 42.4135508,75.0243503 44.6792077,75.0208717 C48.2145906,75.0208717 51.7499735,75.0556578 55.2887788,75.0208717 C56.5140132,75.0034786 57,75.3896049 57,76.7045215 C56.9680572,92.5832408 56.9680572,108.468917 57,124.361551 C57,125.579066 56.5448152,126.003457 55.3948746,125.999979 C48.666353,125.975629 41.9378314,126.024329 35.2024649,125.944321 C34.4632174,125.944321 33.5904946,125.408614 33.0189467,124.858993 C30.2056991,122.149152 27.4266759,119.397567 24.7332138,116.565974 C23.9248265,115.673634 22.7614913,115.20271 21.5708771,115.285844 C16.3824546,115.341502 11.194032,115.268451 6.00560949,115.338023 C4.58871838,115.355416 3.99321341,115.038862 4.0000583,113.428263 C4.06166226,101.260067 4.06166226,89.0849133 4.0000583,76.9028026 C4.0000583,75.4661344 4.4449758,74.9791283 5.85844447,75.0104358 C9.44858646,75.0869654 13.0455733,75.0939226 16.6322929,75.0104358 C18.1313226,74.9721711 18.6241543,75.4939634 18.613887,77.007161 C18.5614095,84.7714304 18.5614095,92.5403378 18.613887,100.313883 C18.613887,101.037435 18.8945273,102.317566 19.2059695,102.373224 C20.4423814,102.527911 21.6948621,102.488019 22.9193194,102.254951 C23.0904415,102.230601 23.2136495,101.228759 23.2170719,100.675659 C23.2330433,92.9113901 23.2330433,85.1424827 23.2170719,77.368937 C23.2170719,75.0069572 23.2170719,75.0034786 25.6127815,75 L35.3633197,75 C37.7590293,75 37.7590293,75 37.7590293,77.5428678 C37.7590293,88.6118216 37.7590293,99.6807755 37.7590293,110.749729 L37.7727191,112.826463 Z" id="Path" fill="#FFFFFF"></path>
                                        <path d="M63.0354754,100.492287 C63.0354754,92.7212935 63.0780458,84.9537803 63,77.1758268 C63,75.5158341 63.4718224,74.9764235 65.1959254,75.0007839 C71.87239,75.0877856 78.5524022,75.0599451 85.2324144,75.0216643 C86.3605311,75.0216643 87.0842287,75.3696712 87.7156902,76.3023296 C90.851713,81.1431051 94.0764241,85.9316796 97.1911616,90.7863754 C97.6704659,91.5713431 97.9276347,92.46753 97.9361443,93.3825066 C97.9858099,103.530387 97.9361443,113.674787 98,123.822667 C98,125.517461 97.4075613,126.039471 95.7402189,125.99771 C92.0756132,125.910708 88.4110075,125.935069 84.7428542,125.99771 C83.3522197,126.02207 82.9016825,125.50354 82.9158727,124.156754 C82.9690857,118.240637 82.898135,112.32452 82.9655382,106.408404 C82.9655382,104.998976 82.6107845,104.466525 81.0888911,104.497846 C77.8961078,104.560487 77.8961078,104.497846 77.8961078,107.549866 C77.8961078,113.058815 77.8535374,118.567763 77.9244881,124.076712 C77.9244881,125.50354 77.4987837,126.025551 76.0194608,125.99771 C72.3584026,125.928109 68.6902493,125.924629 65.0220961,125.99771 C63.429252,126.035991 63.0212852,125.430459 63.0319278,123.95143 C63.0674032,116.149116 63.0354754,108.318961 63.0354754,100.492287 Z M78.1444354,86.5928926 L77.8748226,86.6450937 C77.8748226,89.1542232 77.8393473,91.6633527 77.9138455,94.1724822 C77.9138455,94.5552897 78.4105007,95.2165027 78.729779,95.2443433 C79.9217515,95.3765859 81.1314616,95.2965443 82.7597811,95.2965443 C81.0888911,92.1401221 79.6166633,89.3665073 78.1444354,86.5928926 Z" id="Shape" fill="#FFFFFF"></path>
                                        <path d="M104.02712,99.939503 C104.02712,92.3745852 104.061019,84.8096675 104,77.2447497 C104,75.582243 104.444082,74.9336264 106.206852,75.0053156 C109.532384,75.1452802 112.874865,75.1452802 116.200397,75.0053156 C117.986896,74.9336264 118.36318,75.5993118 118.35301,77.2652323 C118.285211,88.3565761 118.35301,99.4547474 118.281821,110.539264 C118.281821,112.113012 118.705564,112.587527 120.271716,112.553389 C124.278626,112.450976 128.292316,112.553389 132.302616,112.498769 C133.482316,112.498769 134.041656,112.734319 133.997587,114.086172 C133.906059,117.213187 133.929788,120.343616 133.997587,123.47063 C134.017927,124.597175 133.580624,124.979517 132.512793,124.979517 C123.531709,124.965862 114.551756,124.97269 105.572933,125 C104.02712,125 104.030509,124.054385 104.030509,122.97222 C104.032769,115.298061 104.031639,107.620489 104.02712,99.939503 Z" id="Path" fill="#FFFFFF"></path>
                                        <path d="M140.037357,100.05327 C140.037357,92.487035 140.037357,84.9196611 140.037357,77.3511483 C140.037357,75.0450637 140.037357,75.0382309 142.259486,75.0348145 C145.594375,75.0348145 148.929264,75.1236414 152.260761,75.0040667 C153.957043,74.9425711 154.343795,75.5746091 154.33701,77.1666616 C154.279336,88.263199 154.33701,99.3734022 154.272551,110.452858 C154.272551,112.068825 154.666088,112.618869 156.308089,112.574455 C160.318098,112.458297 164.3315,112.574455 168.344902,112.51296 C169.589973,112.492461 170.041184,112.854602 169.997081,114.152842 C169.919052,117.227622 169.932622,120.302401 169.997081,123.377181 C170.020829,124.549013 169.634076,125.003397 168.456857,124.999981 C159.527631,124.974927 150.593882,124.974927 141.655609,124.999981 C140.21377,124.999981 139.996646,124.289365 140.000039,123.090201 C140.027179,115.410085 140.000039,107.716304 140.000039,100.046437 L140.037357,100.05327 Z" id="Path" fill="#FFFFFF"></path>
                                    </g>
                                </g>
                            </g>
                        </g>
                    </g>
                </g>
            </g>
        </g>
    </g>
</svg>