<?xml version="1.0" encoding="UTF-8"?>
<svg width="3250px" height="2050px" viewBox="0 0 3250 2050" version="1.1" xmlns="http://www.w3.org/2000/svg" xmlns:xlink="http://www.w3.org/1999/xlink">
    <!-- Generator: Sketch 54.1 (76490) - https://sketchapp.com -->
    <title>Riafy Solutions Logo Rectangle@2x</title>
    <desc>Created with Sketch.</desc>
    <g id="Logo" stroke="none" stroke-width="1" fill="none" fill-rule="evenodd">
        <g id="Artboard-Copy-17" transform="translate(-1132.000000, -818.000000)">
            <g id="Riafy-Solutions-Logo-Rectangle" transform="translate(1132.000000, 818.000000)">
                <rect id="Rectangle" x="0" y="0" width="3250" height="2050"></rect>
                <g id="Group" transform="translate(222.000000, 225.000000)">
                    <path d="M700,812 L458.503157,812 L415.027163,516.727273 L384.593966,516.727273 L332.422772,812 L102,812 L241.123183,0 L532.412349,0 C674.433932,5.78966132 751.241522,66.5811052 762.835121,182.374332 C773.457356,288.46588 759.405099,370.220556 688.92593,429.882353 C678.556055,438.660625 659.716458,450.239948 632.407137,464.620321 L704.641688,785.267449 L840.991045,0 L1084,0 L943.008955,812 L700,812 Z M1632.37687,781.065901 L1768.13939,0 L2150,0 L2401.46309,0 L2414.4698,303.957219 L2535.86577,0 L2796,0 L2492.51007,542.780749 L2449.15436,812 L2202.02685,812 L2249.71812,542.780749 L2173.41239,127.437154 L2158.28081,216.762712 L1967.8,216.762712 L1951.73535,313.101695 L2128.44646,313.101695 L2092.87475,519.542373 L1917.31111,519.542373 L1865.67475,812 L1627,812 L1389.87879,812 L1389.87879,692.723164 L1243.63636,692.723164 L1201.0303,812 L950,812 L1293.15152,0 L1591.39394,0 L1632.37687,781.065901 Z M1295,508 L1390,508 L1390,244 L1385.25,244 L1295,508 Z M523.497207,283.047619 C535.176909,228.27736 505.977654,202.333553 435.899441,205.216198 L414,352.231104 C475.318436,360.87904 511.817505,337.817878 523.497207,283.047619 Z" id="Combined-Shape" fill="#FB515E"></path>
                    <g id="Group-2" transform="translate(0.000000, 934.000000)">
                        <rect id="Rectangle" fill="#FB515E" x="0" y="0" width="2694" height="667"></rect>
                        <path d="M348,258.5 L297,258.5 L297,247 C297,235.333275 294.250027,225.250043 288.75,216.75 C283.249973,208.249957 274.000065,204 261,204 C253.999965,204 248.250023,205.33332 243.75,208 C239.249977,210.66668 235.750012,214.083312 233.25,218.25 C230.749988,222.416688 229.000005,227.249973 228,232.75 C226.999995,238.250027 226.5,243.99997 226.5,250 C226.5,257.000035 226.749998,262.916642 227.25,267.75 C227.750002,272.583357 228.99999,276.749982 231,280.25 C233.00001,283.750018 235.916648,286.83332 239.75,289.5 C243.583352,292.16668 248.8333,294.83332 255.5,297.5 L294.5,313 C305.83339,317.333355 314.999965,322.416637 322,328.25 C329.000035,334.083363 334.416648,340.916628 338.25,348.75 C342.083352,356.583372 344.66666,365.583282 346,375.75 C347.33334,385.916718 348,397.499935 348,410.5 C348,425.500075 346.500015,439.416603 343.5,452.25 C340.499985,465.083397 335.583368,476.083287 328.75,485.25 C321.916632,494.416713 312.83339,501.66664 301.5,507 C290.16661,512.33336 276.333415,515 260,515 C247.666605,515 236.16672,512.833355 225.5,508.5 C214.83328,504.166645 205.666705,498.250037 198,490.75 C190.333295,483.249963 184.250023,474.333385 179.75,464 C175.249977,453.666615 173,442.50006 173,430.5 L173,411.5 L224,411.5 L224,427.5 C224,436.83338 226.749973,445.249963 232.25,452.75 C237.750027,460.250037 246.999935,464 260,464 C268.66671,464 275.416643,462.750013 280.25,460.25 C285.083357,457.749987 288.749987,454.250023 291.25,449.75 C293.750013,445.249977 295.33333,439.6667 296,433 C296.66667,426.3333 297,419.00004 297,411 C297,401.66662 296.66667,394.00003 296,388 C295.33333,381.99997 293.916677,377.166685 291.75,373.5 C289.583323,369.833315 286.583352,366.833345 282.75,364.5 C278.916648,362.166655 273.833365,359.66668 267.5,357 L231,342 C208.99989,332.999955 194.250038,321.083408 186.75,306.25 C179.249963,291.416592 175.5,272.833445 175.5,250.5 C175.5,237.1666 177.333315,224.50006 181,212.5 C184.666685,200.49994 190.083298,190.16671 197.25,181.5 C204.416702,172.83329 213.499945,165.916693 224.5,160.75 C235.500055,155.583307 248.33326,153 263,153 C275.66673,153 287.249947,155.33331 297.75,160 C308.250053,164.66669 317.249963,170.833295 324.75,178.5 C332.250037,186.166705 337.99998,194.749952 342,204.25 C346.00002,213.750048 348,223.49995 348,233.5 L348,258.5 Z M465,240 C465,225.666595 467.499975,213.000055 472.5,202 C477.500025,190.999945 484.083292,181.916703 492.25,174.75 C500.416708,167.583297 509.583282,162.166685 519.75,158.5 C529.916718,154.833315 540.166615,153 550.5,153 C560.833385,153 571.083282,154.833315 581.25,158.5 C591.416718,162.166685 600.583292,167.583297 608.75,174.75 C616.916708,181.916703 623.499975,190.999945 628.5,202 C633.500025,213.000055 636,225.666595 636,240 L636,428 C636,442.66674 633.500025,455.416612 628.5,466.25 C623.499975,477.083388 616.916708,486.083298 608.75,493.25 C600.583292,500.416702 591.416718,505.833315 581.25,509.5 C571.083282,513.166685 560.833385,515 550.5,515 C540.166615,515 529.916718,513.166685 519.75,509.5 C509.583282,505.833315 500.416708,500.416702 492.25,493.25 C484.083292,486.083298 477.500025,477.083388 472.5,466.25 C467.499975,455.416612 465,442.66674 465,428 L465,240 Z M516,428 C516,440.333395 519.416632,449.416637 526.25,455.25 C533.083368,461.083363 541.16662,464 550.5,464 C559.83338,464 567.916632,461.083363 574.75,455.25 C581.583368,449.416637 585,440.333395 585,428 L585,240 C585,227.666605 581.583368,218.583363 574.75,212.75 C567.916632,206.916637 559.83338,204 550.5,204 C541.16662,204 533.083368,206.916637 526.25,212.75 C519.416632,218.583363 516,227.666605 516,240 L516,428 Z M763,156 L814,156 L814,461 L915,461 L915,512 L763,512 L763,156 Z M1195,432 C1195,443.666725 1192.83335,454.49995 1188.5,464.5 C1184.16665,474.50005 1178.25004,483.249963 1170.75,490.75 C1163.24996,498.250037 1154.50005,504.166645 1144.5,508.5 C1134.49995,512.833355 1123.83339,515 1112.5,515 C1101.16661,515 1090.50005,512.833355 1080.5,508.5 C1070.49995,504.166645 1061.75004,498.250037 1054.25,490.75 C1046.74996,483.249963 1040.83335,474.50005 1036.5,464.5 C1032.16665,454.49995 1030,443.666725 1030,432 L1030,156 L1081,156 L1081,427 C1081,439.66673 1083.99997,448.99997 1090,455 C1096.00003,461.00003 1103.49995,464 1112.5,464 C1121.50005,464 1128.99997,461.00003 1135,455 C1141.00003,448.99997 1144,439.66673 1144,427 L1144,156 L1195,156 L1195,432 Z M1358.5,204 L1299.5,204 L1299.5,156 L1468.5,156 L1468.5,204 L1409.5,204 L1409.5,512 L1358.5,512 L1358.5,204 Z M1574.5,156 L1625.5,156 L1625.5,512 L1574.5,512 L1574.5,156 Z M1754,240 C1754,225.666595 1756.49997,213.000055 1761.5,202 C1766.50003,190.999945 1773.08329,181.916703 1781.25,174.75 C1789.41671,167.583297 1798.58328,162.166685 1808.75,158.5 C1818.91672,154.833315 1829.16661,153 1839.5,153 C1849.83338,153 1860.08328,154.833315 1870.25,158.5 C1880.41672,162.166685 1889.58329,167.583297 1897.75,174.75 C1905.91671,181.916703 1912.49998,190.999945 1917.5,202 C1922.50002,213.000055 1925,225.666595 1925,240 L1925,428 C1925,442.66674 1922.50002,455.416612 1917.5,466.25 C1912.49998,477.083388 1905.91671,486.083298 1897.75,493.25 C1889.58329,500.416702 1880.41672,505.833315 1870.25,509.5 C1860.08328,513.166685 1849.83338,515 1839.5,515 C1829.16661,515 1818.91672,513.166685 1808.75,509.5 C1798.58328,505.833315 1789.41671,500.416702 1781.25,493.25 C1773.08329,486.083298 1766.50003,477.083388 1761.5,466.25 C1756.49997,455.416612 1754,442.66674 1754,428 L1754,240 Z M1805,428 C1805,440.333395 1808.41663,449.416637 1815.25,455.25 C1822.08337,461.083363 1830.16662,464 1839.5,464 C1848.83338,464 1856.91663,461.083363 1863.75,455.25 C1870.58337,449.416637 1874,440.333395 1874,428 L1874,240 C1874,227.666605 1870.58337,218.583363 1863.75,212.75 C1856.91663,206.916637 1848.83338,204 1839.5,204 C1830.16662,204 1822.08337,206.916637 1815.25,212.75 C1808.41663,218.583363 1805,227.666605 1805,240 L1805,428 Z M2050,156 L2099,156 L2176,370.5 L2177,370.5 L2177,156 L2228,156 L2228,512 L2180,512 L2102,298 L2101,298 L2101,512 L2050,512 L2050,156 Z M2521,258.5 L2470,258.5 L2470,247 C2470,235.333275 2467.25003,225.250043 2461.75,216.75 C2456.24997,208.249957 2447.00007,204 2434,204 C2426.99996,204 2421.25002,205.33332 2416.75,208 C2412.24998,210.66668 2408.75001,214.083312 2406.25,218.25 C2403.74999,222.416688 2402,227.249973 2401,232.75 C2400,238.250027 2399.5,243.99997 2399.5,250 C2399.5,257.000035 2399.75,262.916642 2400.25,267.75 C2400.75,272.583357 2401.99999,276.749982 2404,280.25 C2406.00001,283.750018 2408.91665,286.83332 2412.75,289.5 C2416.58335,292.16668 2421.8333,294.83332 2428.5,297.5 L2467.5,313 C2478.83339,317.333355 2487.99996,322.416637 2495,328.25 C2502.00004,334.083363 2507.41665,340.916628 2511.25,348.75 C2515.08335,356.583372 2517.66666,365.583282 2519,375.75 C2520.33334,385.916718 2521,397.499935 2521,410.5 C2521,425.500075 2519.50002,439.416603 2516.5,452.25 C2513.49998,465.083397 2508.58337,476.083287 2501.75,485.25 C2494.91663,494.416713 2485.83339,501.66664 2474.5,507 C2463.16661,512.33336 2449.33342,515 2433,515 C2420.6666,515 2409.16672,512.833355 2398.5,508.5 C2387.83328,504.166645 2378.66671,498.250037 2371,490.75 C2363.33329,483.249963 2357.25002,474.333385 2352.75,464 C2348.24998,453.666615 2346,442.50006 2346,430.5 L2346,411.5 L2397,411.5 L2397,427.5 C2397,436.83338 2399.74997,445.249963 2405.25,452.75 C2410.75003,460.250037 2419.99993,464 2433,464 C2441.66671,464 2448.41664,462.750013 2453.25,460.25 C2458.08336,457.749987 2461.74999,454.250023 2464.25,449.75 C2466.75001,445.249977 2468.33333,439.6667 2469,433 C2469.66667,426.3333 2470,419.00004 2470,411 C2470,401.66662 2469.66667,394.00003 2469,388 C2468.33333,381.99997 2466.91668,377.166685 2464.75,373.5 C2462.58332,369.833315 2459.58335,366.833345 2455.75,364.5 C2451.91665,362.166655 2446.83336,359.66668 2440.5,357 L2404,342 C2381.99989,332.999955 2367.25004,321.083408 2359.75,306.25 C2352.24996,291.416592 2348.5,272.833445 2348.5,250.5 C2348.5,237.1666 2350.33331,224.50006 2354,212.5 C2357.66669,200.49994 2363.0833,190.16671 2370.25,181.5 C2377.4167,172.83329 2386.49995,165.916693 2397.5,160.75 C2408.50005,155.583307 2421.33326,153 2436,153 C2448.66673,153 2460.24995,155.33331 2470.75,160 C2481.25005,164.66669 2490.24996,170.833295 2497.75,178.5 C2505.25004,186.166705 2510.99998,194.749952 2515,204.25 C2519.00002,213.750048 2521,223.49995 2521,233.5 L2521,258.5 Z" id="SOLUTIONS" fill="#FFFFFF" fill-rule="nonzero"></path>
                    </g>
                </g>
            </g>
        </g>
    </g>
</svg>