<?xml version="1.0" encoding="UTF-8"?>
<svg width="3250px" height="2050px" viewBox="0 0 3250 2050" version="1.1" xmlns="http://www.w3.org/2000/svg" xmlns:xlink="http://www.w3.org/1999/xlink">
    <!-- Generator: Sketch 54.1 (76490) - https://sketchapp.com -->
    <title>Riafy Solutions Logo Rectangle Red@2x</title>
    <desc>Created with Sketch.</desc>
    <g id="Logo" stroke="none" stroke-width="1" fill="none" fill-rule="evenodd">
        <g id="v2-Logo-Export-Red-Rectangle-Copy" transform="translate(-1132.000000, -818.000000)">
            <g id="Riafy-Solutions-Logo-Rectangle" transform="translate(1132.000000, 818.000000)">
                <rect id="Rectangle" x="0" y="0" width="3250" height="2050"></rect>
                <g id="Group" transform="translate(169.000000, 225.000000)">
                    <g id="Asset-2" transform="translate(139.000000, 4.000000)" fill="#FB515E" fill-rule="nonzero">
                        <path d="M660.994747,226.811442 C660.994747,285.348066 649.418531,334.751827 626.266099,375.022723 C604.06767,414.410414 569.382551,445.279807 527.688507,462.755748 L604.048392,807 L352.391521,807 L309.250343,512.950544 L279.267225,512.950544 L227.929223,807 L0,807 L140.208828,0 L419.404151,0 C497.633487,0 557.551789,19.008822 599.159059,57.0264659 C640.766328,95.0441098 661.378224,151.639102 660.994747,226.811442 Z M420.554582,257.877562 C420.554582,234.338264 414.275144,218.757263 401.716268,211.134557 C391.004441,204.114603 378.565289,200.183265 365.765286,199.772411 L333.912717,199.772411 L307.740402,348.774728 L332.834187,348.774728 C354.889614,349.02682 376.380644,341.80297 393.807052,328.279718 C411.638739,314.616379 420.554582,291.148993 420.554582,257.877562 Z" id="Shape"></path>
                        <polygon id="Path" points="852.535566 807 611 807 751.176891 0 993 0"></polygon>
                        <path d="M1302.39405,688.488505 L1157.6462,688.488505 L1115.50898,807 L867,807 L1206.68646,0 L1501.86277,0 L1544,807 L1302.39405,807 L1302.39405,688.488505 Z M1214.66808,507.269471 L1305.84557,507.269471 L1305.84557,241.625379 L1301.31545,241.625379 L1214.66808,507.269471 Z" id="Shape"></path>
                        <polygon id="Path" points="2083.43694 215.449296 1894 215.449296 1878.38153 311.164587 2054.07134 311.164587 2018.73185 516.330422 1843.83376 516.330422 1792.51592 807 1555 807 1695.35032 0 2120 0"></polygon>
                        <polygon id="Path" points="2382.61857 807 2140.96192 807 2187.71098 541.42782 2084 5.10967731e-14 2335.72567 5.10967731e-14 2350.54153 297.501248 2353.84992 297.501248 2472.37675 0 2730 0 2429.43955 541.42782"></polygon>
                    </g>
                    <g id="Group-2" transform="translate(0.000000, 934.000000)">
                        <path d="M2757.9374,1.13686838e-13 L2641.45964,667 L8.64019967e-12,667 L116.477759,1.13686838e-13 L2757.9374,0 Z" id="Combined-Shape" fill="#FB515E"></path>
                        <path d="M413,260.294199 L363.457143,260.294199 L363.457143,249.143646 C363.457143,237.831435 360.785741,228.054599 355.442857,219.812845 C350.099973,211.571091 341.114349,207.450276 328.485714,207.450276 C321.68568,207.450276 316.100022,208.743081 311.728571,211.328729 C307.357121,213.914378 303.957155,217.22719 301.528571,221.267265 C299.099988,225.307341 297.400005,229.993758 296.428571,235.326657 C295.457138,240.659557 294.971429,246.234778 294.971429,252.052486 C294.971429,258.839813 295.214283,264.576634 295.7,269.263122 C296.185717,273.949609 297.39999,277.989624 299.342857,281.383287 C301.285724,284.776951 304.119029,287.766562 307.842857,290.35221 C311.566685,292.937858 316.666634,295.523468 323.142857,298.109116 L361.028571,313.138122 C372.03815,317.3398 380.942823,322.268618 387.742857,327.924724 C394.542891,333.580829 399.804743,340.206454 403.528571,347.801796 C407.2524,355.397137 409.761898,364.123569 411.057143,373.981354 C412.352387,383.839138 413,395.070379 413,407.675414 C413,422.219686 411.542872,435.713336 408.628571,448.156768 C405.714271,460.6002 400.938128,471.26584 394.3,480.154006 C387.661872,489.042172 378.83815,496.071797 367.828571,501.243094 C356.818993,506.41439 343.381032,509 327.514286,509 C315.533273,509 304.361957,506.899192 294,502.697514 C283.638043,498.495835 274.733371,492.759014 267.285714,485.486878 C259.838058,478.214743 253.928593,469.569111 249.557143,459.549724 C245.185692,449.530337 243,438.703097 243,427.06768 L243,408.645028 L292.542857,408.645028 L292.542857,424.15884 C292.542857,433.208609 295.214259,441.369439 300.557143,448.641575 C305.900027,455.91371 314.885651,459.549724 327.514286,459.549724 C335.933375,459.549724 342.490453,458.337719 347.185714,455.913674 C351.880976,453.489629 355.442845,450.096016 357.871429,445.732735 C360.300012,441.369453 361.838092,435.955833 362.485714,429.491713 C363.133337,423.027592 363.457143,415.917166 363.457143,408.160221 C363.457143,399.110452 363.133337,391.676825 362.485714,385.859116 C361.838092,380.041407 360.461915,375.35499 358.357143,371.799724 C356.25237,368.244457 353.338114,365.335647 349.614286,363.073204 C345.890458,360.810762 340.952412,358.386753 334.8,355.801105 L299.342857,341.256906 C277.971322,332.530343 263.642894,320.975901 256.357143,306.593232 C249.071392,292.210563 245.428571,274.192097 245.428571,252.537293 C245.428571,239.609051 247.209506,227.327406 250.771429,215.691989 C254.333351,204.056572 259.595203,194.037335 266.557143,185.633978 C273.519082,177.230621 282.342804,170.524196 293.028571,165.514503 C303.714339,160.504809 316.180881,158 330.428571,158 C342.733395,158 353.985663,160.262408 364.185714,164.787293 C374.385765,169.312177 383.128535,175.291399 390.414286,182.725138 C397.700036,190.158877 403.285695,198.481308 407.171429,207.69268 C411.057162,216.904052 413,226.357686 413,236.053867 L413,260.294199 Z M525,242.356354 C525,228.458494 527.426876,216.176849 532.280702,205.51105 C537.134527,194.845251 543.525301,186.038018 551.453216,179.089088 C559.381131,172.140159 568.279678,166.888139 578.149123,163.332873 C588.018568,159.777607 597.968761,158 608,158 C618.031239,158 627.981432,159.777607 637.850877,163.332873 C647.720322,166.888139 656.618869,172.140159 664.546784,179.089088 C672.474699,186.038018 678.865473,194.845251 683.719298,205.51105 C688.573124,216.176849 691,228.458494 691,242.356354 L691,424.643646 C691,438.864712 688.573124,451.227157 683.719298,461.731354 C678.865473,472.23555 672.474699,480.961982 664.546784,487.910912 C656.618869,494.859841 647.720322,500.111861 637.850877,503.667127 C627.981432,507.222393 618.031239,509 608,509 C597.968761,509 588.018568,507.222393 578.149123,503.667127 C568.279678,500.111861 559.381131,494.859841 551.453216,487.910912 C543.525301,480.961982 537.134527,472.23555 532.280702,461.731354 C527.426876,451.227157 525,438.864712 525,424.643646 L525,242.356354 Z M574,425.107692 C574,437.061598 577.367116,445.865356 584.101449,451.519231 C590.835782,457.173105 598.801886,460 608,460 C617.198114,460 625.164218,457.173105 631.898551,451.519231 C638.632884,445.865356 642,437.061598 642,425.107692 L642,242.892308 C642,230.938402 638.632884,222.134644 631.898551,216.480769 C625.164218,210.826895 617.198114,208 608,208 C598.801886,208 590.835782,210.826895 584.101449,216.480769 C577.367116,222.134644 574,230.938402 574,242.892308 L574,425.107692 Z M815,161 L864.322368,161 L864.322368,456.575843 L962,456.575843 L962,506 L815,506 L815,161 Z M1234,428.543175 C1234,439.852424 1231.88588,450.353712 1227.65758,460.047354 C1223.42927,469.740996 1217.6561,478.222805 1210.33788,485.493036 C1203.01966,492.763268 1194.48187,498.498586 1184.72424,502.699164 C1174.96662,506.899742 1164.55864,509 1153.5,509 C1142.44136,509 1132.03338,506.899742 1122.27576,502.699164 C1112.51813,498.498586 1103.98034,492.763268 1096.66212,485.493036 C1089.3439,478.222805 1083.57073,469.740996 1079.34242,460.047354 C1075.11412,450.353712 1073,439.852424 1073,428.543175 L1073,161 L1122.76364,161 L1122.76364,423.696379 C1122.76364,435.974992 1125.69088,445.022255 1131.54545,450.83844 C1137.40003,456.654625 1144.71814,459.562674 1153.5,459.562674 C1162.28186,459.562674 1169.59997,456.654625 1175.45455,450.83844 C1181.30912,445.022255 1184.23636,435.974992 1184.23636,423.696379 L1184.23636,161 L1234,161 L1234,428.543175 Z M1392.25444,207.516854 L1335,207.516854 L1335,161 L1499,161 L1499,207.516854 L1441.74556,207.516854 L1441.74556,506 L1392.25444,506 L1392.25444,207.516854 Z M1602,161 L1651,161 L1651,506 L1602,506 L1602,161 Z M1777,242.356354 C1777,228.458494 1779.42688,216.176849 1784.2807,205.51105 C1789.13453,194.845251 1795.5253,186.038018 1803.45322,179.089088 C1811.38113,172.140159 1820.27968,166.888139 1830.14912,163.332873 C1840.01857,159.777607 1849.96876,158 1860,158 C1870.03124,158 1879.98143,159.777607 1889.85088,163.332873 C1899.72032,166.888139 1908.61887,172.140159 1916.54678,179.089088 C1924.4747,186.038018 1930.86547,194.845251 1935.7193,205.51105 C1940.57312,216.176849 1943,228.458494 1943,242.356354 L1943,424.643646 C1943,438.864712 1940.57312,451.227157 1935.7193,461.731354 C1930.86547,472.23555 1924.4747,480.961982 1916.54678,487.910912 C1908.61887,494.859841 1899.72032,500.111861 1889.85088,503.667127 C1879.98143,507.222393 1870.03124,509 1860,509 C1849.96876,509 1840.01857,507.222393 1830.14912,503.667127 C1820.27968,500.111861 1811.38113,494.859841 1803.45322,487.910912 C1795.5253,480.961982 1789.13453,472.23555 1784.2807,461.731354 C1779.42688,451.227157 1777,438.864712 1777,424.643646 L1777,242.356354 Z M1826,425.107692 C1826,437.061598 1829.36712,445.865356 1836.10145,451.519231 C1842.83578,457.173105 1850.80189,460 1860,460 C1869.19811,460 1877.16422,457.173105 1883.89855,451.519231 C1890.63288,445.865356 1894,437.061598 1894,425.107692 L1894,242.892308 C1894,230.938402 1890.63288,222.134644 1883.89855,216.480769 C1877.16422,210.826895 1869.19811,208 1860,208 C1850.80189,208 1842.83578,210.826895 1836.10145,216.480769 C1829.36712,222.134644 1826,230.938402 1826,242.892308 L1826,425.107692 Z M2064,161 L2111.6236,161 L2186.46067,368.872191 L2187.43258,368.872191 L2187.43258,161 L2237,161 L2237,506 L2190.34831,506 L2114.53933,298.61236 L2113.56742,298.61236 L2113.56742,506 L2064,506 L2064,161 Z M2520,260.294199 L2470.45714,260.294199 L2470.45714,249.143646 C2470.45714,237.831435 2467.78574,228.054599 2462.44286,219.812845 C2457.09997,211.571091 2448.11435,207.450276 2435.48571,207.450276 C2428.68568,207.450276 2423.10002,208.743081 2418.72857,211.328729 C2414.35712,213.914378 2410.95716,217.22719 2408.52857,221.267265 C2406.09999,225.307341 2404.4,229.993758 2403.42857,235.326657 C2402.45714,240.659557 2401.97143,246.234778 2401.97143,252.052486 C2401.97143,258.839813 2402.21428,264.576634 2402.7,269.263122 C2403.18572,273.949609 2404.39999,277.989624 2406.34286,281.383287 C2408.28572,284.776951 2411.11903,287.766562 2414.84286,290.35221 C2418.56669,292.937858 2423.66663,295.523468 2430.14286,298.109116 L2468.02857,313.138122 C2479.03815,317.3398 2487.94282,322.268618 2494.74286,327.924724 C2501.54289,333.580829 2506.80474,340.206454 2510.52857,347.801796 C2514.2524,355.397137 2516.7619,364.123569 2518.05714,373.981354 C2519.35239,383.839138 2520,395.070379 2520,407.675414 C2520,422.219686 2518.54287,435.713336 2515.62857,448.156768 C2512.71427,460.6002 2507.93813,471.26584 2501.3,480.154006 C2494.66187,489.042172 2485.83815,496.071797 2474.82857,501.243094 C2463.81899,506.41439 2450.38103,509 2434.51429,509 C2422.53327,509 2411.36196,506.899192 2401,502.697514 C2390.63804,498.495835 2381.73337,492.759014 2374.28571,485.486878 C2366.83806,478.214743 2360.92859,469.569111 2356.55714,459.549724 C2352.18569,449.530337 2350,438.703097 2350,427.06768 L2350,408.645028 L2399.54286,408.645028 L2399.54286,424.15884 C2399.54286,433.208609 2402.21426,441.369439 2407.55714,448.641575 C2412.90003,455.91371 2421.88565,459.549724 2434.51429,459.549724 C2442.93338,459.549724 2449.49045,458.337719 2454.18571,455.913674 C2458.88098,453.489629 2462.44285,450.096016 2464.87143,445.732735 C2467.30001,441.369453 2468.83809,435.955833 2469.48571,429.491713 C2470.13334,423.027592 2470.45714,415.917166 2470.45714,408.160221 C2470.45714,399.110452 2470.13334,391.676825 2469.48571,385.859116 C2468.83809,380.041407 2467.46192,375.35499 2465.35714,371.799724 C2463.25237,368.244457 2460.33811,365.335647 2456.61429,363.073204 C2452.89046,360.810762 2447.95241,358.386753 2441.8,355.801105 L2406.34286,341.256906 C2384.97132,332.530343 2370.64289,320.975901 2363.35714,306.593232 C2356.07139,292.210563 2352.42857,274.192097 2352.42857,252.537293 C2352.42857,239.609051 2354.20951,227.327406 2357.77143,215.691989 C2361.33335,204.056572 2366.5952,194.037335 2373.55714,185.633978 C2380.51908,177.230621 2389.3428,170.524196 2400.02857,165.514503 C2410.71434,160.504809 2423.18088,158 2437.42857,158 C2449.73339,158 2460.98566,160.262408 2471.18571,164.787293 C2481.38577,169.312177 2490.12853,175.291399 2497.41429,182.725138 C2504.70004,190.158877 2510.28569,198.481308 2514.17143,207.69268 C2518.05716,216.904052 2520,226.357686 2520,236.053867 L2520,260.294199 Z" id="SOLUTIONS" fill="#FFFFFF" fill-rule="nonzero"></path>
                    </g>
                </g>
            </g>
        </g>
    </g>
</svg>